<?xml version="1.0" encoding="UTF-8" standalone="no"?><!DOCTYPE svg PUBLIC "-//W3C//DTD SVG 1.1//EN" "http://www.w3.org/Graphics/SVG/1.1/DTD/svg11.dtd"><svg width="100%" height="100%" viewBox="0 0 1562 1307" version="1.1" xmlns="http://www.w3.org/2000/svg" xmlns:xlink="http://www.w3.org/1999/xlink" xml:space="preserve" xmlns:serif="http://www.serif.com/" style="fill-rule:evenodd;clip-rule:evenodd;stroke-linejoin:round;stroke-miterlimit:2;"><path d="M554.944,1035.25c-0,-26.742 -8.913,-46.875 -26.738,-60.413c-15.191,-11.55 -35.158,-17.329 -59.916,-17.329c-14.534,0 -26.246,0.825 -35.159,2.471l0,119.838c0,15.525 16.004,23.275 48.029,23.275c49.188,-0 73.784,-22.609 73.784,-67.842m-23.771,-155.483c-0,-21.13 -5.442,-36.317 -16.338,-45.559c-10.57,-9.575 -27.566,-14.358 -51.004,-14.358c-18.816,-0 -28.887,2.804 -30.204,8.421c-0.333,1.321 -0.496,2.966 -0.496,4.946l0,104.979l21.292,-0c26.737,-0 46.217,-4.534 58.429,-13.617c12.213,-9.075 18.321,-24.017 18.321,-44.812m73.287,150.033c0,31.037 -12.05,54.312 -36.145,69.825c-15.188,10.229 -34.663,16.833 -58.43,19.804l-103.991,0l-43.079,0.5l-0,-0.5c8.579,-1.312 15.266,-5.692 20.054,-13.121c4.783,-7.429 7.179,-17.737 7.179,-30.95l0.496,-226.291l-0.496,-0l-0,-0.5c-0,-13.2 -2.396,-23.521 -7.179,-30.95c-4.788,-7.425 -11.475,-11.796 -20.054,-13.121l-0,-0.492l123.795,-0.987c27.063,0.987 48.53,6.604 64.375,16.833c19.471,12.546 29.213,31.196 29.213,55.95c-0,32.683 -19.975,55.467 -59.917,68.333c-4.629,1.329 -4.458,2.479 0.496,3.467c55.788,9.583 83.683,36.975 83.683,82.2" style="fill:#030405;fill-rule:nonzero;"/><path d="M1380.04,879.765c0,-21.129 -5.445,-36.317 -16.341,-45.558c-10.567,-9.575 -27.567,-14.359 -51.004,-14.359c-18.813,0 -28.888,2.805 -30.2,8.421c-0.334,1.321 -0.496,2.967 -0.496,4.946l-1.488,120.825l19.809,0c27.729,0 47.945,-7.183 60.658,-21.542c12.704,-14.358 19.062,-31.937 19.062,-52.733m-70.808,240.163l-0.496,-0l-43.079,-0.5l-10.896,-0l-43.079,0.5l0,-0.5c15.179,-1.98 24.092,-13.534 26.738,-34.663l-0,-1.979c0.325,-1.646 0.495,-4.125 0.495,-7.429l0.496,-226.296l-0.496,-0l0,-0.496c0,-13.204 -2.395,-23.521 -7.179,-30.95c-4.787,-7.425 -11.475,-11.8 -20.054,-13.121l0,-0.491l123.796,-0.988c27.062,0.988 48.525,6.604 64.371,16.833c19.475,12.546 29.216,31.196 29.216,55.95c0,32.68 -20.47,60.746 -61.404,84.18c-4.629,1.329 -7.758,2.979 -9.404,4.958c64.367,93.421 126.592,144.096 186.679,152.012l16.834,2.98l-79.225,0.491c-32.359,0.325 -60.584,-13.691 -84.68,-42.091c-33.67,-43.58 -61.57,-78.567 -83.683,-104.975c-14.529,-0 -25.75,0.825 -33.671,2.47l1.488,99.534c-0,13.208 2.387,23.521 7.179,30.95c4.783,7.429 11.467,11.808 20.054,13.121l0,0.5Z" style="fill:#030405;fill-rule:nonzero;"/><path d="M927.857,1105.81c-4.788,-7.429 -7.179,-17.737 -7.179,-30.946l-0.496,-70.316l-0,-142.113c0.658,-19.808 3.383,-33.921 8.171,-42.337c2.079,-3.659 4.587,-6.521 7.387,-8.842c-2.471,1.025 -4.85,2.233 -7.35,3.179c-17.442,6.596 -35.45,11.617 -53.746,15.367c1.579,5.675 2.459,12.187 2.459,19.754l-0,0.5l0.495,0l-0.495,74.771c-0,8.254 -1.163,13.542 -3.467,15.846c-1.658,1.325 -5.783,1.983 -12.379,1.983l-168.363,0c-10.891,0 -16.337,-5.608 -16.337,-16.837l-0,-62.888c0.421,-12.662 1.779,-22.733 3.887,-30.742c-19,-3.27 -37.091,-7.708 -54.271,-13.233c0.038,0.054 0.084,0.096 0.121,0.15c4.784,7.429 7.179,17.75 7.179,30.95l0,0.492l0.496,-0l0,224.316c0,13.209 -2.396,23.517 -7.179,30.946c-4.787,7.429 -11.475,11.809 -20.054,13.121l-0,0.5c17.492,-0.325 32.842,-0.5 46.05,-0.5l8.421,0l43.079,0.5l-0,-0.5c-8.588,-1.312 -15.271,-5.692 -20.054,-13.121c-4.792,-7.429 -7.179,-17.737 -7.179,-30.946l-0.496,-91.108c-0,-7.262 0.821,-11.804 2.475,-13.625c1.646,-1.804 6.104,-2.721 13.366,-2.721l170.838,0c5.946,0 9.733,1.163 11.387,3.467c1.65,2.312 2.48,6.937 2.48,13.867l0.495,90.12c0,13.209 -2.4,23.517 -7.183,30.946c-4.787,7.429 -11.475,11.809 -20.054,13.121l-0,0.5c17.491,-0.325 32.846,-0.5 46.054,-0.5l8.417,0l43.079,0.5l-0,-0.5c-8.588,-1.312 -15.271,-5.692 -20.054,-13.121" style="fill:#030405;fill-rule:nonzero;"/><path d="M766.795,280.807c-30.254,0 -56.85,6.246 -79.762,18.7c-22.938,12.475 -42.446,29.867 -58.546,52.171c-16.1,22.317 -28.312,48.229 -36.587,77.758c-8.305,29.525 -12.442,61.684 -12.442,96.463c-0,16.404 0.958,32.158 2.929,47.246c1.942,15.1 4.871,29.525 8.783,43.304l27.805,-0c1.945,-30.834 12.191,-55.275 30.737,-73.329c18.521,-18.042 41.458,-31.992 68.788,-41.83c27.308,-9.841 57.079,-16.241 89.279,-19.195c32.2,-2.955 61.95,-4.43 89.279,-4.43c4.871,-62.333 -5.371,-110.733 -30.738,-145.183c-25.383,-34.45 -58.541,-51.675 -99.525,-51.675m0,499.033c-48.8,0 -91.975,-6.562 -129.525,-19.679c-37.575,-13.125 -69.291,-31.012 -95.133,-53.646c-25.867,-22.641 -45.621,-49.37 -59.275,-80.225c-13.675,-30.833 -20.496,-64.3 -20.496,-100.391c0,-36.088 6.588,-69.717 19.763,-100.896c13.171,-31.158 32.679,-58.071 58.546,-80.708c25.837,-22.638 57.812,-40.509 95.862,-53.646c38.058,-13.117 81.458,-19.684 130.258,-19.684c38.055,0 73.184,4.767 105.384,14.271c32.2,9.521 59.275,23.621 81.229,42.325c21.95,18.7 38.283,41.342 49.025,67.917c10.729,26.571 14.137,57.258 10.25,92.033l-112.7,0c-26.342,0 -54.879,1.475 -85.617,4.429c-30.737,2.95 -59.529,9.196 -86.354,18.696c-26.85,9.525 -49.283,23.471 -67.325,41.838c-18.067,18.379 -27.075,42.983 -27.075,73.816l-40.979,0c13.65,43.313 35.125,78.1 64.392,104.338c29.275,26.254 65.862,39.371 109.77,39.371c27.305,-0 53.171,-2.121 77.575,-6.392c24.375,-4.262 46.58,-10.987 66.588,-20.179c19.987,-9.188 37.558,-21.488 52.696,-36.913c15.116,-15.412 26.566,-34.283 34.391,-56.6l14.638,1.971c-8.788,28.221 -22.688,50.859 -41.713,67.917c-19.029,17.071 -40.25,30.021 -63.666,38.879c-23.421,8.858 -47.571,14.596 -72.45,17.225c-24.879,2.617 -47.567,3.933 -68.059,3.933" style="fill:#030405;fill-rule:nonzero;"/><path d="M794.382,53.332c11.75,-0 15.05,8.083 10.721,16.833l-19.5,39.362c-3.083,6.234 -7.2,12.65 -14.154,12.65l15.575,0c6.937,0 8.054,-6.42 11.133,-12.65l19.496,-39.362c4.329,-8.742 4.05,-16.833 -7.7,-16.833l-15.571,-0Zm-132.871,-8.755l162.684,0c11.745,0 14.97,8.055 10.716,16.83l-27.546,56.883c-3.025,6.246 -5.704,12.642 -12.645,12.642l-103.738,-0c-6.937,-0 -9.617,-6.392 -12.642,-12.642l-27.55,-56.883c-4.254,-8.78 -1.029,-16.83 10.721,-16.83" style="fill:#030405;"/><path d="M742.852,0c25.642,0 47.775,12.025 58.142,29.429l-116.284,0c10.367,-17.404 32.505,-29.429 58.142,-29.429" style="fill:#030405;"/><path d="M710.353,148.25l65,0c3.2,0 5.812,2.634 5.812,5.809l0,19l-76.625,-0l0,-19c0,-3.192 2.617,-5.809 5.813,-5.809" style="fill:#030405;"/><path d="M1096.63,484.667c-7.096,-82.358 -59.554,-151.496 -127.367,-194.254c-134.638,-83.813 -318.167,-83.767 -452.796,0.042c-67.8,42.754 -120.258,111.866 -127.396,194.212c-7.733,-85.329 44.096,-167.587 112.467,-216.029c139.283,-99.596 343.325,-99.55 482.6,0.042c68.354,48.42 120.196,130.683 112.492,215.987" style="fill:#030405;fill-rule:nonzero;"/><path d="M132.6,1051.39c-39.433,38.712 -78.021,60.583 -115.767,65.558l-16.833,2.975l79.225,0.492c20.917,0.208 40.079,-5.671 57.546,-17.455l-4.171,-51.57Z" style="fill:#030405;fill-rule:nonzero;"/><path d="M1230,1106.06c-7.6,-7.262 -13.867,-17.492 -18.821,-30.704c-43.25,-95.4 -86.988,-195.758 -131.217,-301.067c-17.504,46.55 -38.3,99.371 -62.396,158.454c-9.246,21.467 -22.7,51.425 -40.354,89.875c-17.662,38.463 -28.971,60.659 -33.921,66.605c-4.95,6.275 -9.571,12.466 -13.862,18.57c-4.288,6.109 -10.234,9.821 -17.825,11.134l0.491,0.5l59.917,-0l15.692,-43.329l15.504,-42.83l1.079,0l7.479,-19.316l-1.133,-0l17.708,-42.804l0.009,-0.013l45.175,-109.196c7.75,18.863 14.737,35.863 21.012,51.121l0.017,0.05c25.771,62.688 39.079,95.029 39.875,96.883l1.979,3.959l-0.542,-0l7.913,19.316l0.554,0c4.087,10.146 8.912,22.371 14.462,36.65l0.009,0.017l-0.004,0c5.65,14.529 12.05,31.183 19.204,49.992l76.754,-0.5l0,-0.5c-8.913,-1.313 -17.167,-5.604 -24.758,-12.867" style="fill:#030405;fill-rule:nonzero;"/><path d="M298.204,1076.59c-9.413,6.771 -24.017,12.963 -43.825,18.571c-9.246,2.313 -19.809,3.467 -31.692,3.467c-25.75,-0 -40.775,-0.325 -45.058,-0.988c-17.5,-3.637 -26.246,-12.879 -26.246,-27.733l-0,-105.475c-0,-2.304 1.487,-3.458 4.454,-3.458c28.296,-0.234 166.417,-0.063 254.633,0.508l0,-20.546c-98.375,-0.179 -245.82,-0.266 -252.158,-0.266c-4.625,-0 -6.929,-1.984 -6.929,-5.95l-0,-101.017c-0,-3.958 0.325,-6.429 0.992,-7.425c1.645,-1.65 5.112,-2.471 10.395,-2.471c24.43,0 43.575,0.167 57.442,0.492c15.513,0.662 28.225,1.733 38.125,3.221c9.908,1.479 17.829,3.462 23.771,5.941c5.942,2.475 10.229,5.367 12.875,8.663c2.637,3.308 4.287,7.104 4.95,11.396l0.496,-0l-0.496,-43.088l-0,-7.921c-0,-1.979 -5.279,-2.637 -15.846,-1.979c-12.546,0.988 -26.079,1.654 -40.6,1.979l-3.467,0c-20.795,0.667 -43.412,0.992 -67.841,0.992l-90.617,0.496l0,0.491c8.579,1.325 15.267,5.696 20.054,13.121c4.784,7.429 7.179,17.75 7.179,30.95l0,0.5l0.496,0l-0.496,225.796c0,13.208 -2.395,23.517 -7.179,30.946c-4.787,7.429 -11.475,11.808 -20.054,13.121l0,0.5c47.863,-0.325 85.988,-0.5 114.388,-0.5c38.95,-0 70.97,0.666 96.062,1.991c4.621,0 8.083,-0.175 10.4,-0.5l3.958,0.5l0.496,-2.979l9.904,-63.875l-0.495,-0.491c-2.646,8.583 -8.663,16.258 -18.071,23.02" style="fill:#030405;fill-rule:nonzero;"/><rect x="1060.36" y="952.909" width="210.825" height="19.317" style="fill:#030405;"/><path d="M345.721,1274.11c-5.412,18.209 -18.866,31.992 -43.141,31.992c-32.975,-0 -50.363,-26.246 -50.363,-58.567c0,-31 17.058,-59.221 50.525,-59.221c24.771,0 39.371,13.784 43.142,32.975l-8.859,0c-5.25,-14.925 -14.925,-24.77 -34.775,-24.77c-28.541,-0 -40.516,26.083 -40.516,50.854c-0,24.604 11.808,50.525 41.171,50.525c18.7,-0 28.216,-9.679 33.958,-23.788l8.858,0Z" style="fill:#231f20;fill-rule:nonzero;"/><path d="M389.7,1246.88c-0,26.408 14.6,51.341 42.158,51.341c29.692,0 42.158,-24.275 42.158,-51.508c0,-26.738 -14.108,-50.196 -41.829,-50.196c-29.529,0 -42.487,24.442 -42.487,50.363m93.829,-0.33c-0,31.33 -16.729,59.875 -52.163,59.875c-32.316,0 -51.183,-26.083 -51.183,-59.054c-0,-32.483 18.208,-59.058 52.329,-59.058c31.496,-0 51.017,24.771 51.017,58.237" style="fill:#231f20;fill-rule:nonzero;"/><path d="M525.217,1189.95l8.858,0l0,106.625l61.68,0l-1.642,8.204l-68.896,0l0,-114.829Z" style="fill:#231f20;fill-rule:nonzero;"/><path d="M629.892,1189.95l8.858,0l0,106.625l61.679,0l-1.641,8.204l-68.896,0l-0,-114.829Z" style="fill:#231f20;fill-rule:nonzero;"/><path d="M801.986,1248.35l-58.562,0l-0,48.225l64.141,0l-1.312,8.204l-71.688,0l0,-114.829l70.375,0l0,8.204l-61.516,0l-0,41.992l58.562,0l0,8.204Z" style="fill:#231f20;fill-rule:nonzero;"/><path d="M932.579,1274.11c-5.417,18.209 -18.867,31.992 -43.142,31.992c-32.975,-0 -50.362,-26.246 -50.362,-58.567c-0,-31 17.058,-59.221 50.525,-59.221c24.766,0 39.366,13.784 43.141,32.975l-8.854,0c-5.25,-14.925 -14.929,-24.77 -34.779,-24.77c-28.542,-0 -40.521,26.083 -40.521,50.854c0,24.604 11.813,50.525 41.175,50.525c18.7,-0 28.217,-9.679 33.958,-23.788l8.859,0Z" style="fill:#231f20;fill-rule:nonzero;"/><path d="M998.05,1198.16l-38.546,0l-0,-8.204l86.283,-0l0,8.204l-38.712,0l-0,106.625l-9.025,0l-0,-106.625Z" style="fill:#231f20;fill-rule:nonzero;"/><rect x="1079.27" y="1189.95" width="8.854" height="114.829" style="fill:#231f20;"/><path d="M1139.32,1246.88c0,26.408 14.6,51.341 42.159,51.341c29.691,0 42.158,-24.275 42.158,-51.508c0,-26.738 -14.108,-50.196 -41.829,-50.196c-29.529,0 -42.488,24.442 -42.488,50.363m93.83,-0.33c-0,31.33 -16.73,59.875 -52.163,59.875c-32.317,0 -51.183,-26.083 -51.183,-59.054c-0,-32.483 18.208,-59.058 52.329,-59.058c31.496,-0 51.017,24.771 51.017,58.237" style="fill:#231f20;fill-rule:nonzero;"/><path d="M1274.83,1304.78l-0,-114.829l13.125,0c17.879,27.559 59.875,91.7 67.092,104.167l0.162,0c-0.983,-16.571 -0.821,-33.467 -0.821,-52.167l0,-52l9.025,0l0,114.829l-12.137,0c-17.063,-26.575 -59.717,-93.341 -67.917,-105.97l-0.162,-0c0.816,15.091 0.654,31.82 0.654,52.658l-0,53.313l-9.021,-0.001Z" style="fill:#231f20;fill-rule:nonzero;"/></svg>