<?xml version="1.0" encoding="UTF-8" standalone="no"?><!DOCTYPE svg PUBLIC "-//W3C//DTD SVG 1.1//EN" "http://www.w3.org/Graphics/SVG/1.1/DTD/svg11.dtd"><svg width="100%" height="100%" viewBox="0 0 768 1090" version="1.1" xmlns="http://www.w3.org/2000/svg" xmlns:xlink="http://www.w3.org/1999/xlink" xml:space="preserve" xmlns:serif="http://www.serif.com/" style="fill-rule:evenodd;clip-rule:evenodd;stroke-linejoin:round;stroke-miterlimit:2;"><path d="M116.308,991.958c0,-22.087 -1.441,-28 -21.412,-29.579l-0,-2.366c11.117,0.391 22.442,0.791 33.558,0.791c9.054,0 18.113,-0.4 26.967,-0.791l-0,2.366c-19.146,1.579 -20.588,7.492 -20.588,29.579l0,65.875c0,22.088 1.442,28.005 21.617,29.584l0,2.362c-10.5,-0.392 -20.787,-0.783 -31.292,-0.783c-10.087,-0 -19.966,0.391 -29.85,0.783l0,-2.362c19.559,-1.58 21,-7.496 21,-29.584l0,-35.495l-76.37,-0l-0,35.495c-0,22.088 1.441,28.005 21.608,29.584l-0,2.362c-10.492,-0.392 -20.788,-0.783 -31.283,-0.783c-10.088,-0 -19.971,0.391 -29.85,0.783l-0,-2.362c19.554,-1.58 20.995,-7.496 20.995,-29.584l0,-65.875c0,-22.087 -1.441,-28 -21.408,-29.579l0,-2.366c11.117,0.391 22.438,0.791 33.554,0.791c9.059,0 18.113,-0.4 26.963,-0.792l-0,2.367c-19.138,1.579 -20.579,7.492 -20.579,29.579l-0,24.067l76.37,0l0,-24.067Z" style="fill:#231f20;fill-rule:nonzero;"/><path d="M218.636,975.988l-20.171,50.087l38.696,0l-18.525,-50.087Zm-22.229,56.004l-13.588,35.7c-0.825,1.975 -1.65,3.554 -1.65,5.325c0,9.466 13.175,13.416 19.354,14.4l0,2.362c-8.237,-0.392 -16.47,-0.783 -24.908,-0.783c-8.237,-0 -15.646,0.391 -24.5,0.783l0,-2.362c17.088,-3.546 21.204,-16.171 26.971,-29.584l35.608,-83.825c0.825,-1.766 1.65,-3.345 1.65,-4.729c0,-1.379 -1.233,-4.333 -2.471,-6.504c7.205,-1.187 11.734,-3.546 17.909,-5.921l42.816,112.813c3.917,10.254 9.884,16.171 23.263,17.75l-0,2.362c-10.913,-0.391 -21.613,-0.783 -32.729,-0.783c-15.029,-0 -20.384,0.391 -29.85,0.783l-0,-2.362c11.525,-1.388 20.379,-5.717 20.379,-13.017c-0,-2.167 -1.233,-4.337 -1.854,-6.117l-13.384,-36.291l-43.016,-0Z" style="fill:#231f20;fill-rule:nonzero;"/><path d="M409.48,960.013c9.88,0.391 19.763,0.791 29.638,0.791c8.65,0 17.5,-0.4 26.154,-0.792l0,2.367c-11.537,1.771 -19.767,4.929 -19.767,17.55c0,13.213 9.263,64.688 15.234,89.342c2.475,10.258 4.937,15.975 23.054,18.146l-0,2.362c-10.908,-0.391 -21.821,-0.783 -32.733,-0.783c-10.288,-0 -20.371,0.391 -30.675,0.783l-0,-2.362c11.745,-1.779 21.42,-3.746 21.42,-17.163c0,-3.158 -0.212,-8.475 -1.445,-15.375l-14.205,-79.483l-0.412,-0c-15.442,37.662 -34.583,73.954 -47.346,113.6l-0.417,-0c-12.758,-40.238 -30.462,-78.296 -48.983,-115.567l-0.417,0c-4.529,28.984 -9.266,74.542 -9.266,88.15c-0,17.354 4.125,25.046 23.883,25.838l0,2.362c-11.325,-0.391 -22.442,-0.783 -33.762,-0.783c-8.442,-0 -16.88,0.391 -25.321,0.783l-0,-2.362c11.533,-0.792 23.262,-6.704 25.116,-16.567c1.646,-9.071 2.88,-19.721 4.325,-29.579l9.884,-70.217c-5.771,-4.533 -14.209,-7.296 -22.234,-8.675l0,-2.366c11.73,0.391 23.467,0.791 35.196,0.791c8.442,0 16.879,-0.4 25.321,-0.792l0,2.367c-5.146,1.183 -10.5,3.946 -10.5,10.454c0,4.534 1.854,8.675 3.708,13.013l29.025,68.237c13.996,-27.608 26.967,-55.812 37.255,-84.996c-3.084,-3.358 -7.409,-5.329 -11.73,-6.708l0,-2.367Z" style="fill:#231f20;fill-rule:nonzero;"/><path d="M479.699,1087.42c19.559,-1.58 21,-7.496 21,-29.588l0,-65.871c0,-22.087 -1.441,-28 -21.408,-29.579l-0,-2.367c11.117,0.392 22.433,0.792 33.55,0.792c9.058,-0 18.117,-0.4 26.967,-0.792l-0,2.367c-19.142,1.579 -20.584,7.492 -20.584,29.579l0,65.871c0,22.092 1.442,28.008 21.617,29.587l-0,2.359c-10.5,-0.388 -20.792,-0.779 -31.292,-0.779c-10.083,-0 -19.966,0.391 -29.85,0.779l0,-2.359Z" style="fill:#231f20;fill-rule:nonzero;"/><path d="M584.688,1074c8.858,7.892 21,10.654 32.325,10.654c42.2,0 60.725,-21.3 60.725,-60.741c-0,-34.321 -27.175,-61.138 -64.433,-61.138c-9.884,0 -18.734,1.967 -27.375,5.517c-1.03,13.608 -1.242,27.412 -1.242,41.221l-0,64.487Zm-38.904,13.417c18.116,-1.579 20.383,-8.684 20.383,-14.996l0,-91.108c0,-11.442 -1.446,-17.355 -20.383,-18.934l-0,-2.366c3.708,0.195 7.208,0.387 10.704,0.587c3.5,0 7.212,0.204 10.712,0.204c9.671,0 18.313,-0.791 26.759,-1.387c8.437,-0.784 16.675,-1.379 25.312,-1.379c44.267,-0 80.7,27.216 80.7,70.408c0,43.583 -35.616,60.937 -73.9,60.937c-29.233,0 -40.962,-0.387 -52.7,-0.387c-9.262,-0 -18.321,0.387 -27.587,0.779l-0,-2.358Z" style="fill:#231f20;fill-rule:nonzero;"/><path d="M706.575,1087.42c19.558,-1.58 21,-7.496 21,-29.588l0,-65.871c0,-22.087 -1.442,-28 -21.408,-29.579l-0,-2.367c11.116,0.392 22.433,0.792 33.55,0.792c9.058,-0 18.116,-0.4 26.966,-0.792l0,2.367c-19.141,1.579 -20.583,7.492 -20.583,29.579l0,65.871c0,22.092 1.442,28.008 21.617,29.587l-0,2.359c-10.5,-0.388 -20.788,-0.779 -31.292,-0.779c-10.083,-0 -19.967,0.391 -29.85,0.779l0,-2.359Z" style="fill:#231f20;fill-rule:nonzero;"/><path d="M731.901,907.954l-0,7.337l4.541,0c3.996,0 9.467,0.663 9.467,-3.341c0,-3.734 -3.133,-3.996 -6.671,-3.996l-7.337,-0Zm17.875,25.212l-4.867,0l-7.542,-13.608l-5.466,-0l-0,13.608l-4.267,0l0,-29.479l12.404,0c5.342,0 10.142,1.592 10.142,7.8c-0,5.796 -3.938,7.938 -7.867,8.071l7.463,13.608Zm-34.013,-14.946c0,12.342 10,21.942 22.009,21.942c12.004,0 22.016,-9.6 22.016,-21.942c0,-12.408 -10.012,-21.945 -22.016,-21.945c-12.009,-0 -22.009,9.537 -22.009,21.945m-4.266,0c-0,-14.608 11.604,-26.212 26.275,-26.212c14.675,-0 26.287,11.604 26.287,26.212c0,14.609 -11.612,26.213 -26.287,26.213c-14.671,-0 -26.275,-11.604 -26.275,-26.213" style="fill:#231f20;fill-rule:nonzero;"/><path d="M364.018,859.585c-7.859,-7.858 -4.584,-18.329 -4.584,-18.329c-23.571,16.363 -25.533,28.804 -25.533,28.804c-2.617,7.855 15.058,20.296 15.058,20.296c15.713,12.442 5.238,24.879 5.238,24.879c-0,0 18.333,-12.437 24.225,-28.15c5.891,-15.716 -6.546,-19.641 -14.404,-27.5" style="fill:#231f20;fill-rule:nonzero;"/><path d="M421.63,859.585c-7.858,-7.858 -4.583,-18.329 -4.583,-18.329c-23.571,16.363 -25.533,28.804 -25.533,28.804c-2.617,7.855 15.058,20.296 15.058,20.296c15.713,12.442 5.242,24.879 5.242,24.879c-0,0 18.329,-12.437 24.221,-28.15c5.891,-15.716 -6.546,-19.641 -14.405,-27.5" style="fill:#231f20;fill-rule:nonzero;"/><path d="M499.995,253.425c58.234,-42.646 61.517,25.429 61.517,25.429c-41.008,5.738 -63.9,-23.679 -61.517,-25.429m58.288,105.121c-0,-0 -53.904,-16.929 -96.833,38.404l23.783,54.133c-0,0 2.65,-92.625 89.458,-65.195c0,-0 33.179,11.283 46.613,33.854c-0,-0 -123.45,12.254 -148.871,94.271c-48.613,-50 -46.25,-79.334 -46.25,-79.334l-0,-107.304c2.121,-0.237 4.296,-0.546 6.562,-0.954c0,-0 46.746,-12.304 51.671,-55.771c0,0 18.042,61.508 103.338,53.313c-0,-0 -4.921,-21.325 -0,-50.034c-0,0 -15.584,-95.137 -71.35,-68.071c-0,0 -24.609,14.763 -44.292,45.925c-13.004,20.592 -28.154,32.584 -45.929,33.859l-0,-285.642c-18.042,55.767 -54.129,90.217 -54.129,90.217l27.066,-13.121l0,202.929c-0.816,-0.379 -1.637,-0.762 -2.462,-1.171c-31.163,-15.587 -32.808,-92.683 -32.808,-92.683c-0,-0 -4.096,100.062 -110.717,106.621c-0,-0 54.946,83.654 109.9,-21.321c-0,-0 1.083,42.783 36.087,53.837l0,115.113c5.605,79.496 80.259,132.621 80.259,132.621c-0,-0 36.2,-117.038 165.787,-145.746c0,-0 -29.246,-52.604 -86.883,-68.75" style="fill:#231f20;fill-rule:nonzero;"/><path d="M394.889,529.629c-28.792,-44.058 -62.734,-84.096 -94.404,-126.033c-4.93,-6.529 -9.792,-13.113 -14.546,-19.767c-73.813,-103.337 -66.434,-178.792 -67.254,-185.354c4.22,-155.35 118.033,-182.963 150.495,-187.683c-0.05,-0.255 -0.066,-0.505 -0.083,-0.75c-14.054,0.133 -28.133,-0.596 -42.025,2.041c-56.779,10.763 -111.392,51.071 -135.871,103.742c-20.166,43.392 -24.404,96.858 -15.283,143.592c8.896,45.591 31.646,87.075 57.037,125.441c20.396,30.821 42.992,60.104 64.067,90.454c25.7,37.013 51.058,74.388 73.392,113.559c51.875,90.958 18.8,197.862 9.033,224.812c0.296,0.163 0.583,0.342 0.846,0.546c13.567,-22.346 61.4,-93.437 62.746,-148.921c1.204,-49.891 -21.921,-95.546 -48.15,-135.679" style="fill:#231f20;fill-rule:nonzero;"/></svg>