<?xml version="1.0" encoding="UTF-8" standalone="no"?><!DOCTYPE svg PUBLIC "-//W3C//DTD SVG 1.1//EN" "http://www.w3.org/Graphics/SVG/1.1/DTD/svg11.dtd"><svg width="100%" height="100%" viewBox="0 0 1700 3100" version="1.1" xmlns="http://www.w3.org/2000/svg" xmlns:xlink="http://www.w3.org/1999/xlink" xml:space="preserve" xmlns:serif="http://www.serif.com/" style="fill-rule:evenodd;clip-rule:evenodd;stroke-linejoin:round;stroke-miterlimit:2;"><path d="M1667.29,23.127c24.444,388.495 -50.738,627.885 -181.409,779.646c-196.215,227.882 -516.446,257.92 -807.255,300.21c-329.067,47.853 -620.498,111.542 -662.735,479.674c-20.456,178.283 8.412,309.421 70.372,407.776c72.311,114.784 189.894,185.103 328.195,233.148c136.876,47.551 294.083,73.332 447.005,99.689c130.256,22.45 257.385,45.315 365.957,82.703c107.187,36.912 196.224,87.882 251.568,167.255c73.943,106.049 87.237,262.273 5.565,501.564c-1.426,4.178 0.808,8.729 4.987,10.155c4.179,1.426 8.729,-0.808 10.155,-4.987c84.008,-246.134 68.475,-406.802 -7.583,-515.883c-45.811,-65.702 -113.728,-112.888 -195.886,-148.637c-121.578,-52.9 -274.527,-80.789 -432.046,-107.938c-152.049,-26.206 -308.376,-51.756 -444.471,-99.035c-134.67,-46.784 -249.496,-114.792 -319.908,-226.562c-60.373,-95.836 -87.946,-223.709 -68.015,-397.424c41.246,-359.484 327.806,-418.935 649.142,-465.665c294.553,-42.834 618.337,-74.787 817.078,-305.603c132.633,-154.039 210.063,-396.762 185.253,-791.091c-0.277,-4.407 -4.08,-7.759 -8.487,-7.482c-4.406,0.277 -7.759,4.08 -7.482,8.487Z" style="fill:#231f20;"/></svg>