<?xml version="1.0" encoding="UTF-8" standalone="no"?><!DOCTYPE svg PUBLIC "-//W3C//DTD SVG 1.1//EN" "http://www.w3.org/Graphics/SVG/1.1/DTD/svg11.dtd"><svg width="100%" height="100%" viewBox="0 0 39063 39063" version="1.1" xmlns="http://www.w3.org/2000/svg" xmlns:xlink="http://www.w3.org/1999/xlink" xml:space="preserve" xmlns:serif="http://www.serif.com/" style="fill-rule:evenodd;clip-rule:evenodd;stroke-linejoin:round;stroke-miterlimit:2;"><g><path d="M0,18034.2c958.717,-10115.7 9343.5,-18034.2 19531.2,-18034.2c10187.8,0 18572.6,7918.46 19531.2,18034.2l-39062.5,0Z" style="fill:#fff;"/><path d="M13023.8,12021.4c319.429,-3370.38 3113.09,-6008.67 6507.46,-6008.67c3394.38,0 6188.04,2638.3 6507.46,6008.67l-13014.9,-0Z"/></g><g><path d="M1862.02,21028.3l-1862.02,-0c958.717,10115.7 9343.5,18034.2 19531.2,18034.2c10187.8,0 18572.6,-7918.46 19531.2,-18034.2l-1861.98,-0c-867.308,9288.29 -8452.75,16559.1 -17669.2,16559.1c-9216.5,0 -16802,-7270.79 -17669.2,-16559.1Z" style="fill:#fff;"/><path d="M6551.93,21028.3l-1367.82,-0c704.237,7331.62 6863.5,13070.8 14347.2,13070.8c7483.67,-0 13642.9,-5739.12 14347.2,-13070.8l-1367.76,-0c-637.1,6731.96 -6209.17,12001.7 -12979.4,12001.7c-6770.21,0 -12342.3,-5269.71 -12979.4,-12001.7Z" style="fill:#fff;"/><path d="M11253.8,21028.3l-891.508,-0c459.029,4575.79 4473.58,8157.71 9351.38,8157.71c4877.79,0 8892.33,-3581.91 9351.38,-8157.71l-891.492,-0c-415.262,4201.54 -4047.1,7490.46 -8459.88,7490.46c-4412.79,0 -8044.62,-3288.93 -8459.88,-7490.46Z" style="fill:#fff;"/></g></svg>