<?xml version="1.0" encoding="UTF-8" standalone="no"?>
<!DOCTYPE svg PUBLIC "-//W3C//DTD SVG 1.1//EN" "http://www.w3.org/Graphics/SVG/1.1/DTD/svg11.dtd">
<svg width="100%" height="100%" viewBox="0 0 2250 2250" version="1.1" xmlns="http://www.w3.org/2000/svg" xmlns:xlink="http://www.w3.org/1999/xlink" xml:space="preserve" xmlns:serif="http://www.serif.com/" style="fill-rule:evenodd;clip-rule:evenodd;stroke-linejoin:round;stroke-miterlimit:2;">
    <g>
        <path d="M0,1038.77c55.222,-582.663 538.186,-1038.77 1125,-1038.77c586.814,0 1069.78,456.104 1125,1038.77l-2250,0Z" style="fill:#444943;"/>
        <path d="M750.17,692.434c18.399,-194.134 179.314,-346.1 374.83,-346.1c195.516,-0 356.431,151.966 374.83,346.1l-749.66,-0Z" style="fill:#d7e7bb;"/>
    </g>
    <g>
        <path d="M107.25,1211.23l-107.25,-0c55.222,582.663 538.186,1038.77 1125,1038.77c586.814,0 1069.78,-456.104 1125,-1038.77l-107.25,-0c-49.957,535.005 -486.879,953.802 -1017.75,953.802c-530.871,-0 -967.793,-418.797 -1017.75,-953.802Z" style="fill:#444943;"/>
        <path d="M377.387,1211.23l-78.783,-0c40.564,422.301 395.338,752.875 826.396,752.875c431.058,0 785.832,-330.574 826.396,-752.875l-78.783,-0c-36.697,387.76 -357.649,691.295 -747.613,691.295c-389.964,-0 -710.916,-303.535 -747.613,-691.295Z" style="fill:#444943;"/>
        <path d="M648.218,1211.23l-51.35,-0c26.44,263.567 257.678,469.885 538.639,469.885c280.96,0 512.199,-206.318 538.638,-469.885l-51.35,-0c-23.919,242.009 -233.113,431.451 -487.288,431.451c-254.176,0 -463.37,-189.442 -487.289,-431.451Z" style="fill:#444943;"/>
    </g>
</svg>