<?xml version="1.0" encoding="UTF-8" standalone="no"?><!DOCTYPE svg PUBLIC "-//W3C//DTD SVG 1.1//EN" "http://www.w3.org/Graphics/SVG/1.1/DTD/svg11.dtd"><svg width="100%" height="100%" viewBox="0 0 4167 1250" version="1.1" xmlns="http://www.w3.org/2000/svg" xmlns:xlink="http://www.w3.org/1999/xlink" xml:space="preserve" xmlns:serif="http://www.serif.com/" style="fill-rule:evenodd;clip-rule:evenodd;stroke-linecap:round;stroke-linejoin:round;"><g id="features"><path id="LYNL" d="M311.875,1250l1.458,-11.667l-6.666,-66.25l-0.834,-5.833l-22.083,-110.417l-59.167,-132.083l-28.333,-38.333l-6.667,-34.167l1.25,-0.833l10.834,-5.834l20.416,-11.25l2.5,-1.25l1.667,-1.25l3.75,-2.083l44.167,-23.333l7.083,-2.084l4.583,0l12.917,-1.25l4.167,-2.083l2.083,-1.25l30,-38.75l25.417,-41.25l21.666,-25l15,-30.833l3.75,-11.25l0,-9.584l-5.833,-19.583l-1.25,-10l1.25,-10.833l-0.417,-5l-7.5,-16.25l-7.083,-29.584l-17.917,-47.916l-0.416,-5l2.5,-18.334l3.75,-6.666l15.416,-17.084l15.834,-28.75l8.333,-6.666l1.25,-0.834l2.917,-2.5l0.833,0l26.25,0.417l13.333,-5.417l3.75,-2.916l1.667,-1.667l1.667,-2.083l2.916,-4.167l4.167,-9.583l10,-9.584l3.333,-9.583l2.084,-22.5l5.416,-5.833l2.5,0.416l2.084,0l4.166,2.5l4.167,1.667l5,-1.25l7.917,-6.667l2.916,-1.666l5.834,-3.75l7.916,-7.917l9.584,-22.5l6.666,-7.083l17.917,-8.75l56.25,-26.667l22.5,-10.833l32.5,-15.834l5.417,-2.5l2.5,-1.25l16.666,-11.25l2.917,-2.916l2.083,1.25l1.25,1.25l12.917,11.666l12.083,13.334l13.75,4.583l38.75,-0.417l0,33.75l-5.416,28.334l-4.167,35.833l4.167,30.417l3.75,20.833l-4.167,28.333l-1.25,33.334l2.917,28.333l-2.084,35.417l4.167,25l10,22.5l12.083,22.5l4.167,1.666l-22.917,42.084l-32.083,47.916l-20,31.667l-12.5,13.333l-2.083,15.834l6.25,35.833l-0.834,49.167l1.667,56.666l7.083,61.667l10,63.75l9.584,58.75l-0.417,77.083l19.167,32.5l21.25,30l5.833,22.917l2.269,15l-235.081,-0l-3.438,-18.333l-6.667,-15.417l-13.75,4.583l-17.5,11.667l-4.583,3.333l-13.333,11.667l-5.313,2.5l-188.229,-0Z" style="fill:#808080;fill-rule:nonzero;stroke:#fff;stroke-width:2.08px;"/><path id="LYNQ" d="M783.333,249.583l-38.75,0.417l-13.75,-4.583l-12.083,-13.334l-12.917,-11.666l3.334,-0.834l5.833,-8.75l7.5,-6.666l-0.833,-13.334l-7.917,-13.75l-6.25,-7.916l-10.833,-8.75l-4.167,-10.834l2.5,-17.916l-0.833,-11.667l-0.834,-7.5l2.084,-10.833l1.25,-10.417l-3.75,-10.417l5,-15l0.833,-2.083l2.917,-8.75l1.25,-0.417l-0.834,-6.25l-0.416,-1.25l-0,-15.416l1.25,-4.167l2.5,-5.417l3.333,-7.083l1.25,-5.833l0.417,-1.25l-0,-0.417l0.416,-3.333l3.334,2.5l3.333,7.5l3.75,2.916l7.5,3.75l29.167,4.584l8.75,3.333l-4.584,-5.417l-15.833,-5l-4.167,-5.416l11.667,6.666l25.833,8.75l56.25,35.834l10,10.416l9.167,2.5l15.417,10.417l19.166,9.167l10.417,2.916l54.167,5.834l-4.584,3.75l-12.5,40.833l-9.583,15.833l-30,20l-12.083,16.25l-18.75,9.167l-20.834,10l-5.833,15l-56.667,13.333Zm-85.833,-247.916l0,-1.667l5,1.25l7.083,2.5l0,0.417l-1.666,-0l-0,0.416l-1.25,0l-0,-0.416l-0.834,-0l0,-0.417l0,0.417l0,-0.417l-2.5,0l0,-0.417l-1.666,0l-0,-0.416l-1.667,-0l0,-0.417l-1.25,-0l0,-0.417l-0.833,0l-0,-0.416l-0.417,-0Z" style="fill:#808080;fill-rule:nonzero;stroke:#fff;stroke-width:2.08px;"/><path id="LYBU" d="M3473.8,1250l-0.048,-20.833l0,-180.834l-0.417,-182.083l-0.416,-183.333l-20,-8.334l-1.25,0l-0,-57.916l-2.917,-20.834l-0,-42.916l7.083,-47.917l20.417,-30.417l8.333,-44.166l2.917,-50.834l12.083,-43.75l12.084,-33.75l7.5,-25l0.416,-1.666l1.667,0.833l3.75,0.833l2.917,2.084l1.666,2.916l2.5,6.25l2.084,2.084l-0.417,-4.584l-2.5,-12.5l4.583,1.667l10.417,0l2.083,1.25l6.667,5.417l1.667,0.833l30,2.917l33.333,-0.417l41.25,9.583l37.917,15.417l-5.834,5.833l-0.833,2.084l2.083,1.25l6.25,2.5l15,12.083l5.417,1.25l45.833,-0.417l63.75,4.584l21.667,-6.667l5,-3.75l2.917,-1.25l9.583,2.083l2.083,-0.416l2.084,-1.25l1.666,-0.417l2.084,1.25l0.833,0.417l2.917,2.083l3.333,0.833l4.583,2.5l7.917,1.25l10,3.75l27.917,6.25l8.75,5.417l3.75,9.167l-2.5,11.25l-0.417,6.25l1.667,5l8.333,9.166l12.917,18.75l1.25,5l3.333,7.917l4.583,8.333l-0.833,0.834l-0.417,0.833l-15,12.083l-6.666,10l-8.75,23.75l-39.167,32.084l-2.917,9.166l0,10l2.5,23.75l0,22.917l5.834,30l1.666,5.833l8.334,17.5l2.916,14.167l10.834,22.5l2.916,11.25l-1.25,9.583l-3.75,9.584l-2.916,11.25l-2.5,15.416l-7.5,19.167l-0.417,5.417l-2.5,9.583l-4.583,9.583l-14.167,21.25l-7.083,7.5l-6.667,8.334l-2.083,3.75l-4.167,9.583l-10,17.917l-3.75,10l-0,10.833l2.083,5.833l6.667,12.5l20.833,51.667l0.834,6.25l-0,5.417l-4.167,14.583l1.667,11.667l12.083,20.833l3.75,11.25l-0,6.667l-2.083,20l0.416,10.833l2.5,9.583l19.584,48.334l4.583,15l1.667,15.833l-0,126.25l-461.619,-0Z" style="fill:#808080;fill-rule:nonzero;stroke:#fff;stroke-width:2.08px;"/><path id="LYWA" d="M2377.92,1250l-0,-42.5l3.333,-79.167l15.833,-56.666l28.75,-40.834l8.334,-40.833l-4.584,-46.25l2.917,-46.667l8.333,-53.75l4.584,-50.416l35,22.916l10,4.584l21.25,2.916l21.666,0.417l22.5,-2.5l12.5,-3.75l11.25,-3.333l19.167,-9.584l27.083,-17.5l4.584,-2.083l10.833,-2.083l5,-2.5l32.083,-25l39.584,-48.334l10.416,-18.333l5.834,-8.333l8.75,-7.084l4.166,-4.166l15.417,-32.5l11.25,-30.834l1.25,-12.083l-1.25,-35.833l-1.25,-2.084l2.917,-1.25l-0.834,-2.5l-0.833,-1.25l-2.5,-2.916l-0.833,-2.5l13.333,-0.834l26.667,8.75l10.416,16.25l17.917,24.167l25.417,17.5l17.083,5.417l34.583,-2.084l47.084,-9.166l92.5,3.333l18.75,0.417l62.083,-2.917l14.583,-6.25l18.334,-7.5l42.916,-4.167l33.75,-3.333l35.417,-7.083l18.333,16.25l29.167,26.25l13.333,27.916l25.834,17.917l16.666,3.75l24.167,7.083l23.75,-0.416l19.167,-2.084l1.25,0l20,8.334l0.416,183.333l0.417,182.083l0,180.834l0.048,20.833l-1095.88,-0Z" style="fill:#808080;fill-rule:nonzero;stroke:#fff;stroke-width:2.08px;"/><path id="LYSR" d="M2257.08,1250l-3.333,-3.333l-10,-38.334l-10,-30.833l-20.417,-25.417l-20.416,-23.333l-10.417,-25.417l-5,-20.416l-20.417,-17.917l-17.916,0l-17.917,10l-23.333,20.833l-22.917,-7.916l-36.25,-10l-25.417,-22.917l-30.833,-2.5l-25.833,10.417l-46.25,2.916l-28.334,-7.5l-4.166,2.5l22.083,-33.333l5,-28.333l-7.917,-36.25l-7.5,-43.334l-20.833,-56.666l-18.333,-51.667l-7.917,-51.25l-10.833,-54.583l-15.834,-59.167l-10.416,-41.667l-0.417,-46.666l4.167,-10l1.25,-2.5l53.333,9.583l88.75,0.833l51.25,11.25l52.5,18.334l40.833,8.75l8.334,-0l4.166,2.083l8.75,5l6.667,6.25l2.5,1.667l2.5,0.833l35.417,10.833l18.333,9.167l20.417,6.667l17.5,3.333l2.916,2.917l6.667,10l4.583,3.75l4.584,2.5l21.666,4.583l37.917,14.583l7.917,5l6.666,6.25l21.25,25l58.75,43.75l13.334,15l7.083,6.667l15.833,8.75l10,1.667l4.584,2.5c-0,-0 -4.584,50.416 -4.584,50.416l-8.333,53.75l-2.917,46.667l4.584,46.25l-8.334,40.833l-28.75,40.834l-15.833,56.666l-3.333,79.167l-0,42.5l-120.834,0Z" style="fill:#808080;fill-rule:nonzero;stroke:#fff;stroke-width:2.08px;"/><path id="LYMI" d="M1810.42,545.417l-1.25,2.5l-4.167,10l0.417,46.666l10.416,41.667l15.834,59.167l10.833,54.583l7.917,51.25l18.333,51.667l20.833,56.666l7.5,43.334l7.917,36.25l-5,28.333l-22.083,33.333l-11.25,-7.5l-23.334,-7.5l-33.333,-10l-22.917,7.917l-23.333,12.917l-15,12.916l-33.75,-4.583l-17.917,-20.417l-15.833,-25.416l-7.5,-7.5l-15.833,-7.5l-28.334,0.416l-20.416,-7.5l-23.334,-5l-36.25,-12.083l-18.333,-20.417l-17.917,-17.5l-11.25,-6.25l2.917,-5.416l15.833,-16.667l11.667,-21.25l0.417,-31.667l-2.917,-35.416l-4.583,-41.667l-20.834,-15l-1.25,-0.833l-18.75,-9.167l-52.916,-14.583l-26.25,-19.167l-22.5,-9.583l-35,-18.75l-13.334,-32.5l-21.666,-54.584l-31.667,-59.166l-4.167,-5l-13.333,-8.334l-15.417,-9.166l-26.25,-32.917l-13.333,-19.167l-7.917,-30l-11.25,-25.833l-15,-30.417l-9.166,-41.666l-13.334,-25.417l15,-0.417l37.5,1.25l15,-2.5l23.75,-7.083l13.75,-5.417l15.834,-0.416l14.583,7.083l7.5,0.833l17.917,-3.75l13.333,-15.833l39.167,27.5l19.166,19.583l25.417,8.75l31.25,-3.75l15.833,-2.5l3.75,-25l8.334,-23.333l9.166,-11.667l0.834,-16.666l-6.667,-15.834l-2.083,-14.583l5,-20l2.916,-6.667l0.417,-2.916l37.083,1.666l48.75,8.75l11.25,4.167l5,0.833l3.334,1.667l9.166,12.083l8.75,5l3.334,3.334l2.083,10.416l2.083,5.834l5,10.416l10,13.75l1.667,4.584l-0.417,5.833l-2.083,10.417l-0.833,11.25l-0.417,6.666l1.667,20.834l2.083,10l28.75,75l5.833,10l25.834,37.083l15.833,16.667l17.5,14.166l68.333,31.667l22.084,4.167Z" style="fill:#808080;fill-rule:nonzero;stroke:#fff;stroke-width:2.08px;"/><path id="LYMB" d="M1478.75,209.167l-0.417,2.916l-2.916,6.667l-5,20l2.083,14.583l6.667,15.834l-0.834,16.666l-9.166,11.667l-8.334,23.333l-3.75,25l-15.833,2.5l-31.25,3.75l-25.417,-8.75l-19.166,-19.583l-39.167,-27.5l-13.333,15.833l-17.917,3.75l-7.5,-0.833l-14.583,-7.083l-15.834,0.416l-13.75,5.417l-23.75,7.083l-15,2.5l-37.5,-1.25l-15,0.417l-1.25,-16.667l-6.666,-26.25l-15.417,-19.583l-11.667,-13.333l-3.75,-4.584l27.5,-8.75l8.334,-5.416l3.75,-14.584l12.083,-26.666l17.917,-5.834l11.666,-3.333l31.25,-14.583l3.75,-0.417l21.667,-2.083l0.833,-5.417l18.334,-20.417l15.416,-13.333l9.167,3.75l44.167,7.5l2.5,1.25l4.166,3.75l1.25,0.833l4.167,2.084l8.75,8.75l13.333,8.333l20.834,18.333l10.833,11.667l4.583,1.667l39.167,6.666l3.75,2.084l3.75,3.333l10.417,5.833l5,1.667l7.083,0.417Z" style="fill:#808080;fill-rule:nonzero;stroke:#fff;stroke-width:2.08px;"/><path id="LYTB" d="M1285.83,121.25l-15.416,13.333l-18.334,20.417l-0.833,5.417l-21.667,2.083l-3.75,0.417l-31.25,14.583l-11.666,3.333l-17.917,5.834l-12.083,26.666l-3.75,14.584l-8.334,5.416l-27.5,8.75l-11.666,-15.833l0.833,-20l-4.167,-30.417l-2.5,-23.75l-20.833,-20.416l8.333,-17.5l-1.666,-23.334l-0,-3.75l2.916,-1.25l7.5,-6.25l4.167,-2.5l5.417,-1.25l16.666,-0.833l22.917,4.167l2.5,1.666l2.5,2.084l47.917,25.416l10.833,2.5l40.833,-1.666l10.417,1.666l20.417,6.25l9.166,4.167Z" style="fill:#808080;fill-rule:nonzero;stroke:#fff;stroke-width:2.08px;"/><path id="LYZA" d="M783.333,249.583l56.667,-13.333l5.833,-15l20.834,-10l18.75,-9.167l12.083,-16.25l30,-20l9.583,-15.833l12.5,-40.833l4.584,-3.75l37.5,4.166l22.916,-1.666l60,-17.917l7.084,-2.917l-0,3.75l1.666,23.334l-8.333,17.5l-0.833,1.666l-25,13.334l-10.417,18.75l-6.667,12.083l-17.916,43.75l1.666,20l-2.5,21.667l-20,2.916l-11.666,2.917l-9.167,2.083l-18.333,-5.833l-20,-5.833l-21.25,-8.75l-26.25,2.083l-35.834,-0.833l-67.5,-2.084Z" style="fill:#808080;fill-rule:nonzero;stroke:#fff;stroke-width:2.08px;"/><path id="LYDR" d="M3519.58,275.417l-0.416,1.666l-7.5,25l-12.084,33.75l-12.083,43.75l-2.917,50.834l-8.333,44.166l-20.417,30.417l-7.083,47.917l0,42.916l2.917,20.834l-0,57.916l-19.167,2.084l-23.75,0.416l-24.167,-7.083l-16.666,-3.75l-25.834,-17.917l-13.333,-27.916l-29.167,-26.25l-18.333,-16.25l-35.417,7.083l-46.666,-45.417l7.5,-30l4.583,-20.833l0,-45.417l5.417,-15.416l2.5,-31.25l-0.417,-28.75l1.25,-45.834l-5.833,-26.25l-0.417,-24.583l-4.583,-25l4.166,-9.167l3.334,-20.833l7.083,-20.833l3.333,-15.834l-2.083,-20.833l-7.5,-15.833l-5.833,-21.25l2.083,-23.75l0.417,-17.917l0.416,0l1.25,-3.333l26.25,-2.917l1.25,-0.833l2.5,-4.167l1.25,-0.833l5.417,-0.834l2.5,-0.416l2.917,1.25l1.666,1.666l0.417,1.667l0,1.667l0.833,2.916l7.917,7.917l9.583,2.083l22.084,0l9.583,3.334l23.75,17.916l4.583,2.917l4.167,1.667l4.167,0.833l11.25,0.833l56.25,17.5l12.916,8.334l4.584,1.25l2.5,0.833l7.916,2.917l3.334,0.833l8.333,-0.833l5.417,2.083l10,5l10.833,1.667l4.583,2.083l3.334,2.917l0.416,4.166l-1.25,2.917l-4.166,5l-0.834,2.5l2.084,17.5l2.083,4.583l3.75,3.334l5,2.916l-2.083,5.834l-2.917,17.916l-4.583,-2.083l0.833,-2.5l-0.833,-2.5l-1.25,-2.5l-2.084,-2.083l-3.75,23.333l0.417,5.833l3.333,2.917l14.584,5.833l5.416,0.834l4.167,2.5l4.583,5.416l3.75,6.25l3.334,8.334l1.666,1.25Z" style="fill:#808080;fill-rule:nonzero;stroke:#fff;stroke-width:2.08px;"/><path id="LYJA" d="M3245.83,585l-33.75,3.333l-42.916,4.167l-18.334,7.5l-1.25,-60.417l-7.5,-6.666l-6.25,-13.334l-9.166,-34.166l0.833,-32.5l9.583,-24.584l2.084,-27.083l-1.25,-37.917l-7.5,-26.25l-25.417,-20.416l-15.417,-17.084l-8.333,-27.916l-15,-27.5l-7.083,-29.167l-0.834,-23.75l13.75,-16.667l17.5,-17.916l-0.833,-18.334l-15.417,-20l-1.666,-3.75l-0.417,0.417l-2.083,0l-2.084,1.25l-2.083,0l-0.417,-1.667l13.75,-3.75l9.584,-5.416l37.083,-33.75l3.333,-1.667l11.667,-0.833l10.833,-2.917l6.667,5.417l10.417,4.166l11.666,2.917l10,0.833l26.25,-2.916l-1.25,3.333l-0.416,0l-0.417,17.917l-2.083,23.75l5.833,21.25l7.5,15.833l2.083,20.833l-3.333,15.834l-7.083,20.833l-3.334,20.833l-4.166,9.167l4.583,25l0.417,24.583l5.833,26.25l-1.25,45.834l0.417,28.75l-2.5,31.25l-5.417,15.416l0,45.417l-4.583,20.833l-7.5,30l46.666,45.417Z" style="fill:#808080;fill-rule:nonzero;stroke:#fff;stroke-width:2.08px;"/><path id="LYMJ" d="M3150.83,600l-14.583,6.25l-62.083,2.917l-18.75,-0.417l-7.5,-67.917l-10.834,-22.083l-4.583,-28.75l-2.083,-23.333l-16.667,-16.25l-12.917,3.75l-28.75,2.083l-31.25,-4.583l-18.333,0.833l-19.583,8.75l-32.5,-5.833l-10.417,-14.167l-9.583,-30.417l-12.917,-22.5l-15,-31.25l-9.583,-30.416l0.416,-20.834l10.834,-31.25l17.5,-24.583l21.666,-19.167l10.834,-18.333l3.333,-31.25l-0.833,-4.583l53.333,-22.917l32.917,-22.5l27.916,-14.167l11.25,-2.5l45.417,2.917l10.833,-1.25l6.25,-1.667l0.417,1.667l2.083,-0l2.084,-1.25l2.083,-0l0.417,-0.417l1.666,3.75l15.417,20l0.833,18.334l-17.5,17.916l-13.75,16.667l0.834,23.75l7.083,29.167l15,27.5l8.333,27.916l15.417,17.084l25.417,20.416l7.5,26.25l1.25,37.917l-2.084,27.083l-9.583,24.584l-0.833,32.5l9.166,34.166l6.25,13.334l7.5,6.666l1.25,60.417Z" style="fill:#808080;fill-rule:nonzero;stroke:#fff;stroke-width:2.08px;"/><path id="LYBA" d="M3055.42,608.75l-92.5,-3.333l-47.084,9.166l-34.583,2.084l-17.083,-5.417l-25.417,-17.5l-17.917,-24.167l-10.416,-16.25l-26.667,-8.75l-13.333,0.834l0.833,2.5l2.5,2.916l0.833,1.25l0.834,2.5l-2.917,1.25l-3.333,-5.416l-5.834,-18.75l-5,-7.5l-10.833,-11.25l-3.75,-5.834l-16.25,-45.833l-1.25,-11.667l-0.417,-12.5l-0.833,-4.583l-4.167,-10.833l-1.25,-5l-0.833,-11.667l0.417,-12.917l3.333,-23.75l3.333,-10.416l-0.416,-2.917l-0.834,-3.333l-0.416,-2.917l0.833,-2.917l3.333,-4.166l21.667,-46.25l5.833,-8.75l45.417,-46.25l3.75,-6.25l11.667,-13.75l5,-2.917l9.583,-4.167l4.167,-3.75l3.333,-3.333l35,-27.917l2.917,-1.666l0.833,4.583l-3.333,31.25l-10.834,18.333l-21.666,19.167l-17.5,24.583l-10.834,31.25l-0.416,20.834l9.583,30.416l15,31.25l12.917,22.5l9.583,30.417l10.417,14.167l32.5,5.833l19.583,-8.75l18.333,-0.833l31.25,4.583l28.75,-2.083l12.917,-3.75l16.667,16.25l2.083,23.333l4.583,28.75l10.834,22.083l7.5,67.917Z" style="fill:#808080;fill-rule:nonzero;stroke:#fff;stroke-width:2.08px;"/><path id="LYJI" d="M1113.33,242.083l3.75,4.584l-15,1.666l-7.916,5.417l-25.417,3.75l-20.833,0.417l-34.584,5l2.5,-21.667l-1.666,-20l17.916,-43.75l6.667,-12.083l10.417,-18.75l25,-13.334l0.833,-1.666l20.833,20.416l2.5,23.75l4.167,30.417l-0.833,20l11.666,15.833Z" style="fill:#808080;fill-rule:nonzero;stroke:#fff;stroke-width:2.08px;"/><path id="LYJG" d="M799.769,1250l-2.269,-15l-5.833,-22.917l-21.25,-30l-19.167,-32.5l0.417,-77.083l-9.584,-58.75l-10,-63.75l-7.083,-61.667l-1.667,-56.666l0.834,-49.167l-6.25,-35.833l2.083,-15.834l12.5,-13.333l20,-31.667l32.083,-47.916l22.917,-42.084l-4.167,-1.666l-12.083,-22.5l-10,-22.5l-4.167,-25l2.084,-35.417l-2.917,-28.333l1.25,-33.334l4.167,-28.333l-3.75,-20.833l-4.167,-30.417l4.167,-35.833l5.416,-28.334l0,-33.75l67.5,2.084l35.834,0.833l26.25,-2.083l21.25,8.75l20,5.833l18.333,5.833l9.167,-2.083l11.666,-2.917l20,-2.916l34.584,-5l20.833,-0.417l25.417,-3.75l7.916,-5.417l15,-1.666l11.667,13.333l15.417,19.583l6.666,26.25l1.25,16.667l13.334,25.417l9.166,41.666l15,30.417l11.25,25.833l7.917,30l13.333,19.167l26.25,32.917l15.417,9.166l13.333,8.334l4.167,5l31.667,59.166l21.666,54.584l13.334,32.5l35,18.75l22.5,9.583l26.25,19.167l52.916,14.583l18.75,9.167l1.25,0.833l20.834,15l4.583,41.667l2.917,35.416l-0.417,31.667l-11.667,21.25l-15.833,16.667l-2.917,5.416l-7.5,14.584l-14.166,19.583l-6.667,15l0.833,20.833l4.167,19.584l0.833,22.083l-1.666,14.167l-10,13.75l-19.167,12.083l-30,22.083l-20.833,6.25l0.416,-15l-12.5,-15.833l-20,-21.667l-25,-18.333l-31.25,-15.417l-14.583,-8.333l-19.583,-4.167l-20.417,5.834l-27.083,22.5l-12.917,11.666l-15,18.334l-19.167,24.583l-11.25,23.75l-12.083,20l-14.583,20l-13.75,22.083l-22.5,30.834l-25,28.333l-9.412,5l-272.486,-0Z" style="fill:#808080;fill-rule:nonzero;stroke:#fff;stroke-width:2.08px;"/><path id="LYJU" d="M1423.48,1250l-13.895,-21.25l-11.25,-22.083l-3.333,-30l1.667,-33.75l1.25,-27.084l20.833,-6.25l30,-22.083l19.167,-12.083l10,-13.75l1.666,-14.167l-0.833,-22.083l-4.167,-19.584l-0.833,-20.833l6.667,-15l14.166,-19.583l7.5,-14.584l11.25,6.25l17.917,17.5l18.333,20.417l36.25,12.083l23.334,5l20.416,7.5l28.334,-0.416l15.833,7.5l7.5,7.5l15.833,25.416l17.917,20.417l33.75,4.583l15,-12.916l23.333,-12.917l22.917,-7.917l33.333,10l23.334,7.5l11.25,7.5l4.166,-2.5l28.334,7.5l46.25,-2.916l25.833,-10.417l30.833,2.5l25.417,22.917l36.25,10l22.917,7.916l23.333,-20.833l17.917,-10l17.916,0l20.417,17.917l5,20.416l10.417,25.417l20.416,23.333l20.417,25.417l10,30.833l10,38.334l3.333,3.333l-833.605,0Z" style="fill:#808080;fill-rule:nonzero;stroke:#fff;stroke-width:2.08px;"/></g><g id="points"><ellipse id="Misurata" cx="1578.54" cy="258.086" rx="50" ry="48.92" style="fill:#03a9f4;stroke:#fff;stroke-width:20.83px;stroke-miterlimit:1.5;"/><ellipse id="Benghazi" cx="2812.92" cy="303.164" rx="50" ry="48.92" style="fill:#03a9f4;stroke:#fff;stroke-width:20.83px;stroke-miterlimit:1.5;"/><ellipse id="AlMarj" cx="2937.08" cy="225.586" rx="50" ry="48.92" style="fill:#03a9f4;stroke:#fff;stroke-width:20.83px;stroke-miterlimit:1.5;"/><ellipse id="AlBayda" cx="3156.25" cy="144.414" rx="50" ry="48.92" style="fill:#03a9f4;stroke:#fff;stroke-width:20.83px;stroke-miterlimit:1.5;"/><ellipse id="Tobruk" cx="3642.08" cy="361.875" rx="50" ry="48.92" style="fill:#03a9f4;stroke:#fff;stroke-width:20.83px;stroke-miterlimit:1.5;"/><ellipse id="Ajdabia" cx="2833.75" cy="673.92" rx="50" ry="48.92" style="fill:#03a9f4;stroke:#fff;stroke-width:20.83px;stroke-miterlimit:1.5;"/><ellipse id="Tripoli" cx="1130.42" cy="123.92" rx="50" ry="48.92" style="fill:#03a9f4;stroke:#fff;stroke-width:20.83px;stroke-miterlimit:1.5;"/><text x="1116.6px" y="141.571px" style="font-family:'ArialMT', 'Arial', sans-serif;font-size:50px;fill:#fff;">3</text></g><g id="label_points"><path id="LYNL1" serif:id="LYNL" d="M508.75,920Z" style="fill:#e3f2fd;stroke:#fff;stroke-width:2.08px;"/><path id="LYNQ1" serif:id="LYNQ" d="M789.167,141.25Z" style="fill:#e3f2fd;stroke:#fff;stroke-width:2.08px;"/><path id="LYBU1" serif:id="LYBU" d="M3669.17,861.25Z" style="fill:#e3f2fd;stroke:#fff;stroke-width:2.08px;"/><path id="LYWA1" serif:id="LYWA" d="M3000,1165.42Z" style="fill:#e3f2fd;stroke:#fff;stroke-width:2.08px;"/><path id="LYSR1" serif:id="LYSR" d="M2114.58,841.25Z" style="fill:#e3f2fd;stroke:#fff;stroke-width:2.08px;"/><path id="LYMI1" serif:id="LYMI" d="M1575.42,608.75Z" style="fill:#e3f2fd;stroke:#fff;stroke-width:2.08px;"/><path id="LYMB1" serif:id="LYMB" d="M1306.67,220.417Z" style="fill:#e3f2fd;stroke:#fff;stroke-width:2.08px;"/><path id="LYTB1" serif:id="LYTB" d="M1141.25,139.167Z" style="fill:#e3f2fd;stroke:#fff;stroke-width:2.08px;"/><path id="LYZA1" serif:id="LYZA" d="M965.833,204.167Z" style="fill:#e3f2fd;stroke:#fff;stroke-width:2.08px;"/><path id="LYDR1" serif:id="LYDR" d="M3352.5,364.167Z" style="fill:#e3f2fd;stroke:#fff;stroke-width:2.08px;"/><path id="LYJA1" serif:id="LYJA" d="M3141.67,220.417Z" style="fill:#e3f2fd;stroke:#fff;stroke-width:2.08px;"/><path id="LYMJ1" serif:id="LYMJ" d="M2978.33,326.25Z" style="fill:#e3f2fd;stroke:#fff;stroke-width:2.08px;"/><path id="LYBA1" serif:id="LYBA" d="M2891.25,537.917Z" style="fill:#e3f2fd;stroke:#fff;stroke-width:2.08px;"/><path id="LYJI1" serif:id="LYJI" d="M1063.33,205.417Z" style="fill:#e3f2fd;stroke:#fff;stroke-width:2.08px;"/><path id="LYJG1" serif:id="LYJG" d="M1045,793.75Z" style="fill:#e3f2fd;stroke:#fff;stroke-width:2.08px;"/></g><path id="LYWS" d="M500.104,1250l5.313,-2.5l13.333,-11.667l4.583,-3.333l17.5,-11.667l13.75,-4.583l6.667,15.417l3.438,18.333l-64.584,0Zm572.151,0l9.412,-5l25,-28.333l22.5,-30.834l13.75,-22.083l14.583,-20l12.083,-20l11.25,-23.75l19.167,-24.583l15,-18.334l12.917,-11.666l27.083,-22.5l20.417,-5.834l19.583,4.167l14.583,8.333l31.25,15.417l25,18.333l20,21.667l12.5,15.833l-0.416,15l-1.25,27.084l-1.667,33.75l3.333,30l11.25,22.083l13.895,21.25l-351.223,0Z" style="fill:#808080;fill-rule:nonzero;stroke:#fff;stroke-width:2.08px;"/></svg>