<?xml version="1.0" encoding="UTF-8" standalone="no"?><!DOCTYPE svg PUBLIC "-//W3C//DTD SVG 1.1//EN" "http://www.w3.org/Graphics/SVG/1.1/DTD/svg11.dtd"><svg width="100%" height="100%" viewBox="0 0 4167 4050" version="1.1" xmlns="http://www.w3.org/2000/svg" xmlns:xlink="http://www.w3.org/1999/xlink" xml:space="preserve" xmlns:serif="http://www.serif.com/" style="fill-rule:evenodd;clip-rule:evenodd;stroke-linecap:round;stroke-linejoin:round;"><g id="features"><path id="LYNL" d="M705.833,404.583l12.917,11.667l12.083,13.333l13.75,4.584l38.75,-0.417l0,33.75l-5.416,28.333l-4.167,35.834l4.167,30.416l3.75,20.834l-4.167,28.333l-1.25,33.333l2.917,28.334l-2.084,35.416l4.167,25l10,22.5l12.083,22.5l4.167,1.667l-22.917,42.083l-32.083,47.917l-20,31.667l-12.5,13.333l-2.083,15.833l6.25,35.834l-0.834,49.166l1.667,56.667l7.083,61.667l10,63.75l9.584,58.75l-0.417,77.083l19.167,32.5l21.25,30l5.833,22.917l7.5,49.583l-0.417,0.833l-4.583,5.834l-7.917,11.25l-26.25,-6.25l-15.416,-15.834l-24.584,5l-8.333,0.417l-22.917,-3.75l-9.166,5.417l-16.25,10.416l-15,0.417l-32.084,-13.333l-11.25,-8.334l-30.833,-5l-15,-20l-3.75,-20l-6.667,-15.416l-13.75,4.583l-17.5,11.667l-4.583,3.333l-13.333,11.667l-21.25,10l-21.667,9.166l-20.833,9.584l-15.834,2.916l-34.166,-19.583l-22.5,-8.75l-11.25,3.333l-21.667,6.667l-18.75,6.667l-8.333,4.166l4.166,-33.333l-6.666,-66.25l-0.834,-5.833l-22.083,-110.417l-59.167,-132.083l-28.333,-38.334l-6.667,-34.166l1.25,-0.834l10.834,-5.833l20.416,-11.25l2.5,-1.25l1.667,-1.25l3.75,-2.083l44.167,-23.334l7.083,-2.083l4.583,0l12.917,-1.25l4.167,-2.083l2.083,-1.25l30,-38.75l25.417,-41.25l21.666,-25l15,-30.834l3.75,-11.25l0,-9.583l-5.833,-19.583l-1.25,-10l1.25,-10.834l-0.417,-5l-7.5,-16.25l-7.083,-29.583l-17.917,-47.917l-0.416,-5l2.5,-18.333l3.75,-6.667l15.416,-17.083l15.834,-28.75l8.333,-6.667l1.25,-0.833l2.917,-2.5l0.833,0l26.25,0.417l13.333,-5.417l3.75,-2.917l1.667,-1.666l1.667,-2.084l2.916,-4.166l4.167,-9.584l10,-9.583l3.333,-9.583l2.084,-22.5l5.416,-5.834l2.5,0.417l2.084,0l4.166,2.5l4.167,1.667l5,-1.25l7.917,-6.667l2.916,-1.667l5.834,-3.75l7.916,-7.916l9.584,-22.5l6.666,-7.084l17.917,-8.75l56.25,-26.666l22.5,-10.834l32.5,-15.833l5.417,-2.5l2.5,-1.25l16.666,-11.25l2.917,-2.917l2.083,1.25l1.25,1.25Z" style="fill:#808080;fill-rule:nonzero;stroke:#fff;stroke-width:2.08px;"/><path id="LYNQ" d="M783.333,433.75l-38.75,0.417l-13.75,-4.584l-12.083,-13.333l-12.917,-11.667l3.334,-0.833l5.833,-8.75l7.5,-6.667l-0.833,-13.333l-7.917,-13.75l-6.25,-7.917l-10.833,-8.75l-4.167,-10.833l2.5,-17.917l-0.833,-11.666l-0.834,-7.5l2.084,-10.834l1.25,-10.416l-3.75,-10.417l5,-15l0.833,-2.083l2.917,-8.75l1.25,-0.417l-0.834,-6.25l-0.416,-1.25l-0,-15.417l1.25,-4.166l2.5,-5.417l3.333,-7.083l1.25,-5.834l0.417,-1.25l-0,-0.416l0.416,-3.334l3.334,2.5l3.333,7.5l3.75,2.917l7.5,3.75l29.167,4.583l8.75,3.334l-4.584,-5.417l-15.833,-5l-4.167,-5.417l11.667,6.667l25.833,8.75l56.25,35.833l10,10.417l9.167,2.5l15.417,10.417l19.166,9.166l10.417,2.917l54.167,5.833l-4.584,3.75l-12.5,40.834l-9.583,15.833l-30,20l-12.083,16.25l-18.75,9.167l-20.834,10l-5.833,15l-56.667,13.333Zm-85.833,-247.917l-0,-1.666l5,1.25l7.083,2.5l0,0.416l-1.666,0l-0,0.417l-1.25,0l-0,-0.417l-0.834,0l0,-0.416l0,0.416l0,-0.416l-2.5,-0l0,-0.417l-1.666,-0l-0,-0.417l-1.667,0l0,-0.416l-1.25,-0l0,-0.417l-0.833,-0l-0,-0.417l-0.417,0Z" style="fill:#808080;fill-rule:nonzero;stroke:#fff;stroke-width:2.08px;"/><path id="LYKF" d="M2542.92,3257.92l-0,-42.084l-0.417,-129.166l-0.833,-129.584l-0.417,-130l-0.417,-130.416l-0.833,-131.25l-0.417,-131.25l-0.416,-132.084l-0.417,-132.916l-0,-135l0.417,-135.834l81.666,-0.416l81.25,-0.417l210,-1.667l144.167,2.084l144.167,1.666l280.833,-1.666l140.417,-2.5l140.833,-2.5l88.75,-2.084l83.75,-2.083l0.417,-0l-0,1367.08l-0.417,32.5l0,448.75l-0.417,0.417l0,0.417l-0.416,0.416l-1.667,0l-0.417,0.417l-59.166,0l-29.584,-0.417l-148.333,0l-0,127.5l-59.167,-30.833l-30,-15.833l-29.583,-15.417l-29.583,-15.833l-29.584,-15.417l-30,-15.417l-29.583,-15.833l-29.583,-15.417l-29.584,-15.833l-29.583,-15.417l-30,-15.833l-29.583,-15.417l-7.917,-4.166l-21.667,-11.667l-29.583,-15.417l-30,-15.833l-29.583,-15.417l-29.584,-15.833l-29.583,-15.417l-29.583,-15.833l-30,-15.833l-29.584,-15.417l-29.583,-15.833l-29.583,-15.417l-8.75,-5l-21.25,-10.833l-29.584,-15.834l-29.583,-15.416l-59.167,-31.667l-30,-15.833l-29.583,-15.417l-59.167,-31.667l-30,-15.833l-29.583,-15.833l-29.583,-15.417l-59.167,-31.667l-24.583,-12.916Z" style="fill:#808080;fill-rule:nonzero;stroke:#fff;stroke-width:2.08px;"/><path id="LYMQ" d="M2538.75,2169.17l0.417,132.916l0.416,132.084l0.417,131.25l0.833,131.25l0.417,130.416l0.417,130l0.833,129.584l0.417,129.166l-0,42.084l-5.417,-2.917l-118.333,-63.333l-30,-15.834l-88.75,-47.5l-30,-15.833l-118.334,-63.333l-30,-15.834l-29.583,-15.833l-29.583,-16.25l-29.584,-15.833l-30,-15.834l-59.166,-31.666l-29.584,-16.25l-29.583,-15.834l-30,-15.833l-29.583,-15.833l-29.584,-16.25l-18.75,-10l-3.333,-1.667l-4.583,0.833l-10.834,5l-13.75,7.084l-14.166,6.666l-13.75,6.667l-13.75,7.083l-13.75,6.667l-14.167,7.083l-13.75,6.667l-13.75,7.083l-13.75,6.667l-14.167,6.667l-13.75,7.083l-27.5,13.333l-14.166,7.084l-13.75,6.666l-13.75,7.084l-4.167,2.083l-0.417,0l-40.833,22.5l-82.5,45l-40.833,22.5l-15.417,8.333l-3.75,0.417l-3.333,-1.667l-10.834,-10l-60,-53.333l-30.416,-27.083l-30,-26.667l-13.334,-12.5l-28.333,-15.833l-24.167,-5.834l-21.25,-5l-21.25,-5.416l-42.5,-10l-21.25,-5.417l-42.5,-10l-20.833,-5.417l-42.5,-10l-21.25,-5.416l-21.25,-5l-21.25,-5.417l-42.5,-10l-14.583,-3.75l-6.25,-1.667l-18.75,-37.083l-16.667,-34.583l-27.083,-55l-0.417,-0.834l-17.083,-35.416l-15,-30l-1.667,-3.75l-6.25,-8.334l-7.917,-4.166l-10,-3.334l3.334,-36.25l-5.834,-34.166l-29.583,-53.75l0.833,-50l0.834,-55l-1.667,-52.5l15.833,-42.917l46.667,-26.667l43.333,20.834l20.417,6.666l45,-3.75l27.5,-3.75l24.167,-20.833l24.583,-20.833l32.917,6.666l30,-3.333l19.583,-15.833l22.5,-8.334l39.583,-13.333l57.917,-4.167l24.583,-18.333l24.584,-30.833l17.083,-15.417l45,-11.25l63.75,-23.333l-0,0.416l47.5,-5.833l27.5,-10.833l42.5,-18.334l27.5,-28.333l24.583,-27.917l25,-25.833l20,-20.417l35,-13.333l30.417,-7.917l42.917,-10.833l45.416,-5.417l45.417,-8.333l25,-5.417l124.583,-34.166l-2.083,19.583l-0.417,19.583l2.084,22.5l10.833,14.167l11.667,5.417l21.25,10.833l14.583,8.333l13.333,19.167l-2.083,27.5l12.917,27.5l25.416,26.667l18.334,11.25l19.166,13.333l13.75,19.167l36.667,7.5l40.833,9.166l35.417,12.917l20,-8.333l17.5,-11.25l31.25,-2.5l19.583,-5.834l31.25,-22.916l11.25,-13.75l25.834,-13.75l34.166,-8.334l27.917,12.5l22.083,25.834l24.584,22.5l24.166,2.5l27.084,7.083l37.916,7.5l32.5,7.917l25,8.75l10.417,5Z" style="fill:#808080;fill-rule:nonzero;stroke:#fff;stroke-width:2.08px;"/><path id="LYBU" d="M3935.42,1604.58l-0.417,0l-2.5,-0.416l-2.083,-0.417l-114.167,-2.917l-114.167,-2.5l-113.75,-2.5l-114.166,-2.916l-0.417,-179.584l0,-180.833l-0.417,-182.083l-0.416,-183.334l-20,-8.333l-1.25,-0l-0,-57.917l-2.917,-20.833l-0,-42.917l7.083,-47.916l20.417,-30.417l8.333,-44.167l2.917,-50.833l12.083,-43.75l12.084,-33.75l7.5,-25l0.416,-1.667l1.667,0.834l3.75,0.833l2.917,2.083l1.666,2.917l2.5,6.25l2.084,2.083l-0.417,-4.583l-2.5,-12.5l4.583,1.667l10.417,-0l2.083,1.25l6.667,5.416l1.667,0.834l30,2.916l33.333,-0.416l41.25,9.583l37.917,15.417l-5.834,5.833l-0.833,2.083l2.083,1.25l6.25,2.5l15,12.084l5.417,1.25l45.833,-0.417l63.75,4.583l21.667,-6.666l5,-3.75l2.917,-1.25l9.583,2.083l2.083,-0.417l2.084,-1.25l1.666,-0.416l2.084,1.25l0.833,0.416l2.917,2.084l3.333,0.833l4.583,2.5l7.917,1.25l10,3.75l27.917,6.25l8.75,5.417l3.75,9.166l-2.5,11.25l-0.417,6.25l1.667,5l8.333,9.167l12.917,18.75l1.25,5l3.333,7.917l4.583,8.333l-0.833,0.833l-0.417,0.834l-15,12.083l-6.666,10l-8.75,23.75l-39.167,32.083l-2.917,9.167l0,10l2.5,23.75l0,22.917l5.834,30l1.666,5.833l8.334,17.5l2.916,14.167l10.834,22.5l2.916,11.25l-1.25,9.583l-3.75,9.583l-2.916,11.25l-2.5,15.417l-7.5,19.167l-0.417,5.416l-2.5,9.584l-4.583,9.583l-14.167,21.25l-7.083,7.5l-6.667,8.333l-2.083,3.75l-4.167,9.584l-10,17.916l-3.75,10l-0,10.834l2.083,5.833l6.667,12.5l20.833,51.667l0.834,6.25l-0,5.416l-4.167,14.584l1.667,11.666l12.083,20.834l3.75,11.25l-0,6.666l-2.083,20l0.416,10.834l2.5,9.583l19.584,48.333l4.583,15l1.667,15.834l-0,296.666Z" style="fill:#808080;fill-rule:nonzero;stroke:#fff;stroke-width:2.08px;"/><path id="LYWA" d="M3935.42,1888.75l-0.417,0l-83.75,2.083l-88.75,2.084l-140.833,2.5l-140.417,2.5l-280.833,1.666l-144.167,-1.666l-144.167,-2.084l-210,1.667l-81.25,0.417l-81.666,0.416l0.416,-362.083l-40.416,-2.917l-0,-0.416l-68.75,-20.834l-52.5,-17.916l-0,-102.5l3.333,-79.167l15.833,-56.667l28.75,-40.833l8.334,-40.833l-4.584,-46.25l2.917,-46.667l8.333,-53.75l4.584,-50.417l35,22.917l10,4.583l21.25,2.917l21.666,0.417l22.5,-2.5l12.5,-3.75l11.25,-3.334l19.167,-9.583l27.083,-17.5l4.584,-2.083l10.833,-2.084l5,-2.5l32.083,-25l39.584,-48.333l10.416,-18.333l5.834,-8.334l8.75,-7.083l4.166,-4.167l15.417,-32.5l11.25,-30.833l1.25,-12.083l-1.25,-35.834l-1.25,-2.083l2.917,-1.25l-0.834,-2.5l-0.833,-1.25l-2.5,-2.917l-0.833,-2.5l13.333,-0.833l26.667,8.75l10.416,16.25l17.917,24.167l25.417,17.5l17.083,5.416l34.583,-2.083l47.084,-9.167l92.5,3.334l18.75,0.416l62.083,-2.916l14.583,-6.25l18.334,-7.5l42.916,-4.167l33.75,-3.333l35.417,-7.084l18.333,16.25l29.167,26.25l13.333,27.917l25.834,17.917l16.666,3.75l24.167,7.083l23.75,-0.417l19.167,-2.083l1.25,-0l20,8.333l0.416,183.334l0.417,182.083l0,180.833l0.417,179.584l114.166,2.916l113.75,2.5l114.167,2.5l114.167,2.917l2.083,0.417l2.5,0.416l0.417,0l-0,284.167Z" style="fill:#808080;fill-rule:nonzero;stroke:#fff;stroke-width:2.08px;"/><path id="LYWS" d="M309.167,1455.83l8.333,-4.166l18.75,-6.667l21.667,-6.667l11.25,-3.333l22.5,8.75l34.166,19.583l15.834,-2.916l20.833,-9.584l21.667,-9.166l21.25,-10l13.333,-11.667l4.583,-3.333l17.5,-11.667l13.75,-4.583l6.667,15.416l3.75,20l15,20l30.833,5l11.25,8.334l32.084,13.333l15,-0.417l16.25,-10.416l9.166,-5.417l22.917,3.75l8.333,-0.417l24.584,-5l15.416,15.834l26.25,6.25l7.917,-11.25l4.583,-5.834l0.417,-0.833l7.5,-14.583l30.417,8.75l11.25,1.666l29.166,12.084l17.5,2.083l19.167,1.25l14.583,2.917l2.5,21.25l20.834,10.416l23.75,-0.833l16.666,-17.5l7.917,-18.75l14.167,-12.917l13.75,-8.333l20.833,-12.917l26.667,-14.166l25,-28.334l22.5,-30.833l13.75,-22.083l14.583,-20l12.083,-20l11.25,-23.75l19.167,-24.584l15,-18.333l12.917,-11.667l27.083,-22.5l20.417,-5.833l19.583,4.167l14.583,8.333l31.25,15.417l25,18.333l20,21.667l12.5,15.833l-0.416,15l-1.25,27.083l-1.667,33.75l3.333,30l11.25,22.084l14.167,21.666l14.167,12.5l17.5,14.167l43.333,27.917l28.75,30.833l7.917,30.417l0.416,21.25l5.417,20l25.417,4.166l30.416,-3.333l31.667,-17.917l30.417,-3.333l19.583,1.25l31.667,10.833l17.083,5l20.833,21.25l3.75,22.5l-5.833,22.084l-9.583,25.833l-7.917,20.833l-0.417,5.834l-55.416,-5.417l-35.417,13.333l-15.417,7.917l-42.916,5.417l-25.417,2.916l-35.417,15.834l-17.5,30.833l-30,18.333l-25.416,15.417l-22.5,15.833l-9.584,15.417l-15,12.917l-25.416,2.916l-80,8.75l-85.834,-16.666l-66.25,-20.834l-38.333,-6.666l-42.917,11.25l-57.083,37.083l-47.083,37.083l-64.584,50l-71.666,50l-64.167,45l-56.667,37.5l-32.083,21.25l-3.75,-37.5l-8.75,-35l-15,-70l-9.583,-55l-6.25,-37.916l-7.5,-62.917l-13.334,-29.583l-20.833,-14.584l-31.25,-11.25l-56.25,-10.416l-45.833,-13.334l-46.667,-13.333l-46.25,-20.417l-32.5,-19.166l-0,-1.25l0.417,-7.084l0.833,-1.666l0.417,-0l2.916,-2.084l0,-6.25l-0.416,-0.833l-0.834,-2.917l-29.166,-106.666l9.583,-73.75l2.917,-23.334Z" style="fill:#808080;fill-rule:nonzero;stroke:#fff;stroke-width:2.08px;"/><path id="LYGT" d="M672.083,2290l-15.833,42.917l1.667,52.5l-0.834,55l-0.833,50l29.583,53.75l5.834,34.166l-3.334,36.25l-76.25,-25.416l-28.333,-9.584l-0.417,-0.416l-5.416,-2.917l-5.834,-0.417l-17.083,-5.416l-9.167,-3.334l-10,-3.75l-27.916,-12.5l-2.084,0.834l-6.25,2.916l-0.833,0l-26.667,10l-27.083,10l-7.5,0l-38.333,-31.666l-2.5,-2.084l-0.417,-3.75l-1.25,-3.333l-0.417,-3.75l-6.25,-27.5l-2.916,-1.667l-36.25,-21.25l-1.25,-8.75l-2.084,-16.25l-0.833,-7.5l-1.25,-48.333l-0.417,-3.333l-1.25,-47.917l-73.75,-112.917l-2.083,-3.333l-5.417,-7.917l-68.75,-105.416l-1.25,-1.667l12.5,-12.5l0.417,-0.833l1.667,-3.75l2.5,-7.5l1.666,-1.667l1.667,-2.5l0.833,-0.833l3.75,-7.084l3.75,-7.5l77.084,-36.666l1.666,-2.5l5.417,-2.5l12.5,-33.75l-3.75,-25.834l5.833,-30.416l0.417,-1.667l-0.833,-0.417l-1.667,-1.25l-1.667,-0.833l-2.916,-3.75l-0.417,-0.833l-1.667,-2.917l0,-0.417l-1.25,-0.416l-1.25,-1.25l-0.416,-1.25l-0.417,-3.75l-0,-0.834l-2.917,-6.666l-1.25,-5.834l-3.333,-12.916l-0.417,-2.917l0.834,-7.917l-0.834,-4.166l0,-1.667l-0.833,-2.5l-0.417,-2.917l-1.666,-3.333l0.416,-2.917l-0.833,-3.333l-0,-2.917l-3.75,-10l-1.25,-8.75l-3.75,-7.083l-0.833,-4.583l-2.084,-2.917l2.084,-13.333l0.416,-5.834l0,-0.833l-2.5,0l0.417,-1.667l2.083,-3.75l-0.416,-2.083l2.083,-5.417l0.833,-1.666l1.667,-2.084l-0,-6.25l0.833,-2.083l1.25,-0.833l-0.833,-3.334l0.833,-1.666l1.667,-1.667l0.417,-2.5l1.25,-1.25l2.083,-1.667l0.417,-0.416l2.5,-0.834l1.25,-1.25l0.833,-2.083l0.417,-5.833l1.666,-5l2.084,-3.75l-2.084,-0l-4.166,-0.417l-3.75,0l-1.25,-0.417l-0.417,-1.25l0.417,-1.25l0.416,-0.833l7.5,-2.5l0.834,-2.083l2.5,-2.084l1.25,-1.25l1.666,-2.083l5,-11.25l1.25,-3.333l1.25,-4.167l0.834,-4.167l2.083,-4.583l2.083,-6.25l-0.416,-8.75l0.833,-5.417l-0,-6.666l32.5,19.166l46.25,20.417l46.667,13.333l45.833,13.334l56.25,10.416l31.25,11.25l20.833,14.584l13.334,29.583l7.5,62.917l6.25,37.916l9.583,55l15,70l8.75,35l3.75,37.5l-5,34.167l-9.167,39.583l-2.916,51.25l7.5,30l15.416,22.917Z" style="fill:#808080;fill-rule:nonzero;stroke:#fff;stroke-width:2.08px;"/><path id="LYSR" d="M2445.42,977.083l-4.584,50.417l-8.333,53.75l-2.917,46.667l4.584,46.25l-8.334,40.833l-28.75,40.833l-15.833,56.667l-3.333,79.167l-0,107.083l-27.5,-8.75l-38.334,-10.417l-32.916,-23.333l-25.417,-25.417l-10,-38.333l-10,-30.833l-20.417,-25.417l-20.416,-23.333l-10.417,-25.417l-5,-20.417l-20.417,-17.916l-17.916,-0l-17.917,10l-23.333,20.833l-22.917,-7.917l-36.25,-10l-25.417,-22.916l-30.833,-2.5l-25.833,10.416l-46.25,2.917l-28.334,-7.5l-4.166,2.5l22.083,-33.333l5,-28.334l-7.917,-36.25l-7.5,-43.333l-20.833,-56.667l-18.333,-51.666l-7.917,-51.25l-10.833,-54.584l-15.834,-59.166l-10.416,-41.667l-0.417,-46.667l4.167,-10l1.25,-2.5l53.333,9.584l88.75,0.833l51.25,11.25l52.5,18.333l40.833,8.75l8.334,0l4.166,2.084l8.75,5l6.667,6.25l2.5,1.666l2.5,0.834l35.417,10.833l18.333,9.167l20.417,6.666l17.5,3.334l2.916,2.916l6.667,10l4.583,3.75l4.584,2.5l21.666,4.584l37.917,14.583l7.917,5l6.666,6.25l21.25,25l58.75,43.75l13.334,15l7.083,6.667l15.833,8.75l10,1.666l4.584,2.5Z" style="fill:#808080;fill-rule:nonzero;stroke:#fff;stroke-width:2.08px;"/><path id="LYMI" d="M1810.42,729.583l-1.25,2.5l-4.167,10l0.417,46.667l10.416,41.667l15.834,59.166l10.833,54.584l7.917,51.25l18.333,51.666l20.833,56.667l7.5,43.333l7.917,36.25l-5,28.334l-22.083,33.333l-11.25,-7.5l-23.334,-7.5l-33.333,-10l-22.917,7.917l-23.333,12.916l-15,12.917l-33.75,-4.583l-17.917,-20.417l-15.833,-25.417l-7.5,-7.5l-15.833,-7.5l-28.334,0.417l-20.416,-7.5l-23.334,-5l-36.25,-12.083l-18.333,-20.417l-17.917,-17.5l-11.25,-6.25l2.917,-5.417l15.833,-16.666l11.667,-21.25l0.417,-31.667l-2.917,-35.417l-4.583,-41.666l-20.834,-15l-1.25,-0.834l-18.75,-9.166l-52.916,-14.584l-26.25,-19.166l-22.5,-9.584l-35,-18.75l-13.334,-32.5l-21.666,-54.583l-31.667,-59.167l-4.167,-5l-13.333,-8.333l-15.417,-9.167l-26.25,-32.916l-13.333,-19.167l-7.917,-30l-11.25,-25.833l-15,-30.417l-9.166,-41.667l-13.334,-25.416l15,-0.417l37.5,1.25l15,-2.5l23.75,-7.083l13.75,-5.417l15.834,-0.417l14.583,7.084l7.5,0.833l17.917,-3.75l13.333,-15.833l39.167,27.5l19.166,19.583l25.417,8.75l31.25,-3.75l15.833,-2.5l3.75,-25l8.334,-23.333l9.166,-11.667l0.834,-16.667l-6.667,-15.833l-2.083,-14.583l5,-20l2.916,-6.667l0.417,-2.917l37.083,1.667l48.75,8.75l11.25,4.167l5,0.833l3.334,1.667l9.166,12.083l8.75,5l3.334,3.333l2.083,10.417l2.083,5.833l5,10.417l10,13.75l1.667,4.583l-0.417,5.834l-2.083,10.416l-0.833,11.25l-0.417,6.667l1.667,20.833l2.083,10l28.75,75l5.833,10l25.834,37.084l15.833,16.666l17.5,14.167l68.333,31.667l22.084,4.166Z" style="fill:#808080;fill-rule:nonzero;stroke:#fff;stroke-width:2.08px;"/><path id="LYMB" d="M1478.75,393.333l-0.417,2.917l-2.916,6.667l-5,20l2.083,14.583l6.667,15.833l-0.834,16.667l-9.166,11.667l-8.334,23.333l-3.75,25l-15.833,2.5l-31.25,3.75l-25.417,-8.75l-19.166,-19.583l-39.167,-27.5l-13.333,15.833l-17.917,3.75l-7.5,-0.833l-14.583,-7.084l-15.834,0.417l-13.75,5.417l-23.75,7.083l-15,2.5l-37.5,-1.25l-15,0.417l-1.25,-16.667l-6.666,-26.25l-15.417,-19.583l-11.667,-13.334l-3.75,-4.583l27.5,-8.75l8.334,-5.417l3.75,-14.583l12.083,-26.667l17.917,-5.833l11.666,-3.333l31.25,-14.584l3.75,-0.416l21.667,-2.084l0.833,-5.416l18.334,-20.417l15.416,-13.333l9.167,3.75l44.167,7.5l2.5,1.25l4.166,3.75l1.25,0.833l4.167,2.083l8.75,8.75l13.333,8.334l20.834,18.333l10.833,11.667l4.583,1.666l39.167,6.667l3.75,2.083l3.75,3.334l10.417,5.833l5,1.667l7.083,0.416Z" style="fill:#808080;fill-rule:nonzero;stroke:#fff;stroke-width:2.08px;"/><path id="LYTB" d="M1285.83,305.417l-15.416,13.333l-18.334,20.417l-0.833,5.416l-21.667,2.084l-3.75,0.416l-31.25,14.584l-11.666,3.333l-17.917,5.833l-12.083,26.667l-3.75,14.583l-8.334,5.417l-27.5,8.75l-11.666,-15.833l0.833,-20l-4.167,-30.417l-2.5,-23.75l-20.833,-20.417l8.333,-17.5l-1.666,-23.333l-0,-3.75l2.916,-1.25l7.5,-6.25l4.167,-2.5l5.417,-1.25l16.666,-0.833l22.917,4.166l2.5,1.667l2.5,2.083l47.917,25.417l10.833,2.5l40.833,-1.667l10.417,1.667l20.417,6.25l9.166,4.167Z" style="fill:#808080;fill-rule:nonzero;stroke:#fff;stroke-width:2.08px;"/><path id="LYZA" d="M783.333,433.75l56.667,-13.333l5.833,-15l20.834,-10l18.75,-9.167l12.083,-16.25l30,-20l9.583,-15.833l12.5,-40.834l4.584,-3.75l37.5,4.167l22.916,-1.667l60,-17.916l7.084,-2.917l-0,3.75l1.666,23.333l-8.333,17.5l-0.833,1.667l-25,13.333l-10.417,18.75l-6.667,12.084l-17.916,43.75l1.666,20l-2.5,21.666l-20,2.917l-11.666,2.917l-9.167,2.083l-18.333,-5.833l-20,-5.834l-21.25,-8.75l-26.25,2.084l-35.834,-0.834l-67.5,-2.083Z" style="fill:#808080;fill-rule:nonzero;stroke:#fff;stroke-width:2.08px;"/><path id="LYDR" d="M3519.58,459.583l-0.416,1.667l-7.5,25l-12.084,33.75l-12.083,43.75l-2.917,50.833l-8.333,44.167l-20.417,30.417l-7.083,47.916l0,42.917l2.917,20.833l-0,57.917l-19.167,2.083l-23.75,0.417l-24.167,-7.083l-16.666,-3.75l-25.834,-17.917l-13.333,-27.917l-29.167,-26.25l-18.333,-16.25l-35.417,7.084l-46.666,-45.417l7.5,-30l4.583,-20.833l0,-45.417l5.417,-15.417l2.5,-31.25l-0.417,-28.75l1.25,-45.833l-5.833,-26.25l-0.417,-24.583l-4.583,-25l4.166,-9.167l3.334,-20.833l7.083,-20.834l3.333,-15.833l-2.083,-20.833l-7.5,-15.834l-5.833,-21.25l2.083,-23.75l0.417,-17.916l0.416,-0l1.25,-3.334l26.25,-2.916l1.25,-0.834l2.5,-4.166l1.25,-0.834l5.417,-0.833l2.5,-0.417l2.917,1.25l1.666,1.667l0.417,1.667l-0,1.666l0.833,2.917l7.917,7.917l9.583,2.083l22.084,0l9.583,3.333l23.75,17.917l4.583,2.917l4.167,1.666l4.167,0.834l11.25,0.833l56.25,17.5l12.916,8.333l4.584,1.25l2.5,0.834l7.916,2.916l3.334,0.834l8.333,-0.834l5.417,2.084l10,5l10.833,1.666l4.583,2.084l3.334,2.916l0.416,4.167l-1.25,2.917l-4.166,5l-0.834,2.5l2.084,17.5l2.083,4.583l3.75,3.333l5,2.917l-2.083,5.833l-2.917,17.917l-4.583,-2.083l0.833,-2.5l-0.833,-2.5l-1.25,-2.5l-2.084,-2.084l-3.75,23.334l0.417,5.833l3.333,2.917l14.584,5.833l5.416,0.833l4.167,2.5l4.583,5.417l3.75,6.25l3.334,8.333l1.666,1.25Z" style="fill:#808080;fill-rule:nonzero;stroke:#fff;stroke-width:2.08px;"/><path id="LYJA" d="M3245.83,769.167l-33.75,3.333l-42.916,4.167l-18.334,7.5l-1.25,-60.417l-7.5,-6.667l-6.25,-13.333l-9.166,-34.167l0.833,-32.5l9.583,-24.583l2.084,-27.083l-1.25,-37.917l-7.5,-26.25l-25.417,-20.417l-15.417,-17.083l-8.333,-27.917l-15,-27.5l-7.083,-29.166l-0.834,-23.75l13.75,-16.667l17.5,-17.917l-0.833,-18.333l-15.417,-20l-1.666,-3.75l-0.417,0.417l-2.083,-0l-2.084,1.25l-2.083,-0l-0.417,-1.667l13.75,-3.75l9.584,-5.417l37.083,-33.75l3.333,-1.666l11.667,-0.834l10.833,-2.916l6.667,5.416l10.417,4.167l11.666,2.917l10,0.833l26.25,-2.917l-1.25,3.334l-0.416,-0l-0.417,17.916l-2.083,23.75l5.833,21.25l7.5,15.834l2.083,20.833l-3.333,15.833l-7.083,20.834l-3.334,20.833l-4.166,9.167l4.583,25l0.417,24.583l5.833,26.25l-1.25,45.833l0.417,28.75l-2.5,31.25l-5.417,15.417l-0,45.417l-4.583,20.833l-7.5,30l46.666,45.417Z" style="fill:#808080;fill-rule:nonzero;stroke:#fff;stroke-width:2.08px;"/><path id="LYMJ" d="M3150.83,784.167l-14.583,6.25l-62.083,2.916l-18.75,-0.416l-7.5,-67.917l-10.834,-22.083l-4.583,-28.75l-2.083,-23.334l-16.667,-16.25l-12.917,3.75l-28.75,2.084l-31.25,-4.584l-18.333,0.834l-19.583,8.75l-32.5,-5.834l-10.417,-14.166l-9.583,-30.417l-12.917,-22.5l-15,-31.25l-9.583,-30.417l0.416,-20.833l10.834,-31.25l17.5,-24.583l21.666,-19.167l10.834,-18.333l3.333,-31.25l-0.833,-4.584l53.333,-22.916l32.917,-22.5l27.916,-14.167l11.25,-2.5l45.417,2.917l10.833,-1.25l6.25,-1.667l0.417,1.667l2.083,-0l2.084,-1.25l2.083,-0l0.417,-0.417l1.666,3.75l15.417,20l0.833,18.333l-17.5,17.917l-13.75,16.667l0.834,23.75l7.083,29.166l15,27.5l8.333,27.917l15.417,17.083l25.417,20.417l7.5,26.25l1.25,37.917l-2.084,27.083l-9.583,24.583l-0.833,32.5l9.166,34.167l6.25,13.333l7.5,6.667l1.25,60.417Z" style="fill:#808080;fill-rule:nonzero;stroke:#fff;stroke-width:2.08px;"/><path id="LYBA" d="M3055.42,792.917l-92.5,-3.334l-47.084,9.167l-34.583,2.083l-17.083,-5.416l-25.417,-17.5l-17.917,-24.167l-10.416,-16.25l-26.667,-8.75l-13.333,0.833l0.833,2.5l2.5,2.917l0.833,1.25l0.834,2.5l-2.917,1.25l-3.333,-5.417l-5.834,-18.75l-5,-7.5l-10.833,-11.25l-3.75,-5.833l-16.25,-45.833l-1.25,-11.667l-0.417,-12.5l-0.833,-4.583l-4.167,-10.834l-1.25,-5l-0.833,-11.666l0.417,-12.917l3.333,-23.75l3.333,-10.417l-0.416,-2.916l-0.834,-3.334l-0.416,-2.916l0.833,-2.917l3.333,-4.167l21.667,-46.25l5.833,-8.75l45.417,-46.25l3.75,-6.25l11.667,-13.75l5,-2.916l9.583,-4.167l4.167,-3.75l3.333,-3.333l35,-27.917l2.917,-1.667l0.833,4.584l-3.333,31.25l-10.834,18.333l-21.666,19.167l-17.5,24.583l-10.834,31.25l-0.416,20.833l9.583,30.417l15,31.25l12.917,22.5l9.583,30.417l10.417,14.166l32.5,5.834l19.583,-8.75l18.333,-0.834l31.25,4.584l28.75,-2.084l12.917,-3.75l16.667,16.25l2.083,23.334l4.583,28.75l10.834,22.083l7.5,67.917Z" style="fill:#808080;fill-rule:nonzero;stroke:#fff;stroke-width:2.08px;"/><path id="LYJI" d="M1113.33,426.25l3.75,4.583l-15,1.667l-7.916,5.417l-25.417,3.75l-20.833,0.416l-34.584,5l2.5,-21.666l-1.666,-20l17.916,-43.75l6.667,-12.084l10.417,-18.75l25,-13.333l0.833,-1.667l20.833,20.417l2.5,23.75l4.167,30.417l-0.833,20l11.666,15.833Z" style="fill:#808080;fill-rule:nonzero;stroke:#fff;stroke-width:2.08px;"/><path id="LYJG" d="M805,1468.75l-7.5,-49.583l-5.833,-22.917l-21.25,-30l-19.167,-32.5l0.417,-77.083l-9.584,-58.75l-10,-63.75l-7.083,-61.667l-1.667,-56.667l0.834,-49.166l-6.25,-35.834l2.083,-15.833l12.5,-13.333l20,-31.667l32.083,-47.917l22.917,-42.083l-4.167,-1.667l-12.083,-22.5l-10,-22.5l-4.167,-25l2.084,-35.416l-2.917,-28.334l1.25,-33.333l4.167,-28.333l-3.75,-20.834l-4.167,-30.416l4.167,-35.834l5.416,-28.333l0,-33.75l67.5,2.083l35.834,0.834l26.25,-2.084l21.25,8.75l20,5.834l18.333,5.833l9.167,-2.083l11.666,-2.917l20,-2.917l34.584,-5l20.833,-0.416l25.417,-3.75l7.916,-5.417l15,-1.667l11.667,13.334l15.417,19.583l6.666,26.25l1.25,16.667l13.334,25.416l9.166,41.667l15,30.417l11.25,25.833l7.917,30l13.333,19.167l26.25,32.916l15.417,9.167l13.333,8.333l4.167,5l31.667,59.167l21.666,54.583l13.334,32.5l35,18.75l22.5,9.584l26.25,19.166l52.916,14.584l18.75,9.166l1.25,0.834l20.834,15l4.583,41.666l2.917,35.417l-0.417,31.667l-11.667,21.25l-15.833,16.666l-2.917,5.417l-7.5,14.583l-14.166,19.584l-6.667,15l0.833,20.833l4.167,19.583l0.833,22.084l-1.666,14.166l-10,13.75l-19.167,12.084l-30,22.083l-20.833,6.25l0.416,-15l-12.5,-15.833l-20,-21.667l-25,-18.333l-31.25,-15.417l-14.583,-8.333l-19.583,-4.167l-20.417,5.833l-27.083,22.5l-12.917,11.667l-15,18.333l-19.167,24.584l-11.25,23.75l-12.083,20l-14.583,20l-13.75,22.083l-22.5,30.833l-25,28.334l-26.667,14.166l-20.833,12.917l-13.75,8.333l-14.167,12.917l-7.917,18.75l-16.666,17.5l-23.75,0.833l-20.834,-10.416l-2.5,-21.25l-14.583,-2.917l-19.167,-1.25l-17.5,-2.083l-29.166,-12.084l-11.25,-1.666l-30.417,-8.75l-7.5,14.583Z" style="fill:#808080;fill-rule:nonzero;stroke:#fff;stroke-width:2.08px;"/><path id="LYJU" d="M2539.17,1898.33l-0.417,135.834l0,135l-10.417,-5l-25,-8.75l-32.5,-7.917l-37.916,-7.5l-27.084,-7.083l-24.166,-2.5l-24.584,-22.5l-22.083,-25.834l-27.917,-12.5l-34.166,8.334l-25.834,13.75l-11.25,13.75l-31.25,22.916l-19.583,5.834l-31.25,2.5l-17.5,11.25l-20,8.333l-35.417,-12.917l-40.833,-9.166l-36.667,-7.5l-13.75,-19.167l-19.166,-13.333l-18.334,-11.25l-25.416,-26.667l-12.917,-27.5l2.083,-27.5l-13.333,-19.167l-14.583,-8.333l-21.25,-10.833l-11.667,-5.417l-10.833,-14.167l-2.084,-22.5l0.417,-19.583l2.083,-19.583l0.417,-2.5l-5.417,-18.334l-15.833,-9.166l-15.417,-14.167l-15.833,-9.167l-9.583,-9.166l-7.5,-20.834l-6.667,-22.5l-22.917,-35l-17.5,-26.25l0,-7.916l0.417,-5.834l7.917,-20.833l9.583,-25.833l5.833,-22.084l-3.75,-22.5l-20.833,-21.25l-17.083,-5l-31.667,-10.833l-19.583,-1.25l-30.417,3.333l-31.667,17.917l-30.416,3.333l-25.417,-4.166l-5.417,-20l-0.416,-21.25l-7.917,-30.417l-28.75,-30.833l-43.333,-27.917l-17.5,-14.167l-14.167,-12.5l-14.167,-21.666l-11.25,-22.084l-3.333,-30l1.667,-33.75l1.25,-27.083l20.833,-6.25l30,-22.083l19.167,-12.084l10,-13.75l1.666,-14.166l-0.833,-22.084l-4.167,-19.583l-0.833,-20.833l6.667,-15l14.166,-19.584l7.5,-14.583l11.25,6.25l17.917,17.5l18.333,20.417l36.25,12.083l23.334,5l20.416,7.5l28.334,-0.417l15.833,7.5l7.5,7.5l15.833,25.417l17.917,20.417l33.75,4.583l15,-12.917l23.333,-12.916l22.917,-7.917l33.333,10l23.334,7.5l11.25,7.5l4.166,-2.5l28.334,7.5l46.25,-2.917l25.833,-10.416l30.833,2.5l25.417,22.916l36.25,10l22.917,7.917l23.333,-20.833l17.917,-10l17.916,-0l20.417,17.916l5,20.417l10.417,25.417l20.416,23.333l20.417,25.417l10,30.833l10,38.333l25.417,25.417l32.916,23.333l38.334,10.417l27.5,8.75l-0,-4.583l52.5,17.916l68.75,20.834l-0,0.416l40.416,2.917l-0.416,362.083Z" style="fill:#808080;fill-rule:nonzero;stroke:#fff;stroke-width:2.08px;"/><path id="LYSB" d="M1844.58,1881.67l-124.583,34.166l-25,5.417l-45.417,8.333l-45.416,5.417l-42.917,10.833l-30.417,7.917l-35,13.333l-20,20.417l-25,25.833l-24.583,27.917l-27.5,28.333l-42.5,18.334l-27.5,10.833l-47.5,5.833l0,-0.416l-0.417,-27.084l9.584,-30.416l27.083,-25.834l14.583,-30.416l-2.916,-15l-12.917,-15l-10.417,-20l2.084,-35.417l-5.417,-27.5l-9.583,-10.417l80,-8.75l25.416,-2.916l15,-12.917l9.584,-15.417l22.5,-15.833l25.416,-15.417l30,-18.333l17.5,-30.833l35.417,-15.834l25.417,-2.916l42.916,-5.417l15.417,-7.917l35.417,-13.333l55.416,5.417l0,7.916l17.5,26.25l22.917,35l6.667,22.5l7.5,20.834l9.583,9.166l15.833,9.167l15.417,14.167l15.833,9.166l5.417,18.334l-0.417,2.5Z" style="fill:#808080;fill-rule:nonzero;stroke:#fff;stroke-width:2.08px;"/><path id="LYWD" d="M1281.25,2104.17l-63.75,23.333l-45,11.25l-17.083,15.417l-24.584,30.833l-24.583,18.333l-57.917,4.167l-39.583,13.333l-22.5,8.334l-19.583,15.833l-30,3.333l-32.917,-6.666l-24.583,20.833l-24.167,20.833l-27.5,3.75l-45,3.75l-20.417,-6.666l-43.333,-20.834l-46.667,26.667l-15.416,-22.917l-7.5,-30l2.916,-51.25l9.167,-39.583l5,-34.167l32.083,-21.25l56.667,-37.5l64.167,-45l71.666,-50l64.584,-50l47.083,-37.083l57.083,-37.083l42.917,-11.25l38.333,6.666l66.25,20.834l85.834,16.666l9.583,10.417l5.417,27.5l-2.084,35.417l10.417,20l12.917,15l2.916,15l-14.583,30.416l-27.083,25.834l-9.584,30.416l0.417,27.084Z" style="fill:#808080;fill-rule:nonzero;stroke:#fff;stroke-width:2.08px;"/></g><g id="points"><ellipse id="Misurata" cx="1578.54" cy="442.253" rx="50" ry="48.92" style="fill:#03a9f4;stroke:#fff;stroke-width:20.83px;stroke-miterlimit:1.5;"/><ellipse id="Benghazi" cx="2812.92" cy="487.33" rx="50" ry="48.92" style="fill:#03a9f4;stroke:#fff;stroke-width:20.83px;stroke-miterlimit:1.5;"/><ellipse id="Ajdabia" cx="3100.83" cy="911.253" rx="50" ry="48.92" style="fill:#03a9f4;stroke:#fff;stroke-width:20.83px;stroke-miterlimit:1.5;"/><ellipse id="Tripoli-1" serif:id="Tripoli 1" cx="1285.83" cy="344.414" rx="50" ry="48.92" style="fill:#03a9f4;stroke:#fff;stroke-width:20.83px;stroke-miterlimit:1.5;"/><ellipse id="Tripoli-2" serif:id="Tripoli 2" cx="1180.42" cy="442.253" rx="50" ry="48.92" style="fill:#03a9f4;stroke:#fff;stroke-width:20.83px;stroke-miterlimit:1.5;"/></g><g id="label_points"><path id="LYNL1" serif:id="LYNL" d="M508.75,1104.17Z" style="fill:#e3f2fd;stroke:#fff;stroke-width:2.08px;"/><path id="LYNQ1" serif:id="LYNQ" d="M789.167,325.417Z" style="fill:#e3f2fd;stroke:#fff;stroke-width:2.08px;"/><path id="LYKF1" serif:id="LYKF" d="M3240.83,2774.17Z" style="fill:#e3f2fd;stroke:#fff;stroke-width:2.08px;"/><path id="LYMQ1" serif:id="LYMQ" d="M1627.08,2428.33Z" style="fill:#e3f2fd;stroke:#fff;stroke-width:2.08px;"/><path id="LYBU1" serif:id="LYBU" d="M3669.17,1045.42Z" style="fill:#e3f2fd;stroke:#fff;stroke-width:2.08px;"/><path id="LYWA1" serif:id="LYWA" d="M3000,1349.58Z" style="fill:#e3f2fd;stroke:#fff;stroke-width:2.08px;"/><path id="LYWS1" serif:id="LYWS" d="M812.5,1735Z" style="fill:#e3f2fd;stroke:#fff;stroke-width:2.08px;"/><path id="LYGT1" serif:id="LYGT" d="M466.667,2140Z" style="fill:#e3f2fd;stroke:#fff;stroke-width:2.08px;"/><path id="LYSR1" serif:id="LYSR" d="M2114.58,1025.42Z" style="fill:#e3f2fd;stroke:#fff;stroke-width:2.08px;"/><path id="LYMI1" serif:id="LYMI" d="M1575.42,792.917Z" style="fill:#e3f2fd;stroke:#fff;stroke-width:2.08px;"/><path id="LYMB1" serif:id="LYMB" d="M1306.67,404.583Z" style="fill:#e3f2fd;stroke:#fff;stroke-width:2.08px;"/><path id="LYTB1" serif:id="LYTB" d="M1141.25,323.333Z" style="fill:#e3f2fd;stroke:#fff;stroke-width:2.08px;"/><path id="LYZA1" serif:id="LYZA" d="M965.833,388.333Z" style="fill:#e3f2fd;stroke:#fff;stroke-width:2.08px;"/><path id="LYDR1" serif:id="LYDR" d="M3352.5,548.333Z" style="fill:#e3f2fd;stroke:#fff;stroke-width:2.08px;"/><path id="LYJA1" serif:id="LYJA" d="M3141.67,404.583Z" style="fill:#e3f2fd;stroke:#fff;stroke-width:2.08px;"/><path id="LYMJ1" serif:id="LYMJ" d="M2978.33,510.417Z" style="fill:#e3f2fd;stroke:#fff;stroke-width:2.08px;"/><path id="LYBA1" serif:id="LYBA" d="M2891.25,722.083Z" style="fill:#e3f2fd;stroke:#fff;stroke-width:2.08px;"/><path id="LYJI1" serif:id="LYJI" d="M1063.33,389.583Z" style="fill:#e3f2fd;stroke:#fff;stroke-width:2.08px;"/><path id="LYJG1" serif:id="LYJG" d="M1045,977.917Z" style="fill:#e3f2fd;stroke:#fff;stroke-width:2.08px;"/><path id="LYJU1" serif:id="LYJU" d="M2042.5,1643.33Z" style="fill:#e3f2fd;stroke:#fff;stroke-width:2.08px;"/><path id="LYSB1" serif:id="LYSB" d="M1584.17,1833.75Z" style="fill:#e3f2fd;stroke:#fff;stroke-width:2.08px;"/><path id="LYWD1" serif:id="LYWD" d="M1004.17,2068.75Z" style="fill:#e3f2fd;stroke:#fff;stroke-width:2.08px;"/></g></svg>