<?xml version="1.0" encoding="UTF-8" standalone="no"?><!DOCTYPE svg PUBLIC "-//W3C//DTD SVG 1.1//EN" "http://www.w3.org/Graphics/SVG/1.1/DTD/svg11.dtd"><svg width="100%" height="100%" viewBox="0 0 2488 1909" version="1.1" xmlns="http://www.w3.org/2000/svg" xmlns:xlink="http://www.w3.org/1999/xlink" xml:space="preserve" xmlns:serif="http://www.serif.com/" style="fill-rule:evenodd;clip-rule:evenodd;stroke-linejoin:round;stroke-miterlimit:2;"><path d="M1215.26,305.179l0,356.741l36.63,0l-0,-323.341l79.791,-0c26.904,-0 48.571,7.583 64.938,22.733c15.171,13.921 23.216,32.004 24.15,54.267c1.212,24.437 -7.275,44.696 -25.509,60.775c-18.275,16.083 -43.008,24.129 -74.233,24.129l-34.804,-0l120.621,161.437l44.004,0l-98.842,-133.066l10.217,-1.009c26.908,-2.475 49.533,-13.829 67.775,-34.091c18.271,-20.254 27.712,-44.304 28.342,-72.129c0.616,-34.025 -10.817,-61.946 -34.342,-83.738c-23.488,-21.804 -55.025,-32.708 -94.613,-32.708l-114.125,-0Z" style="fill-rule:nonzero;"/><path d="M1215.26,305.179l0,356.742l36.629,-0l0,-323.342l79.792,0c26.904,0 48.567,7.584 64.938,22.734c15.17,13.92 23.212,32.004 24.154,54.266c1.208,24.442 -7.279,44.696 -25.513,60.775c-18.275,16.088 -43.008,24.129 -74.237,24.129l-34.8,0l120.621,161.438l44,-0l-98.838,-133.067l10.221,-1.008c26.904,-2.475 49.529,-13.829 67.767,-34.088c18.27,-20.258 27.716,-44.308 28.345,-72.133c0.617,-34.025 -10.816,-61.946 -34.345,-83.737c-23.484,-21.805 -55.021,-32.709 -94.613,-32.709l-114.121,0Z" style="fill-rule:nonzero;"/><path d="M1491.74,365.942l35.271,-0l0,-61.696l-35.271,-0l0,61.696Zm0,295.979l35.271,-0l0,-264.429l-35.271,-0l0,264.429Z" style="fill-rule:nonzero;"/><path d="M1491.74,365.942l35.271,-0l0,-61.696l-35.271,-0l0,61.696Zm0,295.979l35.271,-0l0,-264.429l-35.271,-0l0,264.429Z" style="fill-rule:nonzero;"/><path d="M1649.25,391c-20.788,0.938 -38.563,8.658 -53.292,23.196c-14.729,14.542 -21.629,32.021 -20.733,52.45c1.562,34.025 18.554,56.15 51.025,66.358l31.046,9.863c26.008,8.371 38.875,23.896 38.558,46.529c-0.313,13.037 -4.321,23.587 -12.054,31.654c-8.671,8.696 -20.417,13.183 -35.271,13.5c-11.129,0.313 -21.621,-4.367 -31.533,-14.046c-9.913,-9.679 -14.859,-19.037 -14.859,-28.091l0,-8.9l-36.629,-0c0,22.587 7.483,42.075 22.496,58.462c15.004,16.388 33.608,25.363 55.9,26.904c24.108,1.542 45.458,-6.416 64.004,-23.891c18.588,-17.475 26.913,-38.109 25.083,-61.93c-2.487,-34.954 -21.35,-58.462 -56.616,-70.516l-30.609,-10.271c-23.833,-8.063 -35.116,-21.592 -33.862,-40.563c0.3,-10.27 4.096,-18.808 11.362,-25.654c7.242,-6.85 15.85,-10.421 25.725,-10.733c10.23,-0 19.275,2.904 27.167,8.696c7.858,5.8 11.804,13.396 11.804,22.783l0,6.104l37.134,0l-0,-7.891c-1.246,-18.555 -9.696,-34.092 -25.392,-46.613c-14.575,-11.671 -30.133,-17.496 -46.725,-17.496c-1.238,0 -2.488,0.034 -3.729,0.096" style="fill-rule:nonzero;"/><clipPath id="_clip1"><path d="M1649.25,391c-20.788,0.938 -38.563,8.658 -53.292,23.196c-14.729,14.542 -21.629,32.021 -20.729,52.45c1.558,34.025 18.554,56.15 51.021,66.358l31.041,9.863c26.013,8.371 38.88,23.896 38.563,46.529c-0.313,13.037 -4.321,23.587 -12.054,31.654c-8.671,8.696 -20.417,13.183 -35.271,13.5c-11.125,0.313 -21.621,-4.367 -31.533,-14.046c-9.913,-9.679 -14.859,-19.037 -14.859,-28.091l0,-8.9l-36.625,-0c0,22.587 7.479,42.075 22.492,58.462c15.008,16.388 33.608,25.363 55.896,26.904c24.112,1.546 45.462,-6.416 64.008,-23.891c18.588,-17.475 26.913,-38.109 25.083,-61.93c-2.487,-34.954 -21.35,-58.462 -56.616,-70.516l-30.609,-10.271c-23.833,-8.063 -35.116,-21.592 -33.862,-40.563c0.304,-10.27 4.096,-18.808 11.362,-25.654c7.242,-6.85 15.85,-10.421 25.73,-10.733c10.225,-0 19.275,2.904 27.162,8.696c7.858,5.8 11.804,13.396 11.804,22.783l0,6.104l37.134,0l-0,-7.891c-1.246,-18.55 -9.696,-34.092 -25.392,-46.613c-14.575,-11.671 -30.133,-17.496 -46.729,-17.496c-1.238,0 -2.484,0.034 -3.725,0.096Z" clip-rule="nonzero"/></clipPath><g clip-path="url(#_clip1)"><rect x="1565.51" y="390.904" width="169.308" height="279.517"/></g><path d="M1808.12,430.201c-27.533,27.683 -41.296,60.854 -41.296,99.508c0,37.121 12.771,69.121 38.35,96.029c25.567,26.896 56.55,40.988 92.867,42.213c41.608,1.246 76.721,-14.538 105.371,-47.325l-0,41.296l35.267,-0l-0,-132.679c1.212,-36.805 -11.163,-68.73 -37.13,-95.796c-25.979,-27.063 -57.516,-41.204 -94.62,-42.446c-2.038,-0.075 -4.067,-0.121 -6.071,-0.121c-35.788,0 -66.7,13.121 -92.738,39.321m90.671,203.417c-26.971,-1.246 -49.962,-12.325 -69.046,-33.234c-19.046,-20.929 -28.283,-45.333 -27.654,-73.237c0.279,-28.196 10.379,-52.221 30.2,-72.059c19.858,-19.841 43.879,-29.766 72.092,-29.766c26.971,-0 50.054,9.925 69.258,29.766c19.238,19.838 29.15,43.705 29.771,71.592c0.625,29.458 -9.379,54.95 -29.983,76.488c-19.505,20.37 -42.792,30.55 -69.9,30.55c-1.567,-0 -3.146,-0.034 -4.738,-0.1" style="fill-rule:nonzero;"/><path d="M1808.12,430.2c-27.538,27.683 -41.296,60.858 -41.296,99.508c-0,37.121 12.771,69.121 38.35,96.03c25.566,26.895 56.55,40.987 92.866,42.212c41.613,1.246 76.721,-14.537 105.371,-47.325l0,41.296l35.267,-0l-0,-132.683c1.212,-36.796 -11.158,-68.725 -37.129,-95.792c-25.975,-27.063 -57.517,-41.204 -94.625,-42.446c-2.034,-0.075 -4.063,-0.121 -6.067,-0.121c-35.787,0 -66.7,13.121 -92.737,39.321Zm90.666,203.417c-26.966,-1.246 -49.958,-12.325 -69.037,-33.234c-19.05,-20.929 -28.284,-45.333 -27.659,-73.237c0.28,-28.196 10.38,-52.221 30.2,-72.058c19.859,-19.842 43.88,-29.767 72.088,-29.767c26.975,-0 50.058,9.925 69.258,29.767c19.238,19.837 29.154,43.704 29.775,71.591c0.625,29.459 -9.379,54.95 -29.983,76.488c-19.504,20.371 -42.792,30.55 -69.9,30.55c-1.563,-0 -3.146,-0.034 -4.742,-0.1Z" style="fill-rule:nonzero;"/><rect x="2075.78" y="304.246" width="35.275" height="357.675"/><rect x="2075.78" y="304.246" width="35.275" height="357.675"/><path d="M2191.78,430.201c-27.529,27.683 -41.296,60.854 -41.296,99.508c0,37.121 12.763,69.121 38.342,96.029c25.575,26.896 56.55,40.988 92.879,42.213c41.604,1.246 76.713,-14.538 105.363,-47.325l-0,41.296l35.271,-0l-0,-132.679c1.212,-36.805 -11.159,-68.73 -37.134,-95.796c-25.975,-27.063 -57.516,-41.204 -94.612,-42.446c-2.038,-0.075 -4.067,-0.121 -6.071,-0.121c-35.792,0 -66.708,13.121 -92.742,39.321m90.667,203.417c-26.967,-1.246 -49.963,-12.325 -69.046,-33.234c-19.046,-20.929 -28.275,-45.333 -27.65,-73.237c0.283,-28.196 10.379,-52.221 30.2,-72.059c19.854,-19.841 43.883,-29.766 72.092,-29.766c26.966,-0 50.054,9.925 69.254,29.766c19.237,19.838 29.15,43.705 29.771,71.592c0.625,29.458 -9.384,54.95 -29.984,76.488c-19.508,20.37 -42.787,30.55 -69.9,30.55c-1.566,-0 -3.141,-0.034 -4.737,-0.1" style="fill-rule:nonzero;"/><path d="M2191.78,430.2c-27.529,27.683 -41.296,60.858 -41.296,99.508c-0,37.121 12.762,69.121 38.342,96.03c25.575,26.895 56.55,40.987 92.879,42.212c41.608,1.246 76.712,-14.537 105.362,-47.325l0,41.296l35.271,-0l0,-132.683c1.213,-36.796 -11.154,-68.725 -37.133,-95.792c-25.979,-27.063 -57.517,-41.204 -94.613,-42.446c-2.037,-0.075 -4.066,-0.121 -6.071,-0.121c-35.791,0 -66.708,13.121 -92.741,39.321Zm90.666,203.417c-26.966,-1.246 -49.962,-12.325 -69.041,-33.234c-19.05,-20.929 -28.275,-45.333 -27.654,-73.237c0.287,-28.196 10.379,-52.221 30.2,-72.058c19.854,-19.842 43.883,-29.767 72.091,-29.767c26.967,-0 50.059,9.925 69.254,29.767c19.238,19.837 29.146,43.704 29.771,71.591c0.621,29.459 -9.383,54.95 -29.983,76.488c-19.508,20.371 -42.788,30.55 -69.9,30.55c-1.563,-0 -3.142,-0.034 -4.738,-0.1Z" style="fill-rule:nonzero;"/><path d="M1511.34,1621.72c0,0 -43.933,-83.333 -104.425,-118.196c-60.479,-34.775 -29.15,45.15 -12.183,65.346c17.116,20.071 48.441,14.013 48.441,14.013c61.463,44.491 67.396,139.612 67.396,139.612l15.904,-11.654c-8.545,-180.717 18.825,-198.617 39.005,-215.683c20.191,-17.054 47.562,28.908 47.562,28.908l18.896,-29.246c-0,0 3.075,-37.091 -57.392,-49.808c-1.958,-0.413 -3.866,-0.613 -5.7,-0.613c-54.921,-0.016 -57.504,177.321 -57.504,177.321" style="fill-rule:nonzero;"/><path d="M1511.34,1621.72c0,-0 -43.929,-83.333 -104.425,-118.196c-60.479,-34.775 -29.145,45.15 -12.183,65.346c17.117,20.071 48.442,14.008 48.442,14.008c61.462,44.496 67.4,139.613 67.4,139.613l15.9,-11.654c-8.542,-180.717 18.829,-198.613 39.008,-215.68c20.188,-17.058 47.558,28.905 47.558,28.905l18.896,-29.242c0,-0 3.075,-37.096 -57.391,-49.808c-1.955,-0.413 -3.863,-0.613 -5.7,-0.613c-54.921,-0.017 -57.505,177.321 -57.505,177.321Z" style="fill-rule:nonzero;"/><path d="M0.381,746.272c0,-0 1.742,97.596 54.783,95.779c52.98,-1.85 71.65,-130.208 71.65,-130.208c-51.237,81.945 -93.025,35.375 -96.7,-24.13c-3.412,-53.412 35.242,-166.458 35.242,-166.458c-74.358,122.708 -64.975,225.017 -64.975,225.017" style="fill-rule:nonzero;"/><clipPath id="_clip2"><path d="M0.383,746.271c0,-0 1.738,97.596 54.783,95.779c52.98,-1.85 71.65,-130.208 71.65,-130.208c-51.237,81.946 -93.025,35.379 -96.7,-24.129c-3.412,-53.413 35.242,-166.463 35.242,-166.463c-74.358,122.713 -64.975,225.021 -64.975,225.021Z" clip-rule="nonzero"/></clipPath><g clip-path="url(#_clip2)"><rect x="-9" y="521.254" width="135.817" height="322.612"/></g><path d="M1994.49,1875.46c-17.112,12.396 -11.808,32.875 -11.808,32.875c270.742,-156.608 488.742,-227.975 488.742,-227.975l16.008,-30.333c-258.712,90.767 -475.912,213.004 -492.942,225.433" style="fill-rule:nonzero;"/><path d="M1994.49,1875.46c-17.112,12.396 -11.808,32.875 -11.808,32.875c270.742,-156.608 488.742,-227.975 488.742,-227.975l16.008,-30.333c-258.713,90.763 -475.913,213.004 -492.942,225.433Z" style="fill-rule:nonzero;"/><path d="M1432.77,1077.61c-17.095,12.396 -11.775,32.875 -11.775,32.875c270.73,-156.608 488.738,-227.979 488.738,-227.979l16.004,-30.329c-258.742,90.762 -475.942,213.021 -492.967,225.433" style="fill-rule:nonzero;"/><clipPath id="_clip3"><path d="M1432.77,1077.61c-17.091,12.395 -11.775,32.87 -11.775,32.87c270.73,-156.604 488.738,-227.975 488.738,-227.975l16.004,-30.333c-258.742,90.767 -475.942,213.025 -492.967,225.438Z" clip-rule="nonzero"/></clipPath><g clip-path="url(#_clip3)"><rect x="1415.67" y="852.175" width="510.058" height="258.308"/></g><path d="M513.174,225.434c-17.088,12.396 -11.775,32.854 -11.775,32.854c270.729,-156.587 488.737,-227.962 488.737,-227.962l16.005,-30.325c-258.742,90.75 -475.938,213.017 -492.967,225.433" style="fill-rule:nonzero;"/><path d="M513.175,225.433c-17.088,12.392 -11.775,32.855 -11.775,32.855c270.729,-156.592 488.733,-227.963 488.733,-227.963l16.004,-30.325c-258.737,90.75 -475.933,213.017 -492.962,225.433Z" style="fill-rule:nonzero;"/><path d="M291.904,290.451l-87.467,-78.567l-69.633,99.975l110.708,98.188l51.742,-76.759l87.495,74.975l71.405,-101.762l-108.909,-94.617l-55.341,78.567Z" style="fill-rule:nonzero;"/><path d="M291.904,290.45l-87.467,-78.567l-69.633,99.975l110.708,98.188l51.738,-76.758l87.5,74.975l71.404,-101.763l-108.908,-94.617l-55.342,78.567Z" style="fill-rule:nonzero;"/><path d="M939.952,244.03l-5.375,16.058l-8.916,33.921l-5.346,17.866c-3.575,8.325 -5.379,16.067 -5.379,23.196c-0,1.167 0.312,2.938 0.875,5.209c-41.392,49.837 -73.367,103.404 -85.517,164.65l-106.358,-221.625c-8.325,-16.659 -14.292,-25.017 -17.867,-25.017c-3.571,-0 -7.733,8.358 -12.492,25.017c-15.471,55.945 -23.208,85.683 -23.208,89.254c-0,3.554 3.575,8.937 10.721,16.066l139.229,890.83c-36.908,57.133 -94.613,85.7 -173.158,85.7l-5.346,-0c-61.9,-9.521 -104.746,-38.084 -128.546,-85.7c-14.263,-28.55 -25.604,-59.796 -33.904,-93.713c-8.321,-33.933 -16.063,-63.962 -23.213,-90.154l-49.991,-199.95l42.845,-41.063l24.988,-24.983c13.108,-16.671 20.821,-27.95 23.208,-33.933c15.475,-36.884 25.604,-62.488 30.359,-76.759c3.57,-7.133 5.341,-13.087 5.341,-17.858c0,-7.146 -3.575,-10.704 -10.687,-10.704c-2.392,-0 -7.767,3.558 -16.1,10.704l-44.584,41.067l-57.141,57.121l-19.642,17.854l-30.354,-126.746l-7.15,-25.013c-4.754,-15.445 -8.917,-23.212 -12.488,-23.212c-3.575,-0 -7.741,5.671 -12.491,16.967c-4.788,11.341 -8.917,21.758 -12.496,31.258l-10.717,26.767c-4.783,11.9 -7.771,19.641 -8.95,23.212l0,7.15c-1.179,3.554 -1.771,6.558 -1.771,8.917c0,10.704 4.167,30.962 12.496,60.7l17.863,62.487c-41.671,40.471 -73.829,70.829 -96.388,91.042c-78.55,70.254 -124.971,130.937 -139.266,182.1c-13.109,46.408 -19.634,80.946 -19.634,103.533c0,45.242 29.142,67.85 87.463,67.85c45.212,0 89.866,-15.183 133.891,-45.541c44.034,-30.342 76.163,-67.517 96.421,-111.567c1.146,-4.729 2.954,-7.125 5.346,-7.125c2.358,1.179 7.733,18.454 16.058,51.746c20.234,76.204 42.855,132.746 67.867,169.612c21.408,30.975 50.554,54.746 87.471,71.4c26.846,12.338 59.687,18.617 98.125,19.363l0.025,0.279c1.158,-0.033 2.025,-0.125 3.146,-0.158c1.396,-0 2.637,0.158 4.041,0.158l-0.095,-0.371c26.72,-1.246 44.866,-3.479 53.629,-6.779c48.783,-10.688 88.062,-41.042 117.829,-91.038c23.767,-40.441 35.7,-93.404 35.7,-158.891c-0,-36.867 -5.967,-97.567 -17.867,-182.1c-39.279,-248.717 -70.221,-435.575 -92.812,-560.55c37.133,31.746 59.354,51.291 66.837,58.854c-0.158,1.771 -0.279,3.575 -0.437,5.375c-0.059,-0.717 -0.279,-1.238 -0.338,-1.958l0,6.087c-0.775,11.983 -0.775,24.254 0.034,36.838c-0,0.283 0.025,0.545 0.025,0.808c-0,-0.108 0.029,-0.2 0.029,-0.292c0.341,5.375 0.629,10.738 1.304,16.234c12.712,105.537 90.829,131.533 175.812,150c2.921,26.566 5.75,54.316 8.455,83.32l23.208,249.95c14.267,157.088 38.625,258.259 73.175,303.471c24.021,31.754 53.821,49.996 88.746,56.088l0.525,2.825l26.754,-0c128.55,-0 233.296,-36.863 314.237,-110.679c33.313,-30.934 53.538,-47.575 60.684,-49.98c-1.179,7.142 -1.771,14.263 -1.771,21.409c-0,33.337 10.412,61.596 31.225,84.812c20.817,23.192 47.883,34.8 81.221,34.8c34.529,0 68.116,-14.279 100.871,-42.837c32.745,-28.567 57.42,-66.059 74.075,-112.463c8.329,63.092 41.666,94.613 99.995,94.613c36.875,-0 67.238,-16.354 91.038,-49.109c23.796,-32.704 35.704,-74.666 35.704,-125.841c0,-38.084 -7.146,-72.584 -21.412,-103.55c-9.546,-20.221 -17.825,-30.359 -24.98,-30.359c-4.783,0 -8.92,5.363 -12.5,16.08l-26.779,89.258c20.229,24.996 33.279,47.025 39.279,66.058c-22.625,19.046 -46.425,28.559 -71.437,28.559c-44.029,-0 -66.029,-20.805 -66.029,-62.471c-0,-3.575 2.362,-19.642 7.146,-48.213c-0,-15.458 -2.421,-23.212 -7.146,-23.212c-7.15,-0 -14.909,10.133 -23.209,30.362c-17.875,45.238 -44.966,83.892 -81.225,116.021c-36.329,32.146 -70.537,48.208 -102.662,48.208c-22.621,0 -41.363,-7.141 -56.246,-21.437c-14.887,-14.271 -22.308,-32.708 -22.308,-55.325c-0,-4.738 1.15,-14.558 3.571,-29.458c2.362,-14.871 3.579,-25.263 3.579,-31.242c-0,-22.6 -13.7,-20.8 -41.05,5.358c-108.321,103.554 -233.292,155.317 -374.921,155.317c-9.167,-0 -18.954,-0.604 -28.433,-0.917l-0.155,-0.871c-30.945,-5.954 -53.254,-20.208 -66.929,-42.862c-13.7,-22.575 -25.287,-74.354 -34.8,-155.283l-14.296,-148.188c-8.733,-88.85 -16.504,-165.104 -23.304,-229.037c114.313,25.979 187.863,102.695 206.413,217.445c-0.8,9.03 -1.584,18.038 -2.354,27.067c-2.117,14.571 2.083,30.046 -0,44.525c10.808,-74.742 8.291,-153.979 -32.534,-220.208c-39.496,-64.075 -106.8,-88.604 -175.687,-107.654c-8.763,-80.517 -15.7,-137.78 -20.725,-171.305c-14.296,-91.645 -33.338,-172.554 -57.146,-242.795c-3.417,-10.005 -6.554,-18.725 -9.508,-26.692c0.062,-0.075 0.062,-0.217 0.129,-0.296c-0.067,0.063 -0.129,0.125 -0.188,0.188c-11.475,-30.746 -19.646,-46.392 -24.333,-46.392c-4.75,-0 -7.767,4.179 -8.917,12.492m-110.929,309.266c0.967,-6.437 1.796,-12.958 3.204,-19.146c5.096,-1.408 6.742,-6.091 4.134,-14.775c16.466,-57.7 50.395,-104.991 91.354,-149.687c27.587,61.304 50.925,172.575 70.125,332.179c-80.942,-22.637 -151.913,-53.104 -168.817,-148.571m-697.771,635.117c0,-17.846 13.059,-41.075 39.254,-69.638c16.655,-17.845 30.35,-31.5 41.075,-41.041c1.184,-2.375 15.446,-16.063 42.855,-41.079l82.116,-74.98l17.842,64.28c5.929,21.42 8.946,36.895 8.946,46.42c-0,33.342 -24.421,64.88 -73.238,94.613c-44.025,26.196 -88.058,39.279 -132.087,39.279c-17.838,0 -26.763,-5.937 -26.763,-17.854" style="fill-rule:nonzero;"/><clipPath id="_clip4"><path d="M939.95,244.029l-5.371,16.059l-8.921,33.92l-5.342,17.867c-3.579,8.325 -5.379,16.067 -5.379,23.196c0,1.167 0.313,2.937 0.871,5.208c-41.387,49.838 -73.362,103.404 -85.512,164.65l-106.359,-221.625c-8.325,-16.658 -14.291,-25.016 -17.866,-25.016c-3.575,-0 -7.738,8.358 -12.496,25.016c-15.467,55.946 -23.204,85.684 -23.204,89.254c-0,3.555 3.575,8.938 10.716,16.067l139.234,890.829c-36.909,57.134 -94.613,85.7 -173.163,85.7l-5.342,0c-61.9,-9.521 -104.745,-38.083 -128.545,-85.7c-14.267,-28.546 -25.609,-59.796 -33.905,-93.712c-8.32,-33.934 -16.062,-63.963 -23.212,-90.154l-49.992,-199.95l42.842,-41.063l24.992,-24.983c13.104,-16.671 20.82,-27.95 23.208,-33.934c15.471,-36.883 25.604,-62.487 30.358,-76.758c3.571,-7.133 5.342,-13.087 5.342,-17.858c-0,-7.146 -3.579,-10.709 -10.688,-10.709c-2.391,0 -7.77,3.563 -16.104,10.709l-44.579,41.066l-57.142,57.125l-19.641,17.85l-30.354,-126.75l-7.15,-25.008c-4.755,-15.446 -8.917,-23.212 -12.488,-23.212c-3.579,-0 -7.746,5.67 -12.496,16.966c-4.783,11.346 -8.912,21.759 -12.496,31.254l-10.712,26.775c-4.783,11.896 -7.775,19.638 -8.95,23.209l-0,7.15c-1.183,3.554 -1.771,6.558 -1.771,8.916c0,10.705 4.167,30.967 12.496,60.7l17.858,62.488c-41.666,40.471 -73.825,70.829 -96.383,91.042c-78.554,70.254 -124.975,130.937 -139.267,182.1c-13.112,46.408 -19.637,80.945 -19.637,103.533c-0,45.242 29.146,67.85 87.466,67.85c45.213,-0 89.863,-15.183 133.888,-45.538c44.037,-30.345 76.167,-67.52 96.425,-111.57c1.142,-4.73 2.95,-7.126 5.342,-7.126c2.362,1.18 7.737,18.455 16.062,51.746c20.233,76.205 42.85,132.746 67.867,169.613c21.408,30.979 50.55,54.75 87.471,71.404c26.841,12.338 59.687,18.612 98.125,19.363l0.025,0.275c1.158,-0.034 2.025,-0.126 3.145,-0.159c1.392,0 2.634,0.159 4.042,0.159l-0.1,-0.371c26.725,-1.246 44.867,-3.48 53.629,-6.78c48.784,-10.687 88.067,-41.041 117.834,-91.037c23.762,-40.442 35.695,-93.404 35.695,-158.888c0,-36.87 -5.966,-97.57 -17.862,-182.1c-39.279,-248.72 -70.225,-435.579 -92.813,-560.554c37.13,31.746 59.355,51.292 66.834,58.855c-0.154,1.77 -0.275,3.574 -0.434,5.374c-0.058,-0.716 -0.279,-1.237 -0.337,-1.958l-0,6.092c-0.775,11.979 -0.775,24.25 0.029,36.833c0,0.284 0.029,0.546 0.029,0.808c0,-0.108 0.029,-0.2 0.029,-0.291c0.342,5.375 0.63,10.737 1.305,16.233c12.712,105.538 90.829,131.534 175.812,150c2.921,26.567 5.75,54.317 8.454,83.321l23.204,249.95c14.271,157.087 38.625,258.263 73.18,303.471c24.016,31.754 53.82,49.996 88.745,56.087l0.525,2.829l26.755,0c128.545,0 233.295,-36.866 314.237,-110.683c33.313,-30.933 53.538,-47.575 60.679,-49.979c-1.175,7.142 -1.771,14.262 -1.771,21.404c0,33.338 10.417,61.6 31.23,84.821c20.812,23.187 47.883,34.796 81.22,34.796c34.53,-0 68.113,-14.279 100.871,-42.833c32.742,-28.571 57.421,-66.067 74.071,-112.467c8.329,63.091 41.671,94.612 99.996,94.612c36.879,0 67.242,-16.354 91.037,-49.108c23.8,-32.7 35.709,-74.663 35.709,-125.842c-0,-38.079 -7.15,-72.583 -21.417,-103.545c-9.542,-20.225 -17.825,-30.363 -24.979,-30.363c-4.779,0 -8.917,5.363 -12.496,16.075l-26.779,89.263c20.229,25 33.279,47.02 39.275,66.058c-22.621,19.05 -46.425,28.562 -71.433,28.562c-44.034,0 -66.03,-20.804 -66.03,-62.475c0,-3.575 2.359,-19.637 7.146,-48.212c0,-15.458 -2.421,-23.213 -7.146,-23.213c-7.15,0 -14.908,10.134 -23.208,30.363c-17.875,45.242 -44.967,83.892 -81.225,116.025c-36.329,32.146 -70.537,48.2 -102.662,48.2c-22.625,-0 -41.363,-7.138 -56.25,-21.433c-14.888,-14.267 -22.309,-32.713 -22.309,-55.325c0,-4.734 1.154,-14.559 3.575,-29.459c2.359,-14.866 3.579,-25.258 3.579,-31.241c0,-22.601 -13.704,-20.796 -41.054,5.358c-108.316,103.558 -233.291,155.317 -374.921,155.317c-9.162,-0 -18.95,-0.605 -28.429,-0.913l-0.154,-0.875c-30.946,-5.954 -53.254,-20.208 -66.929,-42.862c-13.7,-22.575 -25.288,-74.355 -34.8,-155.284l-14.296,-148.187c-8.733,-88.85 -16.504,-165.109 -23.308,-229.038c114.316,25.979 187.862,102.696 206.416,217.446c-0.804,9.029 -1.583,18.038 -2.358,27.067c-2.117,14.571 2.083,30.046 0,44.525c10.813,-74.742 8.292,-153.979 -32.533,-220.209c-39.496,-64.07 -106.796,-88.604 -175.684,-107.65c-8.762,-80.52 -15.7,-137.783 -20.725,-171.308c-14.295,-91.646 -33.337,-172.554 -57.145,-242.796c-3.417,-10.004 -6.559,-18.725 -9.509,-26.691c0.063,-0.075 0.063,-0.217 0.129,-0.296c-0.066,0.062 -0.129,0.129 -0.187,0.187c-11.475,-30.746 -19.646,-46.391 -24.333,-46.391c-4.755,-0 -7.767,4.179 -8.921,12.491Zm-110.929,309.267c0.97,-6.438 1.8,-12.963 3.208,-19.146c5.096,-1.408 6.737,-6.092 4.133,-14.775c16.467,-57.7 50.396,-104.992 91.354,-149.688c27.588,61.305 50.925,172.576 70.125,332.18c-80.941,-22.638 -151.912,-53.105 -168.82,-148.571Zm-697.767,635.116c-0,-17.845 13.054,-41.075 39.254,-69.637c16.654,-17.846 30.35,-31.5 41.075,-41.042c1.183,-2.379 15.446,-16.062 42.854,-41.079l82.117,-74.979l17.842,64.283c5.929,21.413 8.945,36.892 8.945,46.417c0,33.342 -24.42,64.879 -73.237,94.612c-44.025,26.196 -88.063,39.275 -132.088,39.275c-17.837,0 -26.762,-5.933 -26.762,-17.85Z" clip-rule="nonzero"/></clipPath><g clip-path="url(#_clip4)"><rect x="63.404" y="231.538" width="2047.65" height="1240.73"/></g><path d="M2230.95,1000.98l-8.912,41.059c-3.575,10.716 -5.379,18.454 -5.379,23.216c-0,7.125 7.146,10.7 21.441,10.7c5.942,23.813 22.309,55.059 49.092,93.713c26.783,38.687 40.733,59.225 41.95,61.6c10.725,15.475 19.921,31.85 27.654,49.096c7.742,17.258 13.392,29.458 16.967,36.591c-17.833,27.371 -50.588,61.284 -98.188,101.775c-72.591,61.863 -127.366,106.488 -164.22,133.859c-104.775,78.583 -213.65,151.171 -326.688,217.821c-40.462,23.804 -85.083,48.191 -133.9,73.2l-73.204,37.479l-17.871,8.916c-4.717,1.188 -7.112,2.988 -7.112,5.38c-0,2.362 1.762,3.566 5.345,3.566c10.684,0 39.275,-5.958 85.696,-17.862c66.65,-16.688 118.413,-30.325 155.3,-41.046c74.979,-21.442 128.546,-40.488 160.675,-57.146c36.888,-19.046 92.846,-58.912 167.792,-119.592c101.167,-82.125 169.629,-143.437 205.325,-183.895c52.362,-60.68 78.554,-124.967 78.554,-192.796c0,-27.363 -11.9,-62.492 -35.7,-105.338c-30.983,-54.737 -51.208,-89.846 -60.687,-105.321c13.045,2.405 20.787,4.18 23.179,5.359c7.146,2.391 11.904,3.554 14.3,3.554c7.112,-0 10.683,-2.933 10.683,-8.913c0,-5.958 -8.329,-15.462 -24.983,-28.575l-62.484,-48.191c-1.183,-1.167 -2.987,-2.688 -5.341,-4.459c-2.396,-1.804 -4.2,-2.687 -5.346,-2.687c-8.354,-7.133 -14.921,-10.704 -19.642,-10.704c-7.146,-0 -11.929,6.554 -14.296,19.641" style="fill-rule:nonzero;"/><path d="M2230.95,1000.98l-8.917,41.058c-3.571,10.717 -5.375,18.459 -5.375,23.217c0,7.125 7.142,10.7 21.438,10.7c5.941,23.813 22.312,55.058 49.096,93.713c26.779,38.687 40.733,59.225 41.95,61.6c10.72,15.475 19.916,31.85 27.654,49.095c7.737,17.259 13.391,29.459 16.962,36.592c-17.829,27.375 -50.587,61.288 -98.183,101.775c-72.596,61.863 -127.371,106.488 -164.225,133.858c-104.771,78.588 -213.65,151.171 -326.688,217.825c-40.462,23.8 -85.083,48.188 -133.9,73.2l-73.204,37.471l-17.866,8.921c-4.721,1.192 -7.113,2.988 -7.113,5.379c0,2.363 1.763,3.567 5.342,3.567c10.683,-0 39.279,-5.958 85.7,-17.867c66.646,-16.683 118.408,-30.321 155.296,-41.041c74.979,-21.442 128.55,-40.488 160.679,-57.142c36.883,-19.05 92.846,-58.913 167.787,-119.596c101.171,-82.125 169.634,-143.433 205.325,-183.892c52.367,-60.683 78.559,-124.97 78.559,-192.8c-0,-27.358 -11.9,-62.495 -35.705,-105.337c-30.983,-54.738 -51.204,-89.846 -60.687,-105.321c13.05,2.404 20.787,4.179 23.179,5.362c7.146,2.388 11.908,3.55 14.3,3.55c7.113,0 10.683,-2.933 10.683,-8.912c0,-5.958 -8.329,-15.458 -24.983,-28.579l-62.479,-48.188c-1.188,-1.166 -2.992,-2.687 -5.346,-4.458c-2.396,-1.804 -4.2,-2.687 -5.346,-2.687c-8.35,-7.134 -14.916,-10.705 -19.641,-10.705c-7.146,0 -11.925,6.555 -14.292,19.642Z" style="fill-rule:nonzero;"/></svg>