<?xml version="1.0" encoding="UTF-8" standalone="no"?><!DOCTYPE svg PUBLIC "-//W3C//DTD SVG 1.1//EN" "http://www.w3.org/Graphics/SVG/1.1/DTD/svg11.dtd"><svg width="100%" height="100%" viewBox="0 0 2100 1353" version="1.1" xmlns="http://www.w3.org/2000/svg" xmlns:xlink="http://www.w3.org/1999/xlink" xml:space="preserve" xmlns:serif="http://www.serif.com/" style="fill-rule:evenodd;clip-rule:evenodd;stroke-linejoin:round;stroke-miterlimit:2;"><path d="M0,1349.33l0,-247.384l68.888,0c27.808,0 49.879,6.196 66.22,18.592c16.338,12.388 24.504,29.15 24.504,50.296c0,14.404 -3.995,26.85 -12.004,37.354c-8,10.517 -19.479,18.363 -34.445,23.554c8.791,5.2 17.391,12.279 25.783,21.25c8.391,8.979 20.208,24.617 35.425,46.934c9.579,14.05 17.25,24.608 23.029,31.695l14.562,17.709l-46.837,-0l-11.992,-16.3c-0.4,-0.588 -1.179,-1.592 -2.366,-3.009l-7.659,-9.745l-12.183,-18.08l-13.179,-19.308c-8.117,-10.154 -15.563,-18.242 -22.325,-24.254c-6.771,-6.013 -12.879,-10.338 -18.321,-12.988c-5.463,-2.658 -14.625,-3.983 -27.496,-3.983l-10.242,0l0,107.667l-39.362,-0Zm51.167,-217.284l-11.805,0l0,78.096l14.95,0c19.946,0 33.617,-1.533 41.042,-4.604c7.413,-3.067 13.183,-7.7 17.313,-13.904c4.133,-6.192 6.204,-13.25 6.204,-21.158c-0,-7.796 -2.296,-14.85 -6.888,-21.163c-4.6,-6.321 -11.058,-10.775 -19.379,-13.367c-8.342,-2.595 -22.146,-3.9 -41.437,-3.9" style="fill:#231f20;fill-rule:nonzero;"/><path d="M421.579,1101.94l39.558,0l0,140.429c0,19.009 -1.546,33.35 -4.629,43.034c-3.088,9.679 -6.888,17.733 -11.408,24.17c-4.538,6.434 -10.075,12.192 -16.634,17.267c-21.783,16.879 -50.258,25.321 -85.421,25.321c-35.82,-0 -64.554,-8.383 -86.204,-25.15c-6.558,-5.192 -12.108,-11.004 -16.629,-17.438c-4.533,-6.437 -8.262,-14.312 -11.217,-23.645c-2.954,-9.321 -4.425,-23.963 -4.425,-43.913l0,-140.075l39.55,0l0,140.429c0,23.254 2.955,39.429 8.859,48.513c5.904,9.096 14.887,16.387 26.962,21.879c12.071,5.487 26.304,8.237 42.713,8.237c23.358,0 42.379,-5.5 57.071,-16.47c7.745,-5.9 13.32,-12.875 16.737,-20.9c3.413,-8.021 5.117,-21.78 5.117,-41.259l-0,-140.429Z" style="fill:#231f20;fill-rule:nonzero;"/><path d="M515.653,1101.94l155.87,0l0,31.521l-116.508,-0l0,75.437l112.571,0l-0,31.692l-112.571,0l0,76.858l120.258,0l0,31.521l-159.621,0l0,-247.029Z" style="fill:#231f20;fill-rule:nonzero;"/><path d="M906.14,1349.33l-93.083,-0l0,-247.384l72.029,0c22.7,0 40.417,2.742 53.134,8.23c12.733,5.487 22.445,13.045 29.133,22.666c6.692,9.629 10.042,20.746 10.042,33.388c-0,24.312 -13.984,41.729 -41.925,52.233c20.062,3.429 36.05,10.871 47.916,22.321c11.879,11.442 17.825,25.142 17.825,41.075c0,12.65 -3.616,23.904 -10.829,33.825c-7.225,9.921 -17.808,18.004 -31.792,24.25c-13.97,6.275 -31.462,9.396 -52.45,9.396m-19.875,-215.871l-33.858,0l0,74.383l26.188,0c20.987,0 35.916,-3.604 44.77,-10.808c8.85,-7.196 13.292,-16.525 13.292,-27.979c0,-23.729 -16.808,-35.596 -50.392,-35.596m2.95,105.9l-36.808,-0l0,78.45l38.788,-0c21.504,-0 36.116,-1.504 43.787,-4.513c7.658,-3.016 13.829,-7.704 18.492,-14.07c4.666,-6.38 6.996,-13.234 6.996,-20.55c-0,-7.559 -2.471,-14.467 -7.388,-20.721c-4.917,-6.259 -11.904,-10.921 -20.954,-13.996c-9.063,-3.067 -23.358,-4.6 -42.913,-4.6" style="fill:#231f20;fill-rule:nonzero;"/><path d="M1041.16,1349.33l-0,-247.384l68.879,0c27.817,0 49.896,6.196 66.229,18.592c16.338,12.388 24.513,29.15 24.513,50.296c-0,14.404 -4.004,26.85 -12.013,37.354c-8,10.517 -19.479,18.363 -34.437,23.554c8.783,5.2 17.375,12.279 25.775,21.25c8.395,8.979 20.2,24.617 35.425,46.934c9.587,14.05 17.258,24.608 23.029,31.695l14.562,17.709l-46.833,-0l-11.996,-16.3c-0.391,-0.588 -1.179,-1.592 -2.366,-3.009l-7.655,-9.745l-12.187,-18.08l-13.163,-19.308c-8.129,-10.154 -15.579,-18.242 -22.341,-24.254c-6.763,-6.013 -12.875,-10.338 -18.321,-12.988c-5.463,-2.658 -14.617,-3.983 -27.488,-3.983l-10.258,0l0,107.667l-39.354,-0Zm51.171,-217.284l-11.817,0l0,78.096l14.958,0c19.954,0 33.634,-1.533 41.042,-4.604c7.412,-3.067 13.183,-7.7 17.325,-13.904c4.125,-6.192 6.196,-13.25 6.196,-21.158c-0,-7.796 -2.3,-14.85 -6.892,-21.163c-4.587,-6.321 -11.05,-10.775 -19.379,-13.367c-8.333,-2.595 -22.146,-3.9 -41.433,-3.9" style="fill:#231f20;fill-rule:nonzero;"/><path d="M1394.17,1098.39c42.475,-0.001 77.842,12.108 106.109,36.312c28.246,24.2 42.375,54.542 42.375,91.021c-0,36.479 -14.254,66.671 -42.775,90.575c-28.521,23.908 -64.475,35.862 -107.888,35.862c-41.421,0 -75.937,-11.954 -103.546,-35.862c-27.6,-23.904 -41.395,-53.859 -41.395,-89.875c-0,-36.938 13.895,-67.521 41.687,-91.721c27.8,-24.204 62.942,-36.313 105.433,-36.313m1.567,33.65c-31.462,0 -57.317,8.851 -77.575,26.563c-20.246,17.708 -30.375,40.317 -30.375,67.821c0,26.687 10.154,48.887 30.479,66.596c20.317,17.7 45.746,26.558 76.288,26.558c30.671,0 56.275,-9.029 76.787,-27.096c20.513,-18.062 30.779,-40.558 30.779,-67.467c0,-26.212 -10.266,-48.262 -30.779,-66.145c-20.512,-17.884 -45.716,-26.83 -75.604,-26.83" style="fill:#231f20;fill-rule:nonzero;"/><path d="M1819.98,1291.95l-0,38.954c-28.863,14.171 -62.192,21.25 -99.979,21.25c-30.709,0 -56.746,-5.533 -78.134,-16.637c-21.391,-11.1 -38.316,-26.392 -50.775,-45.88c-12.47,-19.474 -18.7,-40.545 -18.7,-63.216c0,-36.004 14.267,-66.284 42.813,-90.846c28.529,-24.55 63.725,-36.833 105.583,-36.833c28.863,-0 60.938,6.791 96.238,20.362l-0,38.079c-32.146,-16.529 -63.567,-24.795 -94.275,-24.795c-31.492,-0 -57.63,8.95 -78.421,26.829c-20.792,17.891 -31.2,40.296 -31.2,67.204c-0,27.158 10.233,49.479 30.704,66.946c20.463,17.475 46.65,26.208 78.533,26.208c33.321,0 65.867,-9.208 97.613,-27.625" style="fill:#231f20;fill-rule:nonzero;"/><path d="M1948.12,1100.52l27.662,-0l123.288,248.812l-40.284,0l-36.654,-73.316l-117.304,-0l-34.354,73.316l-40.446,0l118.092,-248.812Zm57.837,143.975l-44.354,-89.609l-41.146,89.609l85.5,-0Z" style="fill:#231f20;fill-rule:nonzero;"/><path d="M1841.88,410.954l0,-293.979l-1841.37,0l0,-116.975l2066.34,-0l-0,531.096l-1068.39,-0l0,363.7l-989.279,-0l-0,-483.688l1832.7,-0.154Z" style="fill:#231f20;fill-rule:nonzero;"/><path d="M1067.53,599.447l0,119.079l773.5,-0l0,176.271l224.367,-0l-0,-295.35l-997.867,-0Z" style="fill:#231f20;fill-rule:nonzero;"/></svg>