<?xml version="1.0" encoding="UTF-8" standalone="no"?><!DOCTYPE svg PUBLIC "-//W3C//DTD SVG 1.1//EN" "http://www.w3.org/Graphics/SVG/1.1/DTD/svg11.dtd"><svg width="100%" height="100%" viewBox="0 0 2217 1473" version="1.1" xmlns="http://www.w3.org/2000/svg" xmlns:xlink="http://www.w3.org/1999/xlink" xml:space="preserve" xmlns:serif="http://www.serif.com/" style="fill-rule:evenodd;clip-rule:evenodd;stroke-linejoin:round;stroke-miterlimit:2;"><path d="M1172.02,552.651l-8.421,-12.192l-13.4,6.908c-9.021,4.659 -17.25,8.625 -24.841,12.08l-0,0.241c-1.234,0.513 -2.225,0.921 -3.463,1.359c-0.392,0.116 -0.6,0.316 -0.992,0.425c-0.829,0.291 -1.545,0.6 -2.341,0.916c-1.121,0.4 -2.225,0.913 -3.346,1.359c-1.546,0.562 -3.254,1.162 -4.879,1.779c-0.913,0.254 -1.725,0.562 -2.634,0.921c-1.82,0.487 -3.137,1.045 -4.683,1.395c-0.992,0.317 -1.512,0.521 -2.308,0.83c-1.429,0.512 -3.059,0.87 -4.567,1.316c-0.717,0.109 -1.237,0.309 -1.954,0.513c-1.513,0.4 -2.713,0.758 -4.146,1c-0.504,0.112 -1.221,0.312 -1.725,0.4c-1.2,0.316 -2.437,0.583 -3.542,0.829c-0.716,0.154 -1.204,0.204 -1.725,0.4c-1.025,0.15 -2.225,0.317 -3.054,0.508c-1.512,0.246 -2.733,0.45 -4.05,0.604c-1.204,0.205 -2.337,0.317 -3.35,0.355c-3.054,0.245 -5.771,0.358 -8.925,0.358c-71.404,-0 -103.254,-10.808 -103.254,-50.05c0,-12.321 14.404,-51.188 78.008,-64.871c4.763,-1.071 7.3,-1.429 10.534,-1.829c-17.934,12.633 -31.446,29.012 -31.446,53.262c-0,15 6.196,43.5 59.15,49.492c0.796,-19.225 1.317,-41.579 1.317,-58.742l-0,-162.191c-0,-31.242 -1.009,-53.359 -3.659,-94.746c-1.725,-11.967 -5.771,-13.892 -18.975,-13.892l-20.679,0c-9.529,0 -14.5,9.121 -14.5,26.875l-21.025,0l0,-48.125l208.692,0l-0,48.125l-22.421,0c-0,-20.687 -3.575,-27.387 -23.25,-27.387c-35.488,-0 -38.042,8.121 -38.042,113.116l0,158.225c0,16.65 0.325,35.1 1.025,52.546c23.234,-13.325 36.304,-42.179 36.304,-67.058c0,-14.833 0.421,-88.442 -1.512,-126.771c-2.146,-38.404 -6.392,-41.5 -18.763,-50.425c-0.408,-0.212 -1.22,-0.554 -2.425,-0.908l0,-2.442c55.475,6.079 67.734,39.238 67.734,146.992c-0,65.429 2.341,113.204 29.641,119.691c-3.45,0.359 -7.108,0.605 -10.554,0.605c-34.271,-0 -47.066,-12.48 -53.554,-21.796m-18.275,83.875l-105.383,-0l-0,-20.629l4.258,-0c12.679,-0 19.592,-4.813 21.704,-14.58c0.309,-1.754 0.717,-7.6 1.104,-15.55c25.367,-6 41.509,-12.637 50.125,-16.891c0.6,12.366 1.125,23.616 1.821,32.441c0.409,11.171 5.171,14.58 26.371,14.58l0,20.629Zm-130.75,-288.875l12.796,3.341c23.217,6.063 21.087,17.338 21.087,26.963c0,12.529 -10.337,24.354 -33.166,24.354c-24.454,0 -37.525,-12.833 -39.475,-24.392c-4.959,-28.037 21.625,-62.441 78.233,-69.75l0,2.846c-6.292,1.829 -13.917,3.854 -16.029,4.967c-13.183,6.796 -18.679,10.85 -23.446,18.475c-4.858,7.604 0,13.196 0,13.196m89.275,-296.313l-571.296,365.263l571.296,365.3l563.788,-365.3l-563.788,-365.263Z" style="fill:#231f20;fill-rule:nonzero;"/><path d="M1112.27,798.629l-3.855,-2.421l-593.716,-379.608l597.571,-382l3.737,2.429l585.817,379.571l-589.554,382.029Zm-0,-798.629l-651.434,416.6l651.434,416.529l643.125,-416.529l-643.125,-416.6Z" style="fill:#231f20;fill-rule:nonzero;"/><path d="M280.258,932.987l-29.816,0c-0,-13.992 -1.821,-23.637 -5.692,-29.125c-3.737,-5.367 -12.354,-8.204 -25.637,-8.204c-11.888,-0 -21.217,1.408 -28.113,3.95c-6.908,2.65 -11.962,9.025 -15.217,19.275c-3.445,10.25 -5.575,25.558 -6.487,46.067c-1.025,20.479 -1.317,48.466 -1.317,84.079l0,214.854c0,11.875 0,23.729 0.213,35.896c0.275,12.283 0.6,24.354 1.104,36.216c0.487,11.967 0.912,23.446 1.512,34.096c0.325,10.654 0.93,19.963 1.317,28.392c0.521,7.308 2.942,12.392 7.513,15.217c4.454,2.945 13.916,4.262 28.108,4.262l-0,28.104l-141.508,0l-0,-28.104l5.67,0c16.538,0 26.275,-6.487 29.105,-19.479c0.42,-2.225 0.925,-8.2 1.737,-18.054c0.717,-9.738 1.317,-21.396 1.838,-34.896c0.391,-13.479 0.795,-27.479 1.108,-42.183c0.208,-14.513 0.208,-27.592 0.208,-39.467l0,-219.933c0,-10.43 0,-20.484 -0.208,-30.021c-0.313,-9.625 -0.717,-19.275 -0.813,-29.1c-0.1,-9.742 -0.716,-20.309 -1.416,-31.559c-0.717,-11.454 -1.529,-24.045 -2.454,-37.933c-0.992,-8.308 -3.221,-13.5 -6.796,-15.729c-3.546,-2.121 -9.738,-3.233 -18.763,-3.233l-27.9,-0c-12.65,-0 -19.166,12.166 -19.166,36.612l-28.388,0l0,-65.267l280.258,0l0,65.267Z" style="fill:#231f20;fill-rule:nonzero;"/><path d="M456.775,1302.43l-64.821,-346.017c-0.913,3.854 -3.142,14.505 -6.684,31.642c-3.575,17.25 -7.82,37.75 -12.795,61.371c-4.975,23.737 -10.259,49.208 -16.03,76.4c-5.591,27.183 -11.058,53.033 -16.016,77.396c-4.971,24.333 -9.25,45.637 -12.875,63.912c-3.463,18.338 -5.688,30.1 -6.717,35.296l135.938,-0Zm115.125,142.317l-132.167,-0l-0,-27.988l8.425,0c16.129,0 24.242,-4.283 24.242,-12.479c-0,-5.692 -1.221,-15.138 -3.563,-28.421c-2.437,-13.283 -4.975,-28.383 -7.804,-45.325l-145.171,0l-10.646,65.917c-0.504,1.229 -0.716,2.742 -0.716,4.258l-0,4.171c-0,5.275 2.554,8.512 7.82,9.846c5.171,1.316 13.284,2.033 24.259,2.033l-0,27.988l-91.829,-0l-0,-27.988l8.537,0c9.542,0 16.829,-6.4 21.996,-19.079c20,-92.217 38.758,-182.092 56.204,-269.513c17.563,-87.454 34.192,-174.591 49.817,-261.166l49.2,-0c8.516,63.962 20.887,133.85 37.325,209.616c16.341,75.571 35.2,159.676 56.5,251.867c1.821,7.934 4.162,17.559 6.696,29.125c2.75,11.454 6.375,24.959 11.154,40.071c2.229,9.225 5.4,14.6 9.25,16.338c3.741,1.716 10.65,2.741 20.471,2.741l-0,27.988Z" style="fill:#231f20;fill-rule:nonzero;"/><path d="M710.76,895.658c-12.875,-0 -20.159,6.6 -22.113,19.679c0,0.921 -0.079,5.067 -0.387,12.683c-0.117,7.713 -0.521,17.342 -1.025,29.1c-0.488,11.771 -0.896,24.855 -1.317,39.467c-0.488,14.604 -1.008,29.308 -1.513,44.421c-0.325,15.021 -0.925,29.525 -1.008,43.717c-0.308,14.112 -0.308,26.387 -0.308,36.841c-0,43.613 0.079,86.625 0.604,129.238c0.5,42.691 1.217,83.875 2.225,123.429c-0,2.137 0.196,5.8 0.617,10.767c0.408,4.97 1.416,9.941 2.829,14.712c1.429,4.854 3.854,9.025 7.121,12.763c3.22,3.658 7.9,5.487 13.591,5.487l48.271,0c27.183,0 49.2,-11.058 66.138,-32.962c17.137,-22.017 25.675,-58.23 25.675,-108.638l-0,-211.512c-0,-30.525 -2.034,-56.492 -6.084,-78.105c-3.966,-21.512 -9.85,-39.045 -17.654,-52.441c-7.921,-13.479 -17.558,-23.329 -28.925,-29.421c-11.362,-6.079 -24.337,-9.225 -39.15,-9.225l-47.587,-0Zm83.308,-27.938c19.362,0 36.904,4.9 52.529,15.063c15.725,9.942 29.217,23.817 40.175,41.667c11.363,17.879 19.788,38.958 25.671,63.32c5.967,24.442 8.829,50.921 8.829,79.621l0,156.734c0,38.645 -3.25,72.004 -9.95,99.816c-6.7,27.875 -16.033,50.921 -28.404,68.967c-12.371,17.967 -27.279,31.45 -44.842,40.067c-17.441,8.716 -37.325,13.091 -59.146,13.091l-192.008,0l0,-28.104l7.088,0c6.195,0 11.054,-1.317 15.025,-4.262c3.737,-2.825 6.679,-9.534 8.941,-20.192c2.013,-10.738 3.334,-26.558 3.934,-47.658c0.308,-21.105 0.716,-49.721 0.716,-85.83c0,-47.466 -0.521,-92.612 -1.221,-135.512c-0.604,-42.808 -1.416,-80.446 -2.325,-112.921c-1.104,-32.442 -1.933,-58.204 -2.65,-77.283c-0.716,-19.275 -1.008,-29.013 -1.008,-29.421c-1.933,-3.958 -5.171,-6.283 -9.529,-7.192c-4.679,-0.912 -10.858,-1.316 -18.971,-1.316l0,-28.655l207.146,0Z" style="fill:#231f20;fill-rule:nonzero;"/><path d="M1124.84,1246.23c0,-15.225 -0.195,-30.533 -0.387,-45.954c-0.329,-15.421 -0.525,-30.841 -1.125,-46.066c-7.513,9.941 -16.533,18.362 -27.071,25.158c-10.371,6.796 -20.517,13.396 -30.142,19.887c-9.737,6.5 -18.062,14.013 -24.858,22.213c-6.896,8.333 -10.437,18.675 -10.437,31.354c-0,26.567 16.42,39.867 49.179,39.867c12.683,-0 23.333,-4.879 31.966,-14.413c8.517,-9.633 12.875,-20.283 12.875,-32.046m115.955,41.184c-0,13.475 -4.88,24.841 -14.713,34.296c-9.629,9.308 -22.325,13.991 -37.933,13.991c-24.663,0 -42.317,-9.933 -52.659,-30.037c-13.883,9.646 -27.591,17.158 -41.295,22.525c-13.675,5.487 -27.363,8.225 -40.55,8.225c-64.917,-0 -97.388,-26.271 -97.388,-79.134c0,-26.479 11.871,-45.437 35.496,-56.695c11.883,-5.68 24.042,-11.071 36.725,-16.046c12.487,-4.967 24.454,-10.025 35.9,-15.309c11.362,-5.166 22.029,-10.966 31.879,-17.25c9.938,-6.37 18.65,-13.475 25.754,-21.191c-0.504,-16.138 -1.625,-29.329 -3.25,-39.554c-1.629,-10.163 -4.066,-18.275 -7.108,-24.163c-3.038,-5.875 -7.088,-10.021 -12.371,-12.362c-5.283,-2.434 -11.967,-3.546 -19.996,-3.546c-29.412,-0 -44.208,6.083 -44.208,18.25c20.992,6.912 31.446,21.508 31.446,43.729c-0,11.654 -4.263,22.012 -12.588,30.929c-8.404,8.933 -18.858,13.388 -31.246,13.388c-12.879,-0 -23.541,-4.25 -31.933,-12.671c-8.337,-8.521 -12.483,-18.567 -12.483,-30.421c-0,-14.713 2.746,-27.817 8.112,-39.183c5.367,-11.25 12.875,-20.884 22.5,-28.588c9.546,-7.912 20.504,-13.796 33.284,-17.65c12.987,-3.967 26.887,-5.883 42.091,-5.883c17.559,-0 32.871,1.916 45.946,5.883c13.004,3.854 23.654,11.967 31.879,24.138c8.196,12.158 14.504,29.408 18.65,51.829c3.967,22.421 5.788,51.946 5.788,88.454c-0,33.987 1.008,60.262 2.941,79.021c1.838,18.762 6.084,28.104 12.18,28.104c2.829,-0 5.479,-1.317 7.787,-4.054c2.454,-2.434 3.463,-6.4 3.463,-11.659l-0,-20.9l27.9,0l-0,23.534Z" style="fill:#231f20;fill-rule:nonzero;"/><path d="M1543.9,1330.53l-131.659,0l0,-28.104l10.03,0c10.358,0 16.437,-3.558 18.47,-10.362c1.921,-7.079 2.83,-20.163 2.83,-39.442c-0,-20.9 0.195,-39.662 0.6,-56.208c0.62,-16.638 0.829,-32.042 0.829,-46.454c-0,-32.363 -2.942,-56.809 -8.534,-73.342c-5.675,-16.542 -18.975,-24.85 -39.962,-24.85c-20.796,0 -34.192,6.796 -40.075,20.592c-5.983,13.704 -8.813,33.27 -8.813,58.52l0.001,126.296c-0,9.638 -0,17.442 0.191,23.329c0.309,5.788 1.625,10.455 3.659,13.705c2.033,3.341 5.366,5.479 9.933,6.591c4.458,1.117 10.766,1.625 18.879,1.625l0,28.105l-132.167,-0l0,-28.105l10.425,0c10.046,0 16.242,-4.566 18.988,-13.791c2.308,-9.138 3.854,-23.529 3.854,-43.321c-0,-28.817 0.079,-54.263 0.292,-76.388c0.196,-22.112 0.504,-39.65 0.504,-52.754c-0,-13.175 -0.504,-23.533 -1.317,-31.221c-0.504,-7.625 -2.341,-13.591 -4.879,-17.675c-2.517,-4.146 -6.079,-6.883 -10.629,-8.2c-4.475,-1.308 -10.246,-1.937 -17.238,-1.937l0,-28.904c13.075,0.395 23.609,1.112 31.721,1.941c8.146,0.888 14.942,2.421 20.308,4.65c5.367,2.121 9.834,5.063 13.167,8.713c3.367,3.662 6.913,8.625 10.763,14.716c7.121,-11.262 16.941,-19.883 29.429,-25.762c12.583,-5.888 26.779,-8.829 42.404,-8.829c26.971,-0 48.267,3.766 63.683,11.262c15.425,7.304 26.988,17.354 34.905,30.125c7.82,12.679 12.583,27.096 14.908,43.521c2.146,16.421 3.137,33.379 3.137,50.921c0,19.171 0.213,35.3 0.425,48.492c0.209,13.079 0.292,24.25 0.292,33.475c0,9.137 0.196,17.045 0.308,23.645c0.309,6.484 0.409,12.675 0.409,18.25c-0,8.309 1.816,13.592 5.283,15.821c3.658,2.138 11.967,3.25 24.646,3.25l-0,28.104Z" style="fill:#231f20;fill-rule:nonzero;"/><path d="M1725.96,1103.29c-0,-13.08 -4.05,-25.159 -12.359,-36.217c-8.225,-11.046 -19.279,-16.621 -33.587,-16.621c-13.888,0 -25.25,5.575 -33.363,16.621c-8.308,11.058 -12.375,23.138 -12.375,36.217l0,73.854c0,14.704 4.263,27.387 12.975,37.725c8.734,10.566 19.675,15.737 32.763,15.737c13.3,0 24.237,-5.171 32.875,-15.737c8.825,-10.338 13.071,-23.021 13.071,-37.725l-0,-73.854Zm123.771,-57.409c-0,9.942 -2.65,18.763 -8.013,26.08c-5.579,7.395 -13.692,11.162 -24.65,11.162c-5.167,0 -9.933,-1.142 -14.5,-3.254c-4.571,-2.225 -8.633,-4.684 -12.179,-7.308c-3.542,-2.542 -6.488,-4.976 -8.942,-7.088c-2.308,-2.25 -3.933,-3.25 -4.762,-3.25c-3.025,0 -6.275,1 -10.129,3.25c10.129,8.6 17.445,19.567 22.808,32.646c5.283,12.992 7.921,25.671 7.921,37.841c-0,16.021 -2.113,31.134 -5.692,45.038c-3.837,13.904 -9.821,26.279 -17.542,36.813c-7.708,10.766 -17.641,19.595 -29.608,26.479c-11.771,6.995 -25.767,11.362 -41.817,12.987c18.88,20.504 34.813,52.354 47.492,95.363c-22.129,-16.938 -49.487,-25.363 -81.65,-25.363c-36.629,0 -54.771,18.454 -54.771,55.492c0,22.108 7.8,39.158 23.409,50.921c15.512,11.658 35.625,17.541 59.75,17.541c23.737,0 44.337,-6.487 61.783,-19.566c17.558,-13.105 28.808,-30.046 33.475,-50.921l14.192,7.196c-4.746,26.079 -17.021,46.658 -37.213,61.666c-20.292,15.013 -45.15,22.617 -75.067,22.617c-22.32,0 -42.808,-2.229 -61.57,-6.579c-18.759,-4.367 -34.692,-10.763 -47.975,-19.275c-13.3,-8.533 -23.642,-18.758 -30.959,-30.954c-7.508,-12.171 -11.133,-25.963 -11.133,-41.184c-0,-57.404 28.075,-86.216 83.987,-86.216c7.596,-0 16.017,0.821 24.842,2.341c9.025,1.513 17.738,3.65 25.658,6.084c8.113,2.737 15.33,5.679 21.705,8.933c6.387,3.233 11.166,6.688 13.816,10.138c-1.429,-9.142 -5.475,-18.275 -12.287,-27.496c-6.796,-9.029 -17.446,-15.421 -31.642,-18.859c-39.458,-9.933 -66.854,-26.379 -82.167,-49.004c-15.525,-22.612 -23.233,-51.521 -23.233,-86.816c0,-33.9 10.55,-60.976 31.442,-80.967c20.891,-19.967 49.296,-30.021 85.308,-30.021c12.796,0 25.15,1.717 37.038,5.283c11.77,3.43 22.108,9.942 31.245,19.567c7.496,-27.387 28.584,-41.067 63.28,-41.067c25.57,0 38.35,13.167 38.35,39.75" style="fill:#231f20;fill-rule:nonzero;"/><path d="M2019.84,1107.26c0,-37.841 -19.362,-56.804 -57.816,-56.804c-7.217,0 -13.592,1.517 -19.184,4.567c-5.671,2.941 -10.454,7.087 -14.5,12.054c-3.954,5.083 -7.283,10.658 -9.625,16.941c-2.229,6.4 -3.462,12.788 -3.462,19.275l-0.717,65.942l83.988,-31.329c14.229,-5.192 21.316,-15.429 21.316,-30.646m45.554,151.454c-16.941,50.921 -51.437,76.371 -103.075,76.371c-17.737,0 -33.771,-3.862 -48.175,-11.462c-14.712,-7.592 -26.987,-17.85 -37.329,-30.638c-10.258,-12.883 -18.258,-27.792 -24.046,-44.725c-5.883,-17.046 -8.633,-34.987 -8.633,-54.175l0,-37.837c0,-17.455 2.942,-34.284 8.829,-50.613c6,-16.342 14.113,-30.646 24.646,-42.808c10.458,-12.171 22.846,-21.909 37.25,-29.304c14.583,-7.425 30.013,-11.171 46.663,-11.171c31.245,-0 55.895,8.021 74.054,23.85c17.933,15.908 26.958,38.441 26.958,67.546c0,5.679 -0.8,10.762 -2.637,15.02c-1.413,4.367 -4.355,8.513 -8.309,12.363c-3.966,3.971 -9.541,7.912 -16.533,11.767c-7.204,3.966 -16.129,8.112 -27.067,12.487l-92.737,37.838l-0,50.808c-0,14.421 4.679,26.787 13.8,37.329c9.221,10.446 20.291,15.638 33.266,15.638c8.421,-0 17.167,-1.225 26.271,-3.646c9.025,-2.342 17.446,-5.684 25.171,-10.059c7.9,-4.362 14.696,-9.533 20.696,-15.304c5.967,-5.887 10.146,-12.391 12.371,-19.275l18.566,0Z" style="fill:#231f20;fill-rule:nonzero;"/><path d="M2216.12,1330.53l-132.275,0l-0,-28.104l11.362,0c2.846,0 5.367,-0.704 7.821,-2.25c2.425,-1.6 4.454,-4.966 6.488,-10.225c1.82,-5.171 3.445,-12.991 4.65,-23.537c1.22,-10.363 2.033,-24.554 2.845,-42.496c0.617,-17.762 1.205,-40.067 1.642,-66.65c0.6,-26.475 0.908,-58.842 0.908,-96.675c0,-21.817 -0.308,-45.642 -0.908,-71.625c-0.437,-25.962 -1.433,-57.2 -3.462,-93.817c-1.025,-4.77 -1.821,-8.52 -2.846,-11.17c-1.009,-2.634 -2.438,-4.455 -4.667,-5.48c-2.033,-1.12 -5.071,-1.825 -8.829,-2.029c-3.854,-0.196 -8.813,-0.291 -15.004,-0.291l-0,-28.771l101.741,-0l0,21.616c0,24.809 -0.112,51.796 -0.795,80.696c-0.309,29.013 -1.138,57.204 -2.146,84.709l-2.734,112.983c0,19.679 0.313,39.979 1.221,60.862c0.488,20.9 2.113,45.955 4.454,75.171c1.009,3.967 1.921,7.217 2.83,9.846c0.912,2.542 2.341,4.567 4.258,5.883c1.937,1.317 4.767,2.138 8.229,2.625c3.658,0.434 8.729,0.625 15.217,0.625l-0,28.104Z" style="fill:#231f20;fill-rule:nonzero;"/></svg>