<?xml version="1.0" encoding="UTF-8" standalone="no"?><!DOCTYPE svg PUBLIC "-//W3C//DTD SVG 1.1//EN" "http://www.w3.org/Graphics/SVG/1.1/DTD/svg11.dtd"><svg width="100%" height="100%" viewBox="0 0 32725 25430" version="1.1" xmlns="http://www.w3.org/2000/svg" xmlns:xlink="http://www.w3.org/1999/xlink" xml:space="preserve" xmlns:serif="http://www.serif.com/" style="fill-rule:evenodd;clip-rule:evenodd;stroke-linejoin:round;stroke-miterlimit:2;"><g id="Layer-1" serif:id="Layer 1"><path d="M32712,9872.17c0.8,2752.6 7.812,5505.25 -0.954,8257.79c-11.717,3694.23 -2922.95,6418.5 -7670.79,7192.83c-1507.95,245.958 -1751.95,113.125 -1753.11,-1022.18c-6.009,-5761.21 -25.642,-11522.5 4.958,-17283.8c19.133,-3608.15 3488.39,-6532.42 8105.5,-6995.21c1089.76,-109.212 1329.41,193.971 1323.6,920.559c-23.938,2976.57 -10.017,5953.29 -9.213,8929.92" style="fill:#fff;fill-rule:nonzero;"/><path d="M21037.5,12014.2c-0.4,2109.14 16.629,4218.38 -4.208,6327.42c-35.409,3580.24 -3402.5,6477.08 -8071.79,7021.88c-967.758,112.934 -1319.79,-125.733 -1317.49,-839.866c14.626,-4633.67 -72.22,-9268.58 44.225,-13900.7c77.175,-3070.13 3608.29,-5937.54 7608.92,-6438.08c1416.85,-177.263 1732.08,15.262 1737.48,1118.4c10.967,2236.95 3.305,4473.96 2.855,6710.92" style="fill:#fff;fill-rule:nonzero;"/><path d="M7.054,19513.4c-1.054,-1439.05 -8.717,-2878.1 0.5,-4317.08c22.588,-3533.45 3446.27,-6414.46 8076.71,-6871.92c946.07,-93.454 1313.43,62.583 1306.42,810.092c-29.5,3133.7 62.154,6269.08 -38.512,9401.17c-111.084,3458.3 -3745.57,6377.75 -8155.5,6773.58c-948.925,85.175 -1205.75,-153.071 -1196.44,-807.284c23.642,-1662.72 7.863,-3325.7 6.813,-4988.58" style="fill:#fff;fill-rule:nonzero;"/></g></svg>