<?xml version="1.0" encoding="utf-8"?>
<!-- Generator: Adobe Illustrator 27.5.0, SVG Export Plug-In . SVG Version: 6.00 Build 0)  -->
<svg version="1.1" xmlns="http://www.w3.org/2000/svg" xmlns:xlink="http://www.w3.org/1999/xlink" x="0px" y="0px"
	 viewBox="0 0 750 500" style="enable-background:new 0 0 750 500;" xml:space="preserve">
<g id="BACKGROUND">
	<rect style="fill:#FFFFFF;" width="750" height="500"/>
</g>
<g id="OBJECTS">
	<path style="fill:#363636;" d="M239.461,443.722c0.155-6.314,0.472-14.47,0.626-20.785c0.091-3.723,0.184-7.469,0.933-11.117
		c0.501-2.445,1.294-4.831,1.64-7.302c0.737-5.265-0.587-10.611-0.28-15.918c0.262-4.556,1.716-8.948,2.615-13.425
		c0.9-4.475,1.207-9.301-0.845-13.56c1.722-2.672,3.489-5.534,3.538-8.712c0.016-1.007-0.145-2.015-0.065-3.019
		c0.148-1.825,1.073-3.482,1.891-5.12c1.273-2.549,2.353-5.307,2.227-8.152c-0.1-2.274-0.967-4.449-2.044-6.455
		c-1.939-3.612-4.598-6.836-7.489-9.087c-5.472-5.575-10.945-11.15-16.843-16.701c-0.738-2.429-1.674-4.993-3.736-6.471
		c-0.731-0.523-1.632-0.891-2.518-0.743c-1.017,0.169-1.824,0.991-2.283,1.914c-0.116,0.234-0.23,0.493-0.456,0.623
		c-0.279,0.16-0.641,0.075-0.931,0.212c-0.697,0.33-0.528,1.657-1.284,1.81c-0.338,0.069-0.66-0.168-1.004-0.198
		c-0.49-0.042-0.93,0.358-1.101,0.819c-0.169,0.462-0.131,0.971-0.09,1.46c0.16,1.937,0.407,4.063,1.829,5.388
		c1.434,1.337,3.596,1.423,6.391,2.177c4.966,7.431,10.215,14.673,15.731,21.706c0.954,1.215,1.971,2.625,1.732,4.151
		c-0.113,0.723-0.502,1.369-0.882,1.993c-0.935,1.532-1.868,3.066-3.216,4.46c-1.35,0.016-2.685,0.586-3.63,1.55
		c-0.915,0.935-1.604,2.297-2.892,2.534c-0.413,0.075-0.839,0.018-1.256-0.039c-1.108-0.154-2.217-0.308-3.062-0.63
		c-0.283-2.153,0.148-4.394,1.21-6.289c0.663-1.185,1.595-2.327,1.617-3.685c0.017-1.057-0.529-2.033-1.119-3.256
		c1.482-2.645,2.015-5.809,1.483-8.794c-0.532-2.985-2.127-5.769-4.433-7.738c-0.977-0.835-2.087-1.532-3.308-1.932
		c-1.477-0.484-3.057-0.524-4.611-0.558c-2.149-0.048-4.555,0.002-6.075,1.522c-0.747,0.747-1.167,1.756-1.826,2.582
		c-0.885,1.112-2.178,1.867-2.963,3.05c-0.752,1.13-0.962,2.534-0.993,3.89c-0.04,1.738,0.181,3.48,0.654,5.151
		c-0.444,0.093-0.655,0.599-0.752,1.042c-0.482,2.189,0.049,4.581,1.486,6.894c0.292,1.277,0.242,2.606,0.421,3.903
		c0.18,1.297,0.65,2.645,1.818,3.925c-0.004,2.956-0.118,5.914-1.099,9.34c-2.402-0.333-4.877-0.385-7.221,0.234
		c-2.344,0.618-4.557,1.958-5.899,3.976c-1.095,1.646-1.555,3.628-1.861,5.58c-0.61,3.88-0.693,7.82-1.093,11.727
		c-0.512,5.006-1.542,9.953-1.891,14.972c-0.349,5.019,0.023,10.22,2.176,14.768c0.94,1.985,2.209,3.816,3.63,6.844
		c-0.185,9.83-0.37,19.658-0.554,29.487H239.461z"/>
	<path style="fill:#363636;" d="M526.644,308.166c1.579-7.728-2.209-16.454-2.097-24.341c0.05-3.528,0.916-6.987,1.821-10.376
		c-0.32-0.298-0.639-0.597-1.206-1.113c1.312-3.062,2.631-6.148,3.338-9.403c0.766-3.522,0.8-7.182,1.708-10.671
		c0.534-2.052,1.375-4.129,0.968-6.638c-0.246-0.744-0.406-1.517-0.476-2.297c-0.017-0.186-0.03-0.377-0.11-0.546
		c-0.067-0.141-0.175-0.257-0.276-0.377c-0.485-0.578-0.791-1.305-0.863-2.057c-0.016-0.163-0.026-0.339-0.131-0.465
		c-0.095-0.115-0.247-0.161-0.375-0.238c-0.333-0.202-0.488-0.656-0.347-1.019c-0.787-0.561-0.913-1.678-0.828-2.641
		c0.084-0.963,0.299-1.973-0.085-2.833c-0.718-0.076-1.405-0.411-1.907-0.929c-0.11-0.114-0.216-0.247-0.229-0.405
		c-0.01-0.138,0.054-0.27,0.109-0.396c0.399-0.901,0.467-1.907,0.563-2.887c0.346-3.526,1.122-7.009,2.187-10.463
		c0.842-1.723,0.856-3.75,1.639-5.5c0.456-1.02,1.157-1.908,1.851-2.784c1.288-1.627,2.699-3.34,4.683-3.946
		c1.684-0.515,3.542-0.145,5.224-0.666c1.398-0.434,2.788-1.475,4.174-1.005c0.432,0.146,0.806,0.431,1.237,0.577
		c1.602,0.543,3.294-0.956,4.912-0.651c0.181-1.379,0.273-2.769,0.278-4.16c0.002-0.505-0.014-1.033-0.259-1.474
		c-0.256-0.463-0.726-0.761-1.087-1.148c-0.425-0.456-0.699-1.033-0.915-1.617c-0.232-0.627-0.408-1.285-0.404-1.954
		c0.004-0.669,0.204-1.353,0.529-2.175c0.161-1.83-0.201-3.725,0.334-5.483c0.459-1.511,1.531-2.75,2.62-3.895
		c0.743-0.781,1.517-1.549,2.441-2.104c1.979-1.187,4.433-1.266,6.723-0.979c1.186,0.149,2.372,0.39,3.467,0.87
		c0.589,0.258,1.155,0.589,1.603,1.05c0.406,0.417,0.711,0.935,1.171,1.292c0.783,0.606,1.911,0.665,2.626,1.351
		c0.713,0.685,0.802,1.819,0.543,2.773c-0.259,0.955-0.804,1.802-1.141,2.7c0.021,4.52,0.008,9.21-1.903,13.306
		c-0.438,0.94-0.979,1.854-0.965,2.795c0.825-0.687,1.866-1.111,2.936-1.197c0.137-0.011,0.281-0.018,0.399-0.09
		c0.145-0.087,0.221-0.253,0.286-0.409c0.144-0.344,0.284-0.701,0.54-0.972c0.256-0.271,0.664-0.437,1.009-0.298
		c0.02-0.551,0.457-0.997,0.922-1.295c0.464-0.298,0.99-0.515,1.377-0.907c0.663-0.671,0.853-1.788,1.683-2.236
		c0.202-0.109,0.43-0.169,0.62-0.299c0.239-0.163,0.395-0.42,0.542-0.67c2.508-4.229,5.016-8.458,7.524-12.686
		c0.1-0.169,0.204-0.372,0.519-0.771c-0.425-4.668,0.947-9.283,1.729-13.905c0.838-4.946,1.005-10.006,0.356-15.014
		c-1.302-1.21-2.644-2.477-3.299-4.129c-0.819-2.066-0.445-4.44-1.173-6.54c-0.116-0.333-0.26-0.664-0.28-1.016
		c-0.02-0.352,0.116-0.742,0.43-0.903c0.347-0.179,0.775-0.022,1.097,0.2c0.322,0.222,0.608,0.513,0.991,0.76
		c0.285-0.892,1.493-1.338,2.29-0.844c0.211,0.131,0.405,0.318,0.651,0.348c0.271,0.033,0.521-0.133,0.781-0.219
		c0.396-0.131,0.852-0.067,1.197,0.167c0.201,0.137,0.382,0.335,0.625,0.361c0.185,0.02,0.362-0.065,0.541-0.112
		c0.438-0.114,0.932,0.017,1.256,0.333c0.152,0.148,0.269,0.332,0.436,0.463c0.541,0.424,1.347,0.132,2.003,0.337
		c0.943,0.296,1.253,1.452,1.392,2.431c0.189,1.336,0.334,2.7,0.099,4.028c-0.168,0.952-0.528,1.861-0.731,2.808
		c-0.664,3.1-0.232,6.585,0.251,10.284c1.389,10.638,0.218,20.926-2.169,31.385c-1.278,5.599-3.154,11.247-6.958,16.304
		c-0.277,1.653-1.077,3.215-2.257,4.405c-0.604,0.609-1.302,1.122-1.89,1.747c-1.745,1.857-2.362,4.525-3.964,6.506
		c-1.142,1.413-2.824,2.562-3.282,4.954c-0.74,4.556-0.977,9.193-0.706,13.8c0.131,2.237,0.382,4.486,0.113,6.71
		c-0.449,3.699-2.321,7.204-2.165,10.927c0.067,1.606,0.515,3.184,0.501,4.791c-0.014,1.607-0.632,3.367-1.556,4.508
		c-0.491,3.893-0.789,7.81-1.021,12.012c1.619,8.85,1.734,17.975,0.338,26.863H526.644z"/>
	<path style="fill:#363636;" d="M498.013,404.883c-2.929,3.517-6.316,1.691-9.441,0.812c-2.534-0.713-4.941-1.937-7.319-3.107
		c-0.863-0.424-1.799-1.215-2.157-2.067c-2.101-4.996-4.588-9.766-4.599-15.54c-0.023-11.958-1.099-23.845-4.571-35.397
		c-1-3.327-0.681-7.102-3.672-10.06c-3.997,10.713-8.117,21.216-9.065,32.64c-0.182,2.199-0.734,4.374-0.824,6.572
		c-0.101,2.49-0.15,5.04,0.262,7.483c1.424,8.457-1.632,14.814-9.248,18.982c-2.955,1.617-5.885,2.681-9.337,1.063
		c-1.569-1.945-1.38-3.971,0.241-5.892c2.423-2.873,2.81-5.615,1.23-9.324c-0.97-2.278-0.225-5.512,0.353-8.186
		c2.335-10.791,5.412-21.441,4.656-32.691c-0.186-2.764,0.368-5.574,0.526-8.366c0.117-2.06,0.502-4.188,0.152-6.177
		c-1.544-8.756,0.511-16.957,3.408-25.08c0.341-0.956,0.429-2.003,0.701-3.335c-2.493-0.964-4.917-1.901-7.829-3.027
		c0.35-1.447,0.766-2.793,0.995-4.171c1.011-6.094,2.424-12.167,2.808-18.304c0.338-5.397-0.171-10.915-0.946-16.287
		c-0.428-2.965-2.066-5.789-3.358-8.585c-1.03-2.229-2.377-4.311-3.551-6.475c-0.279-0.514-0.323-1.178-0.661-1.635
		c-3.864-5.22-4.065-11.247-3.803-17.348c0.253-5.882,0.585-11.763,0.992-17.637c0.101-1.454,0.161-3.317,1.034-4.241
		c3.847-4.068,6.724-9.551,13.337-10.287c0.806,1.427,1.522,2.696,2.326,4.12c1.078,0.47,2.287,0.997,3.971,1.731
		c-0.116,4.311,2.794,7.559,5.097,11.065c2.62,3.989,1.855,7.841-0.169,11.957c-1.374,0.927-2.953,1.993-4.819,3.253
		c-3.991-1.351-7.451-4.06-9.103-7.665c-1.553-3.389-1.282-7.614-1.854-11.766c-0.538,1.05-1.457,2.026-1.478,3.02
		c-0.107,5.125-1.125,10.332,0.958,15.325c0.113,0.271,0.243,0.569,0.235,0.85c-0.198,6.503,3.921,11.231,6.776,16.473
		c1.446,2.655,3.944,3.821,6.523,4.655c1.663-0.854,1.18-1.875,0.838-3.093c-1.284-4.58-0.291-9.132,1.401-13.281
		c1.211-2.969,7.54-4.372,10.803-3.211c3.434,1.222,6.144,4.818,5.779,8.59c-0.33,3.409,0.574,7.095-1.744,10.202
		c-0.16,0.214,0.181,0.802,0.428,1.754c3.836-1.079,6.952-2.88,9.294-6.065c1.386-1.885,2.97-3.626,4.322-5.533
		c0.908-1.28,1.725-2.675,2.298-4.13c0.915-2.326,1.381-4.842,2.416-7.104c2.091-4.573,2.031-9.425,2.507-14.438
		c-4.001-3.427-7.26-7.295-6.264-13.215c2.885-1.571,5.53-1.019,7.922,2.1c1.494,1.947,2.631,4.169,4.125,6.116
		c2.931,3.82,1.865,8.275,1.617,12.337c-0.413,6.737-1.727,13.425-2.788,20.113c-0.516,3.254-2,6.022-4.168,8.632
		c-3.007,3.621-5.631,7.585-8.154,11.57c-0.983,1.553-1.56,3.524-1.783,5.37c-0.921,7.606-1.833,15.223-2.338,22.863
		c-0.24,3.631,0.144,7.377,0.802,10.969c0.494,2.7,0.608,4.929-1.789,6.425c2.122,7.975,3.87,15.69,4.125,23.682
		c0.16,5.005,1.115,10.053,0.695,14.995c-0.966,11.358,1.95,22.063,4.362,32.914c0.76,3.417,1.073,7.001,1.045,10.505
		c-0.028,3.628,0.678,6.699,3.639,8.993C497.724,401.491,498.245,403.072,498.013,404.883z"/>
	<path style="fill:#363636;" d="M375.389,393.872c-0.176-5.033-0.502-10.476-3.738-14.336c-1.16-1.384-2.64-2.483-3.716-3.932
		c-2.691-3.619-2.354-8.684-0.988-12.981c1.367-4.297,3.628-8.315,4.496-12.74c-0.727-1.703-1.199-2.197-1.307-2.775
		c-0.114-0.613,0.149-1.226,0.407-1.794c1.89-4.168,3.779-8.335,5.668-12.503c0.543-1.199,1.095-2.413,1.917-3.442
		c0.636-0.798,1.419-1.466,2.197-2.129c0.77-0.655,1.574-1.329,2.549-1.592c0.944-0.256,2.039-0.129,2.806-0.734
		c0.485-0.381,0.762-1.009,1.309-1.295c0.464-0.243,1.033-0.19,1.515-0.397c0.649-0.28,1.007-0.961,1.492-1.474
		c0.484-0.513,1.368-0.849,1.859-0.342c1.471-0.984,2.598-1.921,2.948-3.237c0.143-0.538,0.143-1.103,0.141-1.66l-0.017-5.895
		c-1.165-0.895-2.311-1.611-3.029-2.697c-0.836-1.262-0.98-2.859-0.89-4.37c-0.465-2.321-0.277-4.743,0.645-6.854
		c0.635-1.452,1.67-2.803,3.124-3.432c0.796-0.345,1.691-0.457,2.546-0.319c0.341,0.055,0.685,0.148,1.027,0.091
		c0.419-0.071,0.764-0.358,1.122-0.59c1.064-0.69,2.376-0.93,3.64-0.847c1.265,0.083,2.492,0.471,3.663,0.956
		c0.96,0.398,1.905,0.87,2.695,1.546c1.279,1.093,2.09,2.686,2.342,4.35c0.252,1.663-0.035,3.386-0.699,4.932
		c0.458,0.185,0.744,0.509,0.91,0.884c0.279,0.632,0.214,1.375-0.025,2.022c-0.24,0.649-0.641,1.223-1.038,1.79
		c-0.196,3.332-1.405,6.419-3.481,8.751c0.21,1.527,0.143,3.121-0.023,4.704c1.141,0.576,2.155-0.234,2.851-1.025
		c0.696-0.793,1.514-1.716,2.565-1.637c0.636,0.048,1.33,0.46,1.857,0.102c0.234-0.158,0.357-0.43,0.457-0.693
		c0.347-0.925,0.656-2.064,1.598-2.363c0.477-0.152,1.059-0.053,1.426-0.394c0.268-0.248,0.32-0.644,0.469-0.978
		c0.448-0.995,1.681-1.313,2.755-1.511c3.329-4.356,5.926-8.604,8.766-12.684c-3.525-7.114-7.746-14.363-12.174-21.482
		c-3.359-0.547-6.347-1.792-8.214-4.025c-0.467-0.558-0.878-1.207-0.936-1.932c-0.059-0.725,0.335-1.527,1.034-1.729
		c-0.649-1.812-1.536-3.274-2.424-4.736c-0.259-0.426-0.526-0.88-0.523-1.378c0.005-0.849,0.966-1.544,1.774-1.282
		c-0.068-0.602-0.08-1.248,0.226-1.77c0.305-0.523,1.033-0.839,1.542-0.511c-0.232-0.323,0.009-0.825,0.388-0.944
		c0.378-0.119,0.798,0.067,1.071,0.354c0.272,0.288,0.43,0.664,0.589,1.027c0.955,2.191,2.247,4.358,4.281,5.612
		c0.129-1.41-0.101-2.145-0.251-2.898c-0.032-0.159-0.057-0.337,0.034-0.471c0.2-0.296,0.661-0.075,0.922,0.17
		c3.086,2.889,5.239,6.758,6.067,10.903c4.592,5.711,8.629,11.015,12.665,16.319c2.14,2.813,4.378,5.901,4.389,9.435
		c0.009,2.758-1.354,5.311-2.682,7.729c-3.394,6.184-6.788,12.366-10.181,18.549c0.65,1.204,0.174,2.555-0.612,3.416
		c-0.785,0.862-1.836,1.449-2.608,2.322c-1.196,1.352-1.588,3.214-1.936,4.987c-0.763,3.887-1.531,7.838-1.177,11.784
		c0.252,2.803,1.066,5.554,1.044,8.368c-0.021,2.495-0.698,4.94-0.871,7.43c-0.118,1.721,0.005,3.449,0.127,5.171
		c0.388,5.418,0.783,17.688,1.171,23.107H375.389z"/>
	<g>
		<defs>
			<rect id="SVGID_1_" width="750" height="500"/>
		</defs>
		<clipPath id="SVGID_00000144336209714143453080000006233885289564096642_">
			<use xlink:href="#SVGID_1_"  style="overflow:visible;"/>
		</clipPath>
		<path style="clip-path:url(#SVGID_00000144336209714143453080000006233885289564096642_);fill:#363636;" d="M144.35,370.332
			c-1.447-3.354-0.598-6.083,1.092-9.374c1.833-3.567,3.77-6.786,6.681-9.477c3.313-3.062,7.003-3.884,11.278-2.197
			c2.932,1.157,4.934,3.01,5.537,6.183c0.054,0.286,0.084,0.576,0.12,0.865c0.31,2.476,3.506,3.621,2.944,6.538
			c-0.46,2.392-0.752,4.815-1.261,8.163c-1.522,2.666-8.027,1.885-7.785,6.757c1.359,1.629,2.167,2.827,3.204,3.774
			c1.017,0.928,2.183,2.051,3.435,2.29c2.606,0.497,3.843,2.086,5.156,4.182c2.766,4.417,5.799,8.679,8.918,12.859
			c4.431,5.938,9.108,11.693,13.544,17.628c2.41,3.224,5.137,5.839,9.016,7.261c1.873,0.687,3.518,1.999,5.154,2.962
			c-0.451,4.772-0.479,9.667-7.531,8.949c-1.904-2.445-4.407-5.101-6.238-8.16c-2.079-3.472-4.802-6.096-7.949-8.535
			c-3.077-2.385-5.759-5.271-8.709-7.828c-3.82-3.311-7.734-6.514-11.368-9.562c-2.71,0.242-3.754,1.592-4.138,3.689
			c-0.286,1.564-0.898,3.091-1.006,4.659c-0.18,2.62-0.239,5.127-2.508,7.071c-0.557,0.477-0.561,1.961-0.362,2.884
			c0.396,1.831,0.867,3.723,1.742,5.357c1.951,3.644,1.735,6.918-1.245,10.249c2.192,3.508,4.393,7.071,6.638,10.606
			c1.554,2.447,3.289,4.771,3.141,7.936c-0.045,0.958,0.524,1.949,0.829,2.92c2.53,8.045,5.035,16.099,7.628,24.124
			c0.436,1.349,0.999,2.831,1.957,3.804c2.724,2.763,3.73,6.131,4.283,9.805c0.234,1.555,0.558,3.262,1.401,4.526
			c1.549,2.321,1.839,4.807,2.011,7.444c0.206,3.177,0.555,6.348,0.943,9.509c0.79,6.431,0.587,12.684-2.469,18.63
			c-2.227,4.333-2.688,8.853-0.768,13.487c0.555,1.338,1.088,2.73,1.318,4.148c0.446,2.749-1.205,4.265-3.893,3.442
			c-4.103-1.256-7.423-3.682-8.405-8.068c-0.67-2.992-1.608-5.46-4.402-7.11c-1.866-1.102-2.249-2.958-1.227-4.954
			c1.765-3.448,1.888-6.724,0.062-10.36c-0.89-1.773-0.935-4.387-0.404-6.363c0.936-3.482,0.502-6.861-0.777-9.828
			c-2.242-5.202-3.443-10.443-3.198-16.067c0.031-0.711-0.191-1.434-0.325-2.347c-8.983-6.408-12.565-17.022-18.939-25.833
			c-2.921,3.076-3.729,6.718-4.638,10.158c-1.854,7.015-3.728,14.077-4.761,21.24c-0.799,5.536-1.202,11.172-0.824,16.896
			c0.409,6.197-0.418,12.473-0.648,18.717c-0.069,1.885-0.098,3.796,0.123,5.663c0.442,3.736-0.077,7.017-2.265,10.333
			c-1.417,2.147-1.539,5.17-2.136,7.824c-0.22,0.98-0.051,2.042-0.208,3.043c-0.57,3.627-3.127,5.805-6.549,5.658
			c-3.661-0.158-6.365-2.63-6.697-6.224c-0.106-1.152-0.271-2.419,0.078-3.472c1.818-5.493,0.573-10.891-0.118-16.357
			c-0.489-3.867-0.497-7.797-0.664-11.701c-0.466-10.902-0.131-21.771,0.411-32.68c0.431-8.667,1.912-17.361,0.648-26.117
			c-0.323-2.24,0.298-4.622,0.527-6.934c0.5-5.043,0.862-10.108,1.616-15.113c0.354-2.348,1.355-4.634,2.296-6.85
			c1.295-3.048,1.767-6.095,0.923-9.227c-6.024-3.371-6-3.366-4.739-10.13c0.612-3.283,1.005-6.609,1.706-9.871
			c0.391-1.818,0.844-3.81,1.901-5.263c4.596-6.32,4.801-13.11,2.63-20.604c-5.885-2.571-11.87-5.526-18.097-7.824
			c-9.222-3.404-12.172-10.611-12.607-19.469c-0.221-4.501,0.072-9.026-0.038-13.536c-0.095-3.902-0.431-7.798-0.732-12.901
			c1.382-3.706,6.054-2.929,9.559-4.294c3.203,4.489,3.174,5.912,0.655,9.986c-0.787,1.273-1.326,2.95-1.292,4.426
			c0.056,2.447,0.59,4.897,1.065,7.317c0.811,4.135,1.709,8.254,2.623,12.368c0.246,1.109,0.681,2.176,0.854,2.714
			c5.38,1.355,10.234,2.861,15.201,3.72c2.919,0.505,6.057,0.27,9.02-0.159c2.961-0.429,5.664-0.856,8.326,1.102
			C141.585,370.105,144.35,370.332,144.35,370.332z"/>
	</g>
	<path style="fill:#363636;" d="M708.125,218.605c0.784,1.531,1.546,3.074,2.356,4.592c1.038,1.945,2.141,3.856,3.165,5.808
		c1.218,2.321,0.391,4.115-2.164,4.597c-0.876,0.165-1.828,0.162-2.711,0.021c-4.174-0.667-7.924-5.539-7.605-9.742
		c0.339-4.471-0.642-8.749-1.837-13.02c-1.047-3.738-2.232-7.497-2.684-11.326c-0.403-3.414-1.143-6.611-2.496-9.74
		c-0.611-1.415-0.89-2.974-1.301-4.403c-2.015-1.228-3.99-2.432-5.959-3.632c-0.242-1.671-0.46-3.173-0.734-5.064
		c-1.733,3.085-0.391,7.466-4.612,8.266c-1.081,2.7-2.233,5.051-2.956,7.528c-0.716,2.452-1.003,5.03-1.471,7.554
		c-0.779,4.197-1.271,8.472-2.406,12.57c-1.125,4.061-1.508,8.096-1.176,12.235c0.325,4.049-3.8,8.773-7.886,8.919
		c-3.944,0.14-5.368-1.709-3.869-5.337c1.133-2.743,2.386-5.478,3.956-7.985c1.116-1.783,1.327-3.393,1.215-5.457
		c-0.415-7.643-0.851-15.293,1.465-22.822c0.824-2.677,1.73-6.046,0.802-8.387c-1.674-4.222-0.426-8.092-0.245-12.102
		c0.087-1.919,0.48-3.832,0.84-5.728c0.868-4.572,1.798-9.132,2.742-13.891c-3.207-1.014-3.645-3.484-3.586-6.457
		c0.166-8.301,0.121-16.603,1.351-24.85c0.155-1.04-0.23-2.32-0.755-3.274c-3.213-5.842-5.81-11.856-6.195-18.641
		c-0.049-0.862-0.471-1.783-0.951-2.528c-2.349-3.649-2.161-7.691-1.819-11.714c0.239-2.806,0.847-5.578,1.183-8.379
		c0.104-0.868-0.003-1.817-0.251-2.659c-0.544-1.845-1.241-3.645-1.892-5.51c2.106-1.323,4.121-2.59,6.546-4.113
		c0.015-0.212,0.065-0.94,0.114-1.646c1.109-0.689,2.615-0.27,2.748,1.004c0.185,1.768,0.344,3.716-0.199,5.35
		c-1.44,4.333-0.814,8.291,1.195,12.231c0.582,1.141,1.229,2.461,1.18,3.673c-0.144,3.585,2.022,6.38,2.961,9.579
		c0.339,1.156,1.495,2.072,2.632,3.563c1.21-1.147,2.392-2.048,3.303-3.169c3.145-3.868,6.943-4.739,11.817-2.513
		c0.452,1.128,0.776,2.414,1.447,3.481c0.676,1.076,1.697,1.936,2.856,3.207c0.054-0.988,0.091-1.681,0.131-2.398
		c2.684-0.67,2.797-0.619,3.869-3.036c1.259-2.838,2.245-5.797,3.451-8.66c0.591-1.402,1.388-2.72,2.135-4.052
		c1.766-3.15,3.743-6.021,1.805-10.108c-0.967-2.038-0.393-4.847-0.315-7.3c0.013-0.411,1.049-0.79,1.922-1.399
		c0.452,1.287,0.775,2.206,1.156,3.29c0.165,0.126,0.443,0.404,0.775,0.581c3.784,2.02,4.535,3.847,2.9,7.926
		c-1.166,2.909-1.797,5.703-0.017,8.137c-0.17,1.621-0.275,2.878-0.44,4.127c-0.151,1.146-0.127,2.394-0.596,3.405
		c-2.396,5.166-2.379,10.775-3.417,16.199c-0.88,4.597-3.519,8.853-5.332,13.28c-0.518,1.266-1.319,2.635-1.222,3.897
		c0.468,6.073,1.42,12.113,1.742,18.189c0.161,3.047-0.471,6.185-1.121,9.201c-0.266,1.231-1.531,2.247-2.468,3.535
		c2.165,6.298,2.932,13.107,3.179,20.005c0.056,1.552,0.334,3.094,0.471,4.645c0.102,1.161,0.611,2.598,0.125,3.444
		c-2.112,3.676-0.635,7.279,0.454,10.54c2.161,6.467,2.253,13.008,2.128,19.644c-0.044,2.33-0.007,4.662-0.007,6.993
		C707.738,218.719,707.931,218.662,708.125,218.605z"/>
	<g>
		<defs>
			<rect id="SVGID_00000055700046961414191410000005634069400565686196_" width="750" height="500"/>
		</defs>
		<clipPath id="SVGID_00000139294796809270265520000013226198913765740454_">
			<use xlink:href="#SVGID_00000055700046961414191410000005634069400565686196_"  style="overflow:visible;"/>
		</clipPath>
		<path style="clip-path:url(#SVGID_00000139294796809270265520000013226198913765740454_);" d="M303.147,413.352
			c2.63-12.872-3.679-27.407-3.493-40.544c0.083-5.876,1.525-11.638,3.033-17.282c-0.532-0.497-1.065-0.994-2.009-1.855
			c2.185-5.101,4.382-10.24,5.559-15.662c1.275-5.867,1.333-11.964,2.846-17.774c0.89-3.418,2.291-6.878,1.612-11.057
			c-0.409-1.239-0.676-2.526-0.793-3.826c-0.028-0.31-0.05-0.628-0.183-0.909c-0.111-0.235-0.292-0.428-0.46-0.627
			c-0.808-0.963-1.317-2.174-1.438-3.426c-0.026-0.271-0.043-0.565-0.217-0.775c-0.158-0.192-0.412-0.269-0.625-0.397
			c-0.554-0.336-0.812-1.092-0.578-1.697c-1.311-0.935-1.52-2.795-1.38-4.398c0.141-1.604,0.499-3.286-0.141-4.719
			c-1.195-0.127-2.34-0.684-3.176-1.547c-0.184-0.19-0.361-0.412-0.381-0.674c-0.017-0.23,0.089-0.449,0.182-0.66
			c0.664-1.5,0.778-3.176,0.938-4.809c0.576-5.872,1.868-11.674,3.642-17.428c1.403-2.87,1.426-6.246,2.73-9.161
			c0.76-1.699,1.927-3.178,3.082-4.637c2.146-2.71,4.495-5.563,7.801-6.573c2.805-0.857,5.9-0.242,8.701-1.11
			c2.329-0.722,4.644-2.457,6.952-1.674c0.719,0.243,1.342,0.718,2.061,0.961c2.668,0.904,5.486-1.592,8.182-1.084
			c0.301-2.297,0.455-4.613,0.464-6.929c0.003-0.841-0.024-1.721-0.431-2.456c-0.427-0.771-1.209-1.268-1.811-1.912
			c-0.709-0.759-1.164-1.72-1.524-2.693c-0.387-1.045-0.68-2.141-0.672-3.255c0.007-1.114,0.34-2.254,0.881-3.623
			c0.268-3.049-0.334-6.204,0.556-9.132c0.765-2.517,2.55-4.581,4.363-6.487c1.237-1.3,2.527-2.58,4.066-3.504
			c3.297-1.977,7.384-2.109,11.198-1.63c1.976,0.248,3.95,0.65,5.774,1.449c0.981,0.43,1.924,0.981,2.671,1.748
			c0.676,0.695,1.184,1.557,1.951,2.152c1.304,1.01,3.184,1.108,4.374,2.25c1.188,1.141,1.336,3.029,0.904,4.619
			c-0.432,1.59-1.339,3.001-1.9,4.498c0.036,7.528,0.013,15.341-3.169,22.163c-0.73,1.565-1.63,3.089-1.607,4.656
			c1.374-1.144,3.108-1.851,4.891-1.994c0.229-0.019,0.468-0.031,0.664-0.149c0.241-0.145,0.368-0.421,0.477-0.681
			c0.24-0.573,0.473-1.167,0.9-1.618c0.426-0.451,1.105-0.727,1.681-0.496c0.033-0.918,0.762-1.661,1.535-2.157
			c0.772-0.496,1.649-0.857,2.294-1.511c1.105-1.118,1.42-2.978,2.804-3.725c0.337-0.182,0.717-0.282,1.033-0.498
			c0.398-0.272,0.657-0.7,0.903-1.116c4.178-7.043,8.355-14.087,12.532-21.131c0.167-0.282,0.34-0.619,0.865-1.285
			c-0.707-7.775,1.577-15.463,2.881-23.161c1.396-8.238,1.674-16.666,0.593-25.008c-2.169-2.015-4.405-4.125-5.496-6.877
			c-1.364-3.44-0.741-7.396-1.953-10.893c-0.192-0.555-0.432-1.107-0.466-1.693c-0.034-0.587,0.193-1.235,0.715-1.504
			c0.579-0.298,1.291-0.036,1.827,0.333c0.536,0.37,1.013,0.854,1.65,1.266c0.475-1.486,2.486-2.228,3.814-1.406
			c0.352,0.217,0.674,0.529,1.085,0.579c0.451,0.055,0.869-0.221,1.301-0.364c0.66-0.217,1.418-0.112,1.993,0.279
			c0.336,0.228,0.637,0.558,1.041,0.602c0.308,0.034,0.603-0.108,0.902-0.186c0.73-0.19,1.552,0.028,2.092,0.554
			c0.253,0.247,0.448,0.554,0.726,0.772c0.902,0.706,2.244,0.22,3.336,0.562c1.571,0.493,2.088,2.419,2.319,4.048
			c0.314,2.225,0.556,4.497,0.165,6.709c-0.281,1.587-0.88,3.1-1.217,4.676c-1.107,5.163-0.387,10.968,0.418,17.129
			c2.313,17.719,0.363,34.855-3.612,52.276c-2.128,9.325-5.254,18.734-11.59,27.157c-0.461,2.754-1.793,5.354-3.759,7.338
			c-1.007,1.015-2.169,1.868-3.147,2.91c-2.906,3.092-3.935,7.538-6.603,10.836c-1.903,2.354-4.704,4.268-5.467,8.251
			c-1.233,7.588-1.628,15.312-1.176,22.986c0.219,3.725,0.636,7.471,0.188,11.176c-0.747,6.162-3.867,12-3.606,18.201
			c0.112,2.675,0.857,5.303,0.834,7.979s-1.053,5.608-2.592,7.509c-0.818,6.485-1.314,13.009-1.701,20.009
			c2.697,14.742,2.889,29.939,0.564,44.744H303.147z"/>
		<path style="clip-path:url(#SVGID_00000139294796809270265520000013226198913765740454_);" d="M301.429,494.823
			c-0.239-15.736-1.335-33.999-3.28-49.617c-1.902-8.413-1.664-14.958-1.023-21.435c0.758-7.65,2.078-15.25,4.065-22.676
			c1.22-4.561,2.688-9.053,4.107-13.557c2.807-8.902,5.448-17.977,5.81-27.305c1.315-6.896,1.243-12.659,0.158-18.225
			c-0.628-3.208-1.589-6.361-1.899-9.616c-0.296-3.119,0.01-6.265-0.08-9.398c-0.305-10.569-5.069-20.434-9.807-29.884
			c-3.546-7.071-7.135-14.122-10.933-21.061c-2.774-4.008-5.027-8.396-4.611-13.011c0.192-2.114,0.944-4.235,0.515-6.313
			c-0.336-1.632-1.361-3.025-2.359-4.358c-0.085-3.789-1.245-7.576-3.581-10.427c-0.468-0.57-1.005-1.121-1.692-1.39
			c-0.435-0.173-1.063-0.139-1.217,0.304c-0.074,0.215-0.004,0.45,0.072,0.664c0.855,2.384,2.497,4.564,2.571,7.095
			c-1.039-0.481-2.151-0.965-3.333-1.067c-1.18-0.102-2.463,0.244-3.213,1.163c-1.446,1.767-0.286,4.344,0.093,6.597
			c0.352,2.095-0.052,4.246,0.075,6.368c0.247,4.163,2.483,7.899,4.331,11.639c1.739,3.518,3.175,7.177,4.608,10.831
			c1.702,4.337,3.41,8.694,4.461,13.234c0.85,3.673,1.324,7.593,3.517,10.659c-2.912-2.809-6.855-5.314-10.789-5.088
			c-4.087-4.104-10.129-3.946-14.157-0.847c-2.278,1.753-3.849,4.241-5.744,6.401c-1.93,2.201-4.326,4.28-4.878,7.155
			c-0.472,2.454,0.521,5.057-0.178,7.455c-0.351,1.206-1.115,2.286-1.286,3.531c-0.226,1.66,0.674,3.314,1.931,4.423
			c1.257,1.108,2.834,1.772,4.382,2.417c0.205,2.145,1.505,3.936,2.073,5.914c0.809,2.816,0.104,5.883,0.803,8.728
			c-3.3,0.099-5.77,0.155-8.164,0.618c-1.615-5.896-4.257-11.085-8.018-15.281c-0.767-0.856-1.605-1.713-1.942-2.811
			c-0.206-0.673-0.207-1.389-0.214-2.092c-0.028-2.516-0.168-5.068-0.954-7.458c-0.549-1.67-1.408-3.242-1.786-4.96
			c-0.735-3.349,0.434-6.79,1.586-10.02c5.16-16.564,13.665-31.112,21.096-46.057c2.3-4.625,4.547-9.904,2.882-14.793
			c-0.03-0.092-0.065-0.186-0.132-0.254c-0.193-0.197-0.53-0.087-0.762,0.066c-0.838,0.552-1.38,1.53-1.403,2.534
			c-2.253-1.243-3.253-2.023-4.352-2.145c-1.099-0.122-2.246,0.42-2.851,1.346c-0.248,0.378-0.469,0.857-0.912,0.944
			c-0.242,0.047-0.487-0.042-0.733-0.053c-0.729-0.036-1.318,0.599-1.641,1.253c-0.324,0.654-0.511,1.393-0.992,1.94
			c-0.691,0.787-1.872,1.044-2.469,1.903c-0.329,0.473-0.431,1.065-0.505,1.637c-0.43,3.357-0.183,6.799,0.725,10.058
			c-5.346,10.919-11.685,20.416-17.61,30.11c-2.301,3.766-4.56,7.607-5.929,11.802c-3.392,10.404-0.978,21.704,1.455,32.374
			c1.758,7.702,3.536,15.469,6.817,22.657c-1.052,21.936,7.442,44.038,4.28,65.995c-0.567,3.933-1.505,7.809-1.955,11.755
			c-0.485,4.246-0.402,8.535-0.641,12.801c-0.88,15.695-6.094,31.599-2.199,46.83H301.429z"/>
		<path style="clip-path:url(#SVGID_00000139294796809270265520000013226198913765740454_);" d="M757.509,259.825
			c0.222-9.026,0.675-20.685,0.896-29.713c0.13-5.321,0.264-10.677,1.334-15.892c0.717-3.495,1.849-6.906,2.344-10.439
			c1.053-7.526-0.839-15.168-0.401-22.755c0.375-6.513,2.453-12.792,3.739-19.191c1.287-6.397,1.725-13.296-1.208-19.384
			c2.461-3.819,4.988-7.912,5.058-12.454c0.023-1.439-0.207-2.881-0.093-4.316c0.211-2.609,1.533-4.977,2.703-7.319
			c1.82-3.643,3.363-7.586,3.183-11.653c-0.143-3.251-1.383-6.36-2.922-9.227c-2.772-5.164-6.573-9.771-10.706-12.99
			c-7.823-7.969-15.646-15.939-24.078-23.873c-1.054-3.472-2.393-7.137-5.34-9.251c-1.045-0.748-2.333-1.273-3.6-1.062
			c-1.454,0.242-2.608,1.416-3.264,2.737c-0.165,0.335-0.328,0.705-0.652,0.89c-0.398,0.229-0.916,0.108-1.331,0.303
			c-0.996,0.472-0.754,2.368-1.836,2.588c-0.483,0.098-0.944-0.239-1.435-0.283c-0.701-0.06-1.33,0.512-1.573,1.171
			c-0.242,0.66-0.187,1.388-0.129,2.087c0.229,2.769,0.582,5.808,2.614,7.702c2.049,1.911,5.14,2.035,9.135,3.112
			c7.099,10.623,14.602,20.975,22.487,31.029c1.364,1.738,2.817,3.752,2.476,5.933c-0.161,1.034-0.718,1.957-1.261,2.85
			c-1.337,2.191-2.671,4.383-4.598,6.376c-1.93,0.023-3.838,0.838-5.188,2.216c-1.308,1.337-2.293,3.284-4.134,3.623
			c-0.59,0.108-1.2,0.026-1.795-0.056c-1.584-0.221-3.168-0.44-4.377-0.901c-0.405-3.078,0.211-6.282,1.729-8.99
			c0.948-1.693,2.28-3.326,2.312-5.268c0.024-1.512-0.756-2.906-1.6-4.655c2.118-3.782,2.881-8.304,2.12-12.571
			c-0.761-4.267-3.041-8.246-6.337-11.061c-1.396-1.194-2.983-2.189-4.728-2.762c-2.111-0.693-4.369-0.749-6.591-0.798
			c-3.072-0.069-6.512,0.003-8.685,2.176c-1.068,1.068-1.669,2.511-2.61,3.692c-1.266,1.59-3.113,2.668-4.236,4.36
			c-1.074,1.615-1.374,3.623-1.42,5.561c-0.058,2.484,0.258,4.974,0.935,7.363c-0.635,0.133-0.936,0.857-1.075,1.49
			c-0.689,3.129,0.07,6.548,2.125,9.855c0.417,1.825,0.346,3.725,0.602,5.58s0.929,3.78,2.6,5.611
			c-0.005,4.225-0.168,8.453-1.571,13.351c-3.433-0.476-6.972-0.55-10.323,0.335c-3.351,0.883-6.514,2.799-8.432,5.683
			c-1.565,2.353-2.223,5.186-2.66,7.976c-0.871,5.546-0.991,11.178-1.563,16.763c-0.732,7.156-2.204,14.228-2.703,21.403
			c-0.499,7.175,0.032,14.61,3.111,21.111c1.344,2.838,3.158,5.455,5.188,9.784c-0.265,14.052-0.529,28.102-0.792,42.152H757.509z"
			/>
		<path style="clip-path:url(#SVGID_00000139294796809270265520000013226198913765740454_);" d="M466.028,436.197
			c-0.803-6.349,2.594-12.481,6.618-17.456c4.025-4.975,8.843-9.413,11.772-15.102c5.08-9.871,3.651-21.686,2.092-32.678
			c1.49-3.811,1.488-6.717,0.92-9.25c-0.569-2.533-1.615-4.977-1.766-7.57c-0.142-2.497,0.525-5.186-0.658-7.389
			c-0.387-0.719-0.953-1.339-1.25-2.1c-0.453-1.159-0.216-2.459-0.285-3.702c-0.15-2.713-1.778-5.135-3.696-7.06
			c-1.917-1.924-4.167-3.498-6.051-5.454c-0.95-0.987-1.872-2.114-3.175-2.535c-0.521-0.168-1.094-0.22-1.545-0.527
			c-0.654-0.445-0.876-1.291-1.324-1.942c-1.065-1.547-3.207-1.801-5.082-1.914c-2.701-1.491-4.723-2.913-6.744-4.336
			c-0.632-0.446-1.292-0.922-1.627-1.62c-0.266-0.551-0.299-1.18-0.327-1.792c-0.066-1.45-0.133-2.899-0.2-4.348
			c-0.026-0.572-0.051-1.159,0.133-1.701c0.337-0.991,1.28-1.621,2.105-2.262c4.815-3.735,7.182-10.249,6.242-16.269
			c-0.94-6.019-5.008-11.382-10.387-14.244c-5.378-2.862-11.925-3.277-17.746-1.481c-1.348,0.416-2.688,0.959-3.768,1.869
			c-1.047,0.884-1.796,2.069-2.398,3.3c-0.949,1.94-1.571,4.194-0.913,6.251c-0.745,4.943-1.141,10.301-1.308,15.665
			c-0.031,0.953-0.053,1.912-0.243,2.847c-0.169,0.838-0.469,1.65-0.604,2.496c-0.441,2.79,0.957,5.51,2.356,7.964
			c-0.614,1.236-1.18,2.418-2.226,3.001c-1.618,0.901-3.642,0.028-5.154-1.042c-1.51-1.072-3.026-2.407-4.877-2.473
			c-0.792-0.029-1.65,0.173-2.34-0.218c-0.561-0.318-0.855-0.948-1.266-1.445c-1.235-1.504-3.784-1.655-5.191-0.31
			c-3.722-2.58-7.462-3.422-11.018-4.507c-3.124-0.954-6.181-2.131-9.138-3.518c-1.819-7.496-2.802-15.361-2.217-22.843
			c0.229-2.928,0.515-6.253,1.881-8.445c0.191-0.307,0.393-0.616,0.674-0.841c0.355-0.282,0.805-0.41,1.243-0.53
			c1.432-0.394,2.886-0.805,4.143-1.599c1.947-1.231,3.241-3.272,4.204-5.365c0.964-2.094,1.665-4.31,2.777-6.327
			c0.191-0.347,0.398-0.761,0.229-1.118c-0.182-0.38-0.689-0.466-1.109-0.417c-1.385,0.159-2.518,1.173-3.4,2.253
			c-0.883,1.081-1.638,2.296-2.753,3.137c-0.153-2.226,0.407-4.318,1.23-6.3c0.656-1.576,1.495-3.161,1.445-4.868
			c-0.023-0.819-0.383-1.759-1.177-1.961c-0.837-0.215-1.719,0.504-2.544,0.244c-0.335-0.106-0.604-0.361-0.934-0.483
			c-0.898-0.331-1.809,0.401-2.486,1.075c-1.973-1.196-4.023-0.627-5,0.672c-0.15,0.201-0.286,0.418-0.491,0.565
			c-0.628,0.447-1.482-0.006-2.251-0.033c-0.855-0.031-1.652,0.506-2.147,1.205c-0.492,0.698-0.73,1.542-0.925,2.374
			c-1.245,5.339-1.033,10.895-0.813,16.372c-6.577,11.569-10.032,25.462-9.532,39.235c0.105,2.91,0.476,6.039,2.431,8.198
			c1.436,1.589,3.515,2.404,5.495,3.218c8.276,3.404,16.182,7.702,23.54,12.795c4.675,6.731,6.983,14.749,6.926,22.762
			c-0.031,4.259-0.714,8.5-1.805,12.617c-1.388,5.232-3.441,10.316-4.125,15.684c-0.476,3.728-0.277,7.504-0.214,11.261
			c0.167,9.962-1.267,30.506-2.998,40.319H466.028z"/>
		<path style="clip-path:url(#SVGID_00000139294796809270265520000013226198913765740454_);" d="M244.439,535.367
			c0.321-9.21,0.919-19.171,6.84-26.235c2.122-2.532,4.831-4.544,6.801-7.195c4.925-6.622,4.307-15.891,1.808-23.755
			c-2.502-7.864-6.64-15.217-8.228-23.315c1.33-3.116,2.193-4.02,2.393-5.079c0.209-1.122-0.273-2.244-0.744-3.284
			c-3.458-7.627-6.916-15.253-10.372-22.88c-0.994-2.195-2.004-4.416-3.507-6.298c-1.164-1.461-2.597-2.683-4.02-3.895
			c-1.408-1.198-2.879-2.432-4.664-2.914c-1.728-0.468-3.731-0.236-5.135-1.343c-0.888-0.698-1.394-1.846-2.395-2.369
			c-0.849-0.445-1.891-0.347-2.772-0.727c-1.188-0.512-1.843-1.759-2.731-2.698c-0.887-0.939-2.504-1.554-3.401-0.625
			c-2.692-1.801-4.755-3.516-5.394-5.923c-0.262-0.986-0.262-2.019-0.259-3.038l0.031-10.788c2.132-1.638,4.23-2.948,5.544-4.935
			c1.529-2.31,1.794-5.233,1.629-7.997c0.85-4.247,0.507-8.68-1.18-12.542c-1.161-2.657-3.057-5.13-5.717-6.281
			c-1.456-0.631-3.094-0.836-4.66-0.583c-0.624,0.1-1.254,0.272-1.879,0.167c-0.768-0.129-1.398-0.655-2.052-1.08
			c-1.946-1.262-4.348-1.702-6.662-1.549c-2.315,0.151-4.56,0.862-6.704,1.749c-1.757,0.728-3.486,1.593-4.932,2.83
			c-2.34,2-3.824,4.916-4.285,7.959c-0.461,3.042,0.064,6.196,1.279,9.025c-0.839,0.339-1.362,0.932-1.666,1.618
			c-0.51,1.157-0.392,2.516,0.047,3.701c0.439,1.188,1.173,2.238,1.9,3.275c0.359,6.097,2.571,11.746,6.369,16.013
			c-0.384,2.795-0.262,5.711,0.042,8.609c-2.089,1.054-3.943-0.427-5.217-1.876c-1.273-1.451-2.77-3.14-4.695-2.996
			c-1.164,0.087-2.433,0.842-3.398,0.186c-0.427-0.289-0.654-0.786-0.836-1.269c-0.635-1.693-1.201-3.776-2.924-4.324
			c-0.872-0.278-1.938-0.097-2.609-0.721c-0.49-0.453-0.586-1.179-0.859-1.789c-0.82-1.821-3.077-2.403-5.041-2.765
			c-6.092-7.971-10.845-15.746-16.042-23.211c6.451-13.018,14.175-26.284,22.278-39.312c6.147-1.001,11.615-3.279,15.031-7.365
			c0.855-1.022,1.608-2.209,1.714-3.536c0.107-1.327-0.613-2.794-1.893-3.164c1.188-3.315,2.811-5.991,4.436-8.667
			c0.474-0.779,0.962-1.611,0.956-2.522c-0.009-1.554-1.768-2.826-3.246-2.346c0.124-1.102,0.147-2.283-0.413-3.24
			c-0.558-0.956-1.891-1.535-2.821-0.934c0.424-0.59-0.016-1.51-0.709-1.728c-0.692-0.218-1.461,0.122-1.959,0.648
			c-0.499,0.528-0.786,1.215-1.077,1.879c-1.747,4.01-4.112,7.974-7.835,10.269c-0.235-2.58,0.185-3.926,0.459-5.302
			c0.058-0.291,0.105-0.616-0.063-0.862c-0.366-0.542-1.209-0.137-1.688,0.311c-5.647,5.286-9.587,12.367-11.102,19.953
			c-8.404,10.451-15.791,20.158-23.176,29.864c-3.916,5.147-8.012,10.798-8.032,17.265c-0.016,5.048,2.478,9.72,4.907,14.144
			c6.211,11.316,12.422,22.63,18.631,33.944c-1.189,2.204-0.318,4.676,1.119,6.252c1.436,1.577,3.359,2.653,4.772,4.25
			c2.189,2.474,2.906,5.882,3.542,9.125c1.397,7.114,2.801,14.343,2.154,21.565c-0.461,5.129-1.951,10.164-1.91,15.314
			c0.038,4.565,1.278,9.041,1.594,13.596c0.217,3.15-0.009,6.313-0.232,9.462c-0.711,9.914-1.433,32.369-2.144,42.284H244.439z"/>
		<path style="clip-path:url(#SVGID_00000139294796809270265520000013226198913765740454_);" d="M129.826,550.106
			c0,0,25.826-61.584,72.783-77.237c46.956-15.652,67.131-98.489,108.5-112.636c41.369-14.147,46.326,30.005,55.717,31.766
			c9.391,1.761,13.226-4.617,22.435-6c9.209-1.383,24.848,10.761,24.848,10.761s43.63-15.091,44.413-18.013
			c0.783-2.922,85.335-67.487,85.335-67.487l25.013-38.894c0,0,55.565-17.99,61.043-24.569c5.478-6.58,53.217-60.971,53.217-60.971
			l74.379,72.999l1.273,290.281H129.826z"/>
		<path style="clip-path:url(#SVGID_00000139294796809270265520000013226198913765740454_);" d="M688.888,183.638
			c0.279-8.126,0.182-15.967-0.497-23.76c-0.375-1.723-0.065-4.003-0.553-6.192c-0.585-2.622-2.251-4.85-3.905-6.967
			c-6.005-7.684-12.434-15.099-17.356-23.517c-0.985-1.685-1.916-3.43-2.397-5.322c-0.722-2.839-0.493-6.12-2.412-8.333
			c-2.165-2.499-6.262-2.396-9.102-0.707c-0.725,0.431-1.422,0.973-1.81,1.724c-0.721,1.4-0.195,3.091,0.341,4.571
			c-0.879,0.104-1.366,0.455-1.584,0.905c-0.219,0.449-0.22,0.973-0.163,1.47c0.179,1.581,0.917,3.095,2.053,4.212
			c1.076,1.058,2.457,1.74,3.659,2.65c2.575,1.945,4.232,4.835,5.821,7.644c-3.502-0.202-7.67,1.337-10.438,4.264
			c-2.768,2.927-4.069,7.177-3.417,11.152c-0.667-0.015-1.102,0.958-1.201,1.851c-0.098,0.891,0.024,1.814-0.23,2.675
			c-0.28,0.956-0.995,1.73-1.362,2.657c-1.138,2.866,1.266,5.94,1.192,9.024c-0.024,0.986-0.305,1.967-0.192,2.945
			c0.153,1.324,1.033,2.493,2.155,3.213c1.121,0.719,2.461,1.03,3.789,1.132c1.069,3.63,1.711,7.687,2.353,11.742
			c0.018,0.116,0.037,0.237,0.005,0.35c-0.057,0.202-0.256,0.326-0.431,0.441c-0.822,0.532-1.507,1.269-1.977,2.128
			c-5.686-2.899-10.539-5.78-15.356-8.718c-1.484-0.906-3.072-1.847-4.809-1.811c-0.664-3.771-0.819-7.015-1.099-10.248
			c3.239-4.341,5.771-8.852,7.253-13.689c0.962-1.449,1.715-3.027,1.869-4.67c0.155-1.642-0.29-3.334-1.234-4.687
			c0.075-2.77,0.057-5.655-0.58-8.442c-0.637-2.786-1.955-5.503-4.164-7.315c-1.125-0.922-2.439-1.58-3.74-2.23
			c-0.978-0.487-1.962-0.978-3.003-1.305c-2.184-0.686-4.54-0.627-6.801-0.264c-2.585,0.416-5.164,1.252-7.216,2.88
			c-2.264,1.792-3.74,4.451-4.466,7.244c-0.471,1.816-0.642,3.691-0.632,5.571c-1.515-1.55-3.066-3.143-4.607-4.732
			c0.694-1.265,1.037-2.643,0.488-3.796c-0.513-1.075-1.642-1.69-2.7-2.236c-1.919-0.988-3.867-1.975-5.961-2.492
			c-0.658-0.697-1.29-1.37-1.888-2.012c-9.705-10.412-23.759-26.795-26.366-34.429c-2.607-7.634-2.456-18.075-8.18-19.917
			s-19.661,2.375-25.439,17.04c-5.778,14.665,1.609,18.248,12.881,19.27c11.272,1.022,18.168,6.858,31.959,16.715
			c2.864,2.047,6.328,4.672,10.016,7.541c-0.434,0.872-0.796,1.779-1.071,2.714c-9.094,5.821-18.026,11.788-26.958,17.756
			c-4.688,3.133-9.446,6.324-13.083,10.634c-1.459,1.73-2.786,3.876-2.426,6.109c0.388,2.414,2.577,4.064,4.592,5.451
			c7.515,5.169,15.031,10.338,22.546,15.507c0.407,3.499,2.784,6.079,5.266,8.077c2.484,2,5.273,3.773,6.972,6.469
			c2.315,3.676,2.167,8.328,1.942,12.665c-0.361,6.957-0.721,13.915-1.082,20.87c-0.22,4.247-0.443,8.514-1.281,12.683
			c-1.258,6.262-4.067,18.469-2.199,24.578h103.646c0.149-6.748,0.296-13.499,0.444-20.249c1.682-3.066,2.437-4.853,2.558-6.583
			c0.122-1.73-0.291-3.446-0.645-5.144c-2.449-11.781-2.062-24.143,1.119-35.747C691.277,196.666,691.538,189.538,688.888,183.638z
			 M607.74,159.68c-0.209,1.469-0.508,2.998-1.437,4.153c-1.127,1.398-3.012,1.997-4.81,2.011c-1.795,0.015-3.55-0.476-5.295-0.898
			c-8.624-2.092-17.628-2.604-26.434-1.503c6.673-8.174,14.272-15.45,22.03-22.539c1.16-1.058,2.447-2.17,4.013-2.285
			c1.166-0.087,2.354,0.402,3.487,0.113c0.142-0.036,0.264-0.103,0.393-0.158c2.184,1.764,4.304,3.489,6.295,5.117
			c-0.309,1.068-0.362,2.133-0.183,3.149c0.335,1.898,1.39,3.624,2.779,4.961C608.289,154.502,608.106,157.104,607.74,159.68z"/>
		<path style="clip-path:url(#SVGID_00000139294796809270265520000013226198913765740454_);" d="M580.952,259.263
			c-1.166-2.914-2.895-5.564-4.336-8.352c-4.914-9.505-6.491-20.633-12.534-29.464c-5.771-8.432-15.507-14.021-25.698-14.753
			c-1.229-6.079-1.506-12.029-1.196-17.949c0.023-0.431,0.053-0.879,0.267-1.254c0.263-0.464,0.759-0.738,1.197-1.044
			c2.573-1.81,3.425-5.672,1.852-8.396c0.491-8.692-3.344-16.055-9.798-19.434c-6.454-3.378-15.357-1.95-19.688,3.908
			c-1.301,1.76-2.162,3.802-3.325,5.657c-1.043,1.663-2.361,3.248-2.704,5.18c-0.237,1.329,0.018,2.693,0.004,4.041
			c-0.023,2.276-0.803,4.476-1.044,6.739c-0.675,6.332,2.943,12.412,7.512,16.845c-1.065,1.548-1.88,3.216-3.362,3.242
			c-0.478,0.009-0.944-0.174-1.356-0.419c-3.609-2.148-3.087-8.295-6.785-10.287c-1.717-2.091-2.573-4.25-3.431-6.407
			c-0.481-1.208-0.967-2.449-1.015-3.747c-0.048-1.316,0.357-2.601,0.719-3.868c1.346-4.707,2.155-9.567,2.408-14.456
			c-0.563-5.517-0.651-10.673,0.706-15.563c1.216-4.38,3.544-8.366,5.083-12.642c0.593-1.647,1.075-3.35,1.931-4.878
			c0.669-1.192,1.557-2.262,2.109-3.512c1.079-2.441,0.752-5.246,0.403-7.893c-0.525-1.832-0.865-3.326-1.235-4.813
			c-0.112-0.452-0.26-0.948-0.659-1.183c-0.103-0.061-0.217-0.087-0.331-0.102c0.569-6.105,0.668-14.795-1.427-24.414
			c-2.87-13.174-15.978-22.162-15.978-22.162s-27.587,9.771-58.109,8.988c-30.522-0.783-60.668,10.771-72.291,21.206
			s-38.832,13.506-57.622,12.642c0,0-6.783,35.022,7.174,69.196c0,0,37.043-0.391,50.609-6.783
			c13.565-6.391,11.731-20.739,20.87-20.739c17.478,0,12.154-5.755,25.956-7.304c29.053-3.262,34.696-13.043,57.652-19.043
			c14.027-3.666,22.597-3.144,29.524-2.6c0.125,1.12,0.579,2.174,0.914,3.252c1.127,3.632,0.84,7.682-0.79,11.117
			c-4.261,9.568-8.618,19.649-11.466,30.204c-2.848,10.555-4.154,21.661-2.483,32.465c-2.291,6.151-2.248,13.144-0.913,19.758
			c1.336,6.616,3.911,12.915,6.726,19.048c-1.192,22.757-2.053,45.524-2.915,68.287c-0.168,4.453-0.337,8.919-1.042,13.319
			c-0.505,3.156-1.285,6.279-1.492,9.469c-0.319,4.893,0.719,9.78,0.67,14.684c-0.085,8.722-6.373,25.187-4.479,33.701h90.29
			c-0.731-21.017-1.464-42.035-2.195-63.052c-0.532-10.336,0.43-18.854,2.591-27.057c-0.931-1.9-0.267-2.081,0.144-1.997
			c3.793,0.786,7.948-0.481,10.654-3.25c2.689-0.045,4-2.45,4.452-4.401C583.177,272.479,583.433,265.47,580.952,259.263z"/>
		<path style="clip-path:url(#SVGID_00000139294796809270265520000013226198913765740454_);" d="M242.981,136.409
			c-12.204-16.32-42.991-36.879-73.626-45.204c-29.272-7.955-51.125-20.253-64.727-25.808l0.466-3.399
			c0.145-1.069-0.601-2.052-1.668-2.199c-1.068-0.146-2.052,0.604-2.199,1.668L64.725,327.66c-1.836-2.865-5.772-1.503-6.096-0.112
			c-0.347,1.487-0.783,1.131-2.265,2.245c-1.483,1.113-0.009,3.022-0.168,4.241c-0.159,1.219-1.2,1.01-2.024,2.081
			c-0.824,1.071,0.745,1.874,0.118,2.794c-0.627,0.92-2.451,1.842-0.707,4.836c0.638,1.096,1.294,3.327,1.869,5.716
			c-4.139,7.034-5.955,15.188-8.62,22.831c-2.107,6.042-4.8,11.872-6.755,17.966c-1.955,6.092-3.162,12.574-2.172,18.896
			c0.907,5.792,3.598,11.129,6.251,16.357c3.71,7.31,7.419,14.616,11.129,21.926c-2.541,4.241-0.145,9.258,2.265,13.19
			c2.459,4.015,4.983,8.053,6.446,12.525c3.356,10.26,0.81,21.731,4.108,32.009c1.044,3.257,2.675,6.394,2.891,9.807
			c0.195,3.109-0.801,6.151-1.44,9.202c-1.177,5.631-1.134,11.514,0.07,17.079c0.053,2.952,0.108,5.905,0.161,8.859h80.923
			c-0.178-8.704,0.07-19.392,0.264-28.096c5.486-2.945,10.012-5.083,14.022-8.016c4.011-2.934,7.519-6.75,9.299-11.387
			c1.955-5.095,1.688-10.786,0.639-16.141c-0.72-3.666-1.805-7.292-3.576-10.583c-2.072-3.849-5.035-7.154-8.247-10.122
			c-7.665-7.082-16.839-12.423-24.248-19.773c-3.482-3.455-6.995-7.573-11.858-8.211c-0.566-4.371-0.657-8.237-0.632-12.1
			c0.003-0.382,0.012-0.791,0.223-1.112c0.243-0.369,0.687-0.534,1.086-0.721c1.683-0.798,2.949-2.422,3.314-4.248
			c0.362-1.826-0.186-3.813-1.434-5.194c1.261-6.883,0.167-12.798-3.142-17.38c-3.606-4.996-9.774-8.025-15.932-7.841
			c-6.158,0.183-12.129,3.571-15.461,8.752c-3.333,5.183-3.938,12.011-1.587,17.705c0.098,0.73-0.402,1.611-0.724,2.354
			c-0.963,2.212-0.012,5.073,2.082,6.27c0.31,0.178,0.66,0.341,0.829,0.657c0.126,0.234,0.128,0.511,0.128,0.775
			c-0.003,2.466-0.005,4.929-0.008,7.393c-3.568-0.006-5.766-0.746-7.948-1.482c-2.768-0.933-5.658-1.945-7.638-4.093
			c-1.285-1.393-2.135-3.218-3.705-4.28c-1.395-0.941-3.143-1.138-4.817-1.306c-4.859-7.926-10.106-14.14-15.289-20.257
			c5.755-16.217,9.971-32.878,12.522-49.789l0,0l0.315-0.171c0,0,4.421-16.003,2.033-18.012c-1.964-1.652-3.079-0.305-3.413,0.226
			L83.698,218.03c21.533,17.835,53.839,27.452,80.093,18.106c26.97-9.601,43.471-6.056,47.573,4.438
			c4.102,10.494-9.782,22.314-9.782,22.314c11.49-2.085,28.279-13.132,27.298-25.827c-0.982-12.694,5.887-23.31,18.244-37.17
			C259.482,186.031,255.185,152.729,242.981,136.409z"/>
	</g>
</g>
</svg>
